<svg width="118" height="107" viewBox="0 0 118 107" fill="none" xmlns="http://www.w3.org/2000/svg">
<circle cx="68" cy="57" r="49.5" stroke="#2B3940" stroke-dasharray="6 6"/>
<circle cx="50" cy="50" r="50" fill="#EFF2F6"/>
<path d="M53.6686 38.4167C53.6686 33.7501 49.9188 30 45.3353 30C40.7518 30 37.002 33.7498 37.002 38.4167C37.002 43.2501 40.8353 49.0833 45.3353 49.0833C49.8353 49.0833 53.6686 43.2501 53.6686 38.4167Z" fill="#2B3940"/>
<path fill-rule="evenodd" clip-rule="evenodd" d="M69.3313 54.3333L66.9146 53.75C66.9146 53.7083 66.8937 53.6666 66.8729 53.625C66.852 53.5833 66.8312 53.5417 66.8312 53.5L68.0813 51.4167C68.2478 51.0833 68.2478 50.6668 67.9978 50.4166L65.8314 48.1667C65.5814 47.9168 65.1647 47.8334 64.8313 48.0833L62.748 49.4168C62.7063 49.4168 62.6646 49.396 62.623 49.3751C62.5814 49.3543 62.5397 49.3334 62.498 49.3334L61.9147 46.9167C61.8313 46.4999 61.4979 46.25 61.0815 46.25H58.0815C57.6647 46.25 57.3316 46.5 57.2482 46.9167L56.6649 49.3334C56.6232 49.3334 56.5815 49.3543 56.5399 49.3751C56.4983 49.396 56.4566 49.4168 56.4149 49.4168L54.3316 48.1667C53.9982 47.9168 53.5818 48.0002 53.3315 48.2502L51.1648 50.4169C50.9148 50.6668 50.8314 51.0836 51.0814 51.417L52.3315 53.5003C52.3315 53.542 52.3106 53.5836 52.2897 53.6253C52.2689 53.6669 52.248 53.7085 52.248 53.7503L49.9148 54.3336C49.5814 54.417 49.248 54.7504 49.248 55.1668V58.2502C49.248 58.667 49.498 59.0001 49.9148 59.0835L52.3314 59.6668C52.3314 59.7085 52.3523 59.7502 52.3732 59.7918C52.394 59.8334 52.4149 59.8751 52.4149 59.9168L51.1648 62.0001C50.9982 62.3335 50.9982 62.75 51.2482 63.0002L53.4149 65.1669C53.6649 65.4169 54.1648 65.5003 54.415 65.2503L56.4983 63.9168C56.5401 63.9168 56.5817 63.9377 56.6233 63.9586C56.665 63.9794 56.7066 64.0003 56.7483 64.0003L57.3316 66.4169C57.415 66.7503 57.7484 67.0837 58.1649 67.0837H61.1649C61.5817 67.0837 61.9147 66.8337 61.9981 66.4169L62.5814 64.0003C62.6232 64.0003 62.6648 63.9794 62.7064 63.9586C62.7481 63.9377 62.7897 63.9168 62.8314 63.9168L64.9147 65.1669C65.2481 65.4169 65.6646 65.3335 65.9148 65.0835L68.0816 62.9168C68.3315 62.6668 68.4149 62.25 68.165 61.9167L66.9149 59.75C66.9149 59.7082 66.9357 59.6666 66.9566 59.625C66.9774 59.5833 66.9983 59.5417 66.9983 59.5L69.3316 58.9167C69.6649 58.8333 69.9983 58.4999 69.9983 58.0834L69.998 55C69.998 54.7501 69.748 54.4167 69.3313 54.3333ZM59.6646 60.0833C57.8312 60.0833 56.3312 58.5833 56.3312 56.7499C56.3312 54.9165 57.8312 53.4165 59.6646 53.4165C61.498 53.4165 62.998 54.9165 62.998 56.7499C62.9146 58.5833 61.4977 60.0833 59.6646 60.0833Z" fill="#2B3940"/>
<path d="M49.9169 52.6663L49.5001 52.7498C48.4165 53.0832 47.5833 54.0831 47.6664 55.1661V58.2495C47.6664 59.4161 48.4166 60.4162 49.5832 60.6661L50 60.7496L49.75 61.0829C49.1668 62.083 49.2502 63.3331 50.0834 64.1663L52.2496 66.3331C52.6661 66.833 53.3328 67.0829 53.9996 67.0829C54.4998 67.0829 54.9163 66.9995 55.333 66.7495L55.6664 66.583L55.7498 66.9164C55.9998 67.9999 56.9998 68.8332 58.1665 68.8332H60.2498V69.1666C60.2498 69.6664 59.9165 69.9998 59.4166 69.9998H30.8333C30.3334 69.9998 30 69.6665 30 69.1666V62.9997C30.0834 59.6665 31.4166 56.583 33.6667 54.1663C36.0834 51.75 39.2499 50.4165 42.6667 50.4165H47.5001C48.1669 50.4165 48.7502 50.4996 49.3335 50.583C49.2501 51.1663 49.3335 51.7496 49.6669 52.2496L49.9169 52.6663Z" fill="#2B3940"/>
</svg>
