<svg width="48" height="48" viewBox="0 0 48 48" fill="none" xmlns="http://www.w3.org/2000/svg">
<rect x="0.5" y="0.5" width="47" height="47" rx="3.5" stroke="#2B3940" stroke-dasharray="6 6"/>
<path fill-rule="evenodd" clip-rule="evenodd" d="M24 16.5C24.4602 16.5 24.8333 16.8731 24.8333 17.3333V23.1667H30.6667C31.1269 23.1667 31.5 23.5398 31.5 24C31.5 24.4602 31.1269 24.8333 30.6667 24.8333H24.8333V30.6667C24.8333 31.1269 24.4602 31.5 24 31.5C23.5398 31.5 23.1667 31.1269 23.1667 30.6667V24.8333H17.3333C16.8731 24.8333 16.5 24.4602 16.5 24C16.5 23.5398 16.8731 23.1667 17.3333 23.1667H23.1667V17.3333C23.1667 16.8731 23.5398 16.5 24 16.5Z" fill="#2B3940"/>
</svg>
