<svg width="60" height="60" viewBox="0 0 60 60" fill="none" xmlns="http://www.w3.org/2000/svg">
<circle cx="30" cy="30" r="30" fill="#E7E9ED"/>
<path fill-rule="evenodd" clip-rule="evenodd" d="M30.0003 18.584C26.6406 18.584 23.917 21.3076 23.917 24.6673C23.917 28.027 26.6406 30.7507 30.0003 30.7507C33.3601 30.7507 36.0837 28.027 36.0837 24.6673C36.0837 21.3076 33.3601 18.584 30.0003 18.584ZM25.417 24.6673C25.417 22.136 27.469 20.084 30.0003 20.084C32.5316 20.084 34.5837 22.136 34.5837 24.6673C34.5837 27.1986 32.5316 29.2507 30.0003 29.2507C27.469 29.2507 25.417 27.1986 25.417 24.6673Z" fill="#2B3940"/>
<path d="M29.9997 34.584C27.5328 34.584 25.1192 35.1936 23.1322 36.3371C21.1456 37.4804 19.6688 39.1116 18.9902 41.0111C18.8509 41.4012 19.0541 41.8304 19.4442 41.9697C19.8342 42.1091 20.2634 41.9058 20.4028 41.5158C20.9396 40.0131 22.1412 38.6381 23.8803 37.6372C25.6191 36.6366 27.7704 36.084 29.9997 36.084C32.229 36.084 34.3803 36.6366 36.1191 37.6372C37.8582 38.6381 39.0598 40.0131 39.5966 41.5158C39.736 41.9058 40.1652 42.1091 40.5552 41.9697C40.9453 41.8304 41.1485 41.4012 41.0092 41.0111C40.3306 39.1116 38.8538 37.4804 36.8673 36.3371C34.8802 35.1936 32.4666 34.584 29.9997 34.584Z" fill="#2B3940"/>
</svg>
