<svg width="36" height="36" viewBox="0 0 36 36" fill="none" xmlns="http://www.w3.org/2000/svg">
<rect x="0.5" y="0.5" width="35" height="35" rx="7.5" stroke="#2B3940"/>
<path d="M23.34 20.2533C22.52 20.2533 21.7267 20.12 20.9867 19.88C20.8707 19.8407 20.7461 19.8349 20.627 19.8632C20.5079 19.8915 20.3992 19.9528 20.3133 20.04L19.2667 21.3533C17.38 20.4533 15.6133 18.7533 14.6733 16.8L15.9733 15.6933C16.1533 15.5067 16.2067 15.2467 16.1333 15.0133C15.8867 14.2733 15.76 13.48 15.76 12.66C15.76 12.3 15.46 12 15.1 12H12.7933C12.4333 12 12 12.16 12 12.66C12 18.8533 17.1533 24 23.34 24C23.8133 24 24 23.58 24 23.2133V20.9133C24 20.5533 23.7 20.2533 23.34 20.2533Z" fill="#2B3940"/>
</svg>
