<svg width="64" height="64" viewBox="0 0 64 64" fill="none" xmlns="http://www.w3.org/2000/svg">
<path d="M25.333 32.0003C25.333 28.3184 28.3178 25.3337 31.9997 25.3337C35.6816 25.3337 38.6663 28.3184 38.6663 32.0003C38.6663 35.6822 35.6816 38.667 31.9997 38.667C28.3178 38.667 25.333 35.6822 25.333 32.0003Z" fill="#2B3940"/>
<path fill-rule="evenodd" clip-rule="evenodd" d="M22.3404 13.4055L20.1478 16.8208H5.33301V50.667H58.6663V16.8208H43.8515L41.6589 13.4055C41.1176 12.5629 40.3844 11.8721 39.5243 11.3944C38.6642 10.9167 37.7039 10.6668 36.7286 10.667H27.2708C26.2954 10.6668 25.3351 10.9167 24.475 11.3944C23.615 11.8721 22.8817 12.5629 22.3404 13.4055ZM31.9997 22.667C26.845 22.667 22.6663 26.8457 22.6663 32.0003C22.6663 37.155 26.845 41.3337 31.9997 41.3337C37.1543 41.3337 41.333 37.155 41.333 32.0003C41.333 26.8457 37.1543 22.667 31.9997 22.667Z" fill="#2B3940"/>
</svg>
