<svg width="14" height="14" viewBox="0 0 14 14" fill="none" xmlns="http://www.w3.org/2000/svg">
<path fill-rule="evenodd" clip-rule="evenodd" d="M0.635667 0.635667C1.02619 0.245142 1.65936 0.245142 2.04988 0.635667L6.99963 5.58541L11.9494 0.635667C12.3399 0.245142 12.9731 0.245142 13.3636 0.635667C13.7541 1.02619 13.7541 1.65936 13.3636 2.04988L8.41384 6.99963L13.3636 11.9494C13.7541 12.3399 13.7541 12.9731 13.3636 13.3636C12.9731 13.7541 12.3399 13.7541 11.9494 13.3636L6.99963 8.41384L2.04988 13.3636C1.65936 13.7541 1.02619 13.7541 0.635667 13.3636C0.245142 12.9731 0.245142 12.3399 0.635667 11.9494L5.58541 6.99963L0.635667 2.04988C0.245142 1.65936 0.245142 1.02619 0.635667 0.635667Z" fill="#2B3940"/>
</svg>
