<svg width="20" height="20" viewBox="0 0 20 20" fill="none" xmlns="http://www.w3.org/2000/svg">
<path fill-rule="evenodd" clip-rule="evenodd" d="M4.69671 4.6972C5.02215 4.37177 5.54979 4.37177 5.87523 4.6972L10 8.82199L14.1248 4.6972C14.4502 4.37177 14.9779 4.37177 15.3033 4.6972C15.6288 5.02264 15.6288 5.55028 15.3033 5.87571L11.1785 10.0005L15.3033 14.1253C15.6288 14.4507 15.6288 14.9784 15.3033 15.3038C14.9779 15.6292 14.4502 15.6292 14.1248 15.3038L10 11.179L5.87523 15.3038C5.54979 15.6292 5.02215 15.6292 4.69671 15.3038C4.37128 14.9784 4.37128 14.4507 4.69671 14.1253L8.8215 10.0005L4.69671 5.87571C4.37128 5.55028 4.37128 5.02264 4.69671 4.6972Z" fill="#2B3940"/>
</svg>
