<svg width="118" height="107" viewBox="0 0 118 107" fill="none" xmlns="http://www.w3.org/2000/svg">
<circle cx="68" cy="57" r="49.5" stroke="#2B3940" stroke-dasharray="6 6"/>
<circle cx="50" cy="50" r="50" fill="#EFF2F6"/>
<path d="M38 32C38.5304 32 39.0391 32.2107 39.4142 32.5858C39.7893 32.9609 40 33.4696 40 34V35.76C42.12 34.88 45 34 48 34C54 34 54 38 58 38C64 38 66 34 66 34V50C66 50 64 54 58 54C52 54 52 50 48 50C42 50 40 54 40 54V68H36V34C36 33.4696 36.2107 32.9609 36.5858 32.5858C36.9609 32.2107 37.4696 32 38 32Z" fill="#2B3940"/>
</svg>
