<svg width="10" height="14" viewBox="0 0 10 14" fill="none" xmlns="http://www.w3.org/2000/svg">
<path d="M6.00049 1C6.00049 0.447715 5.55277 0 5.00049 0C4.4482 0 4.00049 0.447715 4.00049 1V2H3.66699C2.87134 2 2.10828 2.31607 1.54567 2.87868C0.983063 3.44129 0.666992 4.20435 0.666992 5C0.666992 5.79565 0.983063 6.55871 1.54567 7.12132C2.10828 7.68393 2.87134 8 3.66699 8H6.33366C6.59888 8 6.85323 8.10536 7.04077 8.29289C7.2283 8.48043 7.33366 8.73478 7.33366 9C7.33366 9.26522 7.2283 9.51957 7.04077 9.70711C6.85323 9.89464 6.59888 10 6.33366 10H3.69227C3.49925 9.9882 3.31364 9.92068 3.15804 9.80542C2.99765 9.68661 2.87648 9.52252 2.81013 9.33426C2.62655 8.81338 2.05547 8.53995 1.53459 8.72353C1.01371 8.90711 0.740274 9.47819 0.923855 9.99907C1.1229 10.5638 1.4864 11.0561 1.96758 11.4125C2.44876 11.769 3.0256 11.9732 3.62385 11.9991C3.63823 11.9997 3.65261 12 3.66699 12H4.00049V13C4.00049 13.5523 4.4482 14 5.00049 14C5.55277 14 6.00049 13.5523 6.00049 13V12H6.33366C7.12931 12 7.89237 11.6839 8.45498 11.1213C9.01759 10.5587 9.33366 9.79565 9.33366 9C9.33366 8.20435 9.01759 7.44129 8.45498 6.87868C7.89237 6.31607 7.12931 6 6.33366 6H3.66699C3.40178 6 3.14742 5.89464 2.95989 5.70711C2.77235 5.51957 2.66699 5.26522 2.66699 5C2.66699 4.73478 2.77235 4.48043 2.95989 4.29289C3.14742 4.10536 3.40178 4 3.66699 4H6.30838C6.5014 4.01179 6.68701 4.07932 6.84261 4.19458C7.003 4.31339 7.12417 4.47748 7.19052 4.66574C7.3741 5.18662 7.94518 5.46005 8.46606 5.27647C8.98694 5.09289 9.26038 4.52181 9.0768 4.00093C8.87775 3.43617 8.51425 2.9439 8.03307 2.58747C7.55189 2.23104 6.97505 2.02676 6.3768 2.00093C6.36243 2.00031 6.34804 2 6.33366 2H6.00049V1Z" fill="#2B3940"/>
</svg>
