<svg width="20" height="20" viewBox="0 0 20 20" fill="none" xmlns="http://www.w3.org/2000/svg">
<path fill-rule="evenodd" clip-rule="evenodd" d="M14.7559 4.27012C14.4305 3.94468 13.9028 3.94468 13.5774 4.27012L12.8452 5.00235L15 7.15717L15.7322 6.42494C16.0577 6.0995 16.0577 5.57187 15.7322 5.24643L14.7559 4.27012ZM16.9107 7.60345C17.8871 6.62714 17.8871 5.04423 16.9107 4.06792L15.9344 3.09161C14.9581 2.1153 13.3752 2.1153 12.3989 3.09161L11.0779 4.41257L2.74408 12.7464C2.5878 12.9027 2.5 13.1147 2.5 13.3357V16.669C2.5 17.1293 2.8731 17.5024 3.33333 17.5024H6.66667C6.88768 17.5024 7.09964 17.4146 7.25592 17.2583L16.9107 7.60345ZM13.8215 8.33568L11.6667 6.18086L4.16667 13.6809V15.8357H6.32149L13.8215 8.33568Z" fill="#2B3940"/>
</svg>
