<svg width="12" height="12" viewBox="0 0 12 12" fill="none" xmlns="http://www.w3.org/2000/svg">
<path d="M2.47201 2.66634H0.666667C0.298477 2.66634 0 2.36786 0 1.99967C0 1.63148 0.298477 1.33301 0.666667 1.33301H2.47201C2.7292 0.744373 3.31656 0.333008 4 0.333008C4.68344 0.333008 5.2708 0.744373 5.52799 1.33301H11.3333C11.7015 1.33301 12 1.63148 12 1.99967C12 2.36786 11.7015 2.66634 11.3333 2.66634H5.52799C5.2708 3.25498 4.68344 3.66634 4 3.66634C3.31656 3.66634 2.7292 3.25498 2.47201 2.66634Z" fill="white"/>
<path d="M2.47201 9.33301C2.7292 8.74437 3.31656 8.33301 4 8.33301C4.68344 8.33301 5.2708 8.74437 5.52799 9.33301H11.3333C11.7015 9.33301 12 9.63148 12 9.99967C12 10.3679 11.7015 10.6663 11.3333 10.6663H5.52799C5.2708 11.255 4.68344 11.6663 4 11.6663C3.31656 11.6663 2.7292 11.255 2.47201 10.6663H0.666667C0.298477 10.6663 0 10.3679 0 9.99967C0 9.63148 0.298477 9.33301 0.666667 9.33301H2.47201Z" fill="white"/>
<path d="M6.47201 5.33301C6.7292 4.74437 7.31656 4.33301 8 4.33301C8.68344 4.33301 9.2708 4.74437 9.52799 5.33301H11.3333C11.7015 5.33301 12 5.63148 12 5.99967C12 6.36786 11.7015 6.66634 11.3333 6.66634H9.52799C9.2708 7.25498 8.68344 7.66634 8 7.66634C7.31656 7.66634 6.7292 7.25498 6.47201 6.66634H0.666667C0.298477 6.66634 0 6.36786 0 5.99967C0 5.63148 0.298477 5.33301 0.666667 5.33301H6.47201Z" fill="white"/>
</svg>
