<svg width="20" height="20" viewBox="0 0 20 20" fill="none" xmlns="http://www.w3.org/2000/svg">
<path d="M12.144 2.89981H12.1483H12.144ZM12.144 2.89981L10.0008 8.59924L14.2872 11.3521L7.85766 18.0983L10.0008 12.3989L5.71448 9.64414L12.144 2.89981ZM12.144 1C11.7043 1.0022 11.2818 1.18927 10.9618 1.5234L4.53488 8.26297C4.34114 8.46633 4.19297 8.71704 4.10218 8.9951C4.01139 9.27316 3.98049 9.57088 4.01194 9.86451C4.07366 10.4592 4.38657 10.9873 4.85378 11.2875L7.8388 13.2072L6.27342 17.3688C6.16537 17.6576 6.12322 17.9715 6.15071 18.2827C6.17819 18.5939 6.27447 18.8927 6.43101 19.1529C6.58755 19.413 6.79954 19.6264 7.04823 19.7742C7.29691 19.9219 7.57462 19.9995 7.8568 20C8.28372 20 8.70807 19.8233 9.03555 19.4795L15.4651 12.7323C15.6589 12.5292 15.8071 12.2786 15.8979 12.0007C15.9887 11.7228 16.0195 11.4252 15.988 11.1317C15.9572 10.8383 15.8651 10.5569 15.719 10.3099C15.5728 10.0629 15.3767 9.85702 15.1462 9.70873L12.1612 7.79182L13.6948 3.71388C13.8188 3.42417 13.8746 3.10439 13.857 2.78435C13.8394 2.4643 13.749 2.15439 13.5942 1.88349C13.4394 1.61258 13.2253 1.3895 12.9717 1.23502C12.7181 1.08055 12.4334 0.999694 12.144 1Z" fill="#2B3940"/>
</svg>
