<svg width="100" height="24" viewBox="0 0 100 24" fill="none" xmlns="http://www.w3.org/2000/svg">
<path d="M91.7071 5.29289C91.3166 4.90237 90.6834 4.90237 90.2929 5.29289C89.9024 5.68342 89.9024 6.31658 90.2929 6.70711L94.5858 11H79C78.4477 11 78 11.4477 78 12C78 12.5523 78.4477 13 79 13H94.5858L90.2929 17.2929C89.9024 17.6834 89.9024 18.3166 90.2929 18.7071C90.6834 19.0976 91.3166 19.0976 91.7071 18.7071L97.7071 12.7071C98.0976 12.3166 98.0976 11.6834 97.7071 11.2929L91.7071 5.29289Z" fill="#2B3940"/>
<path d="M8.29289 18.7071C8.68342 19.0976 9.31658 19.0976 9.70711 18.7071C10.0976 18.3166 10.0976 17.6834 9.70711 17.2929L5.41421 13H21C21.5523 13 22 12.5523 22 12C22 11.4477 21.5523 11 21 11H5.41421L9.70711 6.70711C10.0976 6.31658 10.0976 5.68342 9.70711 5.29289C9.31658 4.90237 8.68342 4.90237 8.29289 5.29289L2.29289 11.2929C1.90237 11.6834 1.90237 12.3166 2.29289 12.7071L8.29289 18.7071Z" fill="#2B3940"/>
<circle cx="38" cy="12" r="2" fill="#2B3940"/>
<circle cx="50" cy="12" r="2" fill="#2B3940"/>
<circle cx="62" cy="12" r="2" fill="#2B3940"/>
</svg>
