<svg width="20" height="20" viewBox="0 0 20 20" fill="none" xmlns="http://www.w3.org/2000/svg">
<path fill-rule="evenodd" clip-rule="evenodd" d="M0 2C0 1.46957 0.243131 0.960859 0.675907 0.585786C1.10868 0.210714 1.69565 0 2.30769 0L14.9338 0L20 4.39067V18C20 18.5304 19.7569 19.0391 19.3241 19.4142C18.8913 19.7893 18.3043 20 17.6923 20H2.30769C1.69565 20 1.10868 19.7893 0.675907 19.4142C0.243131 19.0391 0 18.5304 0 18V2ZM9.23077 5.33333H4.61538V6.66667H9.23077V5.33333ZM15.3846 9.33333H4.61538V10.6667H15.3846V9.33333ZM8.16154 14.544C7.54 14.688 7.05385 15.1 6.88462 15.544L5.42308 15.1227C5.76615 14.2333 6.66462 13.512 7.76154 13.256C8.84923 13.0027 10.0908 13.216 11.1646 14.0707C11.4877 13.9893 11.8062 13.9427 12.1215 13.928C12.9523 13.8893 13.6954 14.0707 14.3338 14.3013C14.8031 14.4707 15.2569 14.684 15.6415 14.864C15.7615 14.9227 15.8769 14.976 15.9831 15.024C16.48 15.2507 16.7523 15.3333 16.9231 15.3333V16.6667C16.3231 16.6667 15.7323 16.416 15.2677 16.2053C15.1277 16.1413 14.9882 16.0764 14.8492 16.0107C14.4899 15.8345 14.1202 15.6747 13.7415 15.532C13.2277 15.3453 12.7215 15.236 12.2046 15.26C12.1274 15.2632 12.0504 15.2695 11.9738 15.2787L11.9754 15.2973C12.0169 15.7293 11.8108 16.0853 11.5446 16.3413C11.0554 16.8133 10.2569 17.0613 9.65692 17.1547C9.34603 17.2087 9.02725 17.22 8.71231 17.188C8.53368 17.1682 8.36123 17.1184 8.20462 17.0413C8.08284 16.9806 7.97796 16.8974 7.8974 16.7976C7.81685 16.6979 7.76259 16.584 7.73846 16.464C7.70062 16.2397 7.76158 16.0112 7.90923 15.824C8.02095 15.6818 8.15685 15.555 8.31231 15.448C8.60462 15.2387 9.02769 15.012 9.59538 14.764L9.63692 14.7373C9.41876 14.6199 9.17531 14.5423 8.9214 14.509C8.66749 14.4758 8.40843 14.4877 8.16 14.544H8.16154Z" fill="white"/>
</svg>
