<svg width="20" height="20" viewBox="0 0 20 20" fill="none" xmlns="http://www.w3.org/2000/svg">
<path d="M16.6666 5.00008H14.1666V3.33341C14.1666 2.41425 13.4191 1.66675 12.5 1.66675H7.49996C6.58079 1.66675 5.83329 2.41425 5.83329 3.33341V5.00008H3.33329C2.41413 5.00008 1.66663 5.74758 1.66663 6.66675V15.8334C1.66663 16.7526 2.41413 17.5001 3.33329 17.5001H16.6666C17.5858 17.5001 18.3333 16.7526 18.3333 15.8334V6.66675C18.3333 5.74758 17.5858 5.00008 16.6666 5.00008ZM12.5 3.33341V5.00008H7.49996V3.33341H12.5ZM6.66663 6.66675H16.6666V9.16675H3.33329V6.66675H6.66663ZM3.33329 15.8334V10.8334H8.33329V12.5001H11.6666V10.8334H16.6666L16.6675 15.8334H3.33329Z" fill="black"/>
</svg>
