<svg width="18" height="17" viewBox="0 0 18 17" fill="none" xmlns="http://www.w3.org/2000/svg">
<path d="M15.6666 4.00008H13.1666V2.33341C13.1666 1.41425 12.4191 0.666748 11.5 0.666748H6.49996C5.58079 0.666748 4.83329 1.41425 4.83329 2.33341V4.00008H2.33329C1.41413 4.00008 0.666626 4.74758 0.666626 5.66675V14.8334C0.666626 15.7526 1.41413 16.5001 2.33329 16.5001H15.6666C16.5858 16.5001 17.3333 15.7526 17.3333 14.8334V5.66675C17.3333 4.74758 16.5858 4.00008 15.6666 4.00008ZM11.5 2.33341V4.00008H6.49996V2.33341H11.5ZM5.66663 5.66675H15.6666V8.16675H2.33329V5.66675H5.66663ZM2.33329 14.8334V9.83341H7.33329V11.5001H10.6666V9.83341H15.6666L15.6675 14.8334H2.33329Z" fill="white"/>
</svg>
