<svg width="82" height="82" viewBox="0 0 82 82" fill="none" xmlns="http://www.w3.org/2000/svg">
<path d="M81.8655 44.2999L64.091 9.43417C63.5783 8.75029 62.7239 8.23754 61.8696 8.75029L27.3463 26.184H1.70946C0.683952 26.184 0 26.8679 0 27.8934C0 28.919 0.683885 29.6029 1.70946 29.6029H20.6807L12.4774 33.8754L5.12771 33.8747C4.1022 33.8747 3.41825 34.5586 3.41825 35.5842C3.41825 36.6097 4.10214 37.2937 5.12771 37.2937H11.7935L14.0156 41.5661H8.88739C7.86188 41.5661 7.17792 42.25 7.17792 43.2756C7.17792 44.3012 7.86181 44.9851 8.88739 44.9851H15.7237L29.2259 71.3051C29.5675 71.989 30.593 72.5018 31.4479 71.989L81.1825 46.6929C81.8657 46.1801 82.208 45.1546 81.8657 44.3002L81.8655 44.2999ZM59.4766 13.7078C57.4256 19.5186 64.6042 -0.990114 49.735 41.9079C48.3679 45.326 44.4371 43.4462 43.9243 43.4462L17.433 35.2428L59.4766 13.7078ZM30.5934 66.6904L16.237 38.3191C41.3603 46.0097 40.6771 45.8393 41.0195 46.0097L30.5934 66.6904ZM34.5243 66.6904L44.4371 47.036L45.121 47.2071C51.274 48.7453 53.1538 42.5923 53.3244 42.4218L75.03 46.0111L34.5243 66.6904ZM54.5211 39.1735C58.2808 28.4063 60.8447 20.5447 62.8957 14.5622L77.2521 42.9335L54.5211 39.1735Z" fill="#2B3940"/>
</svg>
