<svg width="32" height="32" viewBox="0 0 32 32" fill="none" xmlns="http://www.w3.org/2000/svg">
<circle cx="16" cy="16" r="16" fill="#E7E9ED"/>
<path d="M10.0002 11.333H22.0002C22.0377 11.333 22.0745 11.3361 22.1104 11.3421C22.0492 11.3544 21.9894 11.3796 21.935 11.4181L16.0002 15.6213L10.0654 11.4181C10.0109 11.3796 9.95117 11.3544 9.88993 11.3421C9.92579 11.3361 9.96261 11.333 10.0002 11.333Z" fill="#2B3940"/>
<path d="M9.34199 11.893C9.3364 11.9277 9.3335 11.9634 9.3335 11.9997V19.9997C9.3335 20.3679 9.63197 20.6663 10.0002 20.6663H22.0002C22.3684 20.6663 22.6668 20.3679 22.6668 19.9997V11.9997C22.6668 11.9634 22.6639 11.9277 22.6583 11.893C22.6362 12.0087 22.5714 12.1162 22.4684 12.1892L16.2669 16.5813C16.1067 16.6947 15.8936 16.6947 15.7334 16.5813L9.53192 12.1892C9.42894 12.1162 9.3641 12.0087 9.34199 11.893Z" fill="#2B3940"/>
</svg>
