<svg width="32" height="32" viewBox="0 0 32 32" fill="none" xmlns="http://www.w3.org/2000/svg">
<circle cx="16" cy="16" r="16" fill="#E7E9ED"/>
<path d="M20.82 18.1735L19.1267 17.9802C18.9276 17.9568 18.7258 17.9788 18.5364 18.0446C18.347 18.1105 18.175 18.2183 18.0334 18.3602L16.8067 19.5868C14.9142 18.6243 13.3759 17.086 12.4134 15.1935L13.6467 13.9602C13.9334 13.6735 14.0734 13.2735 14.0267 12.8668L13.8334 11.1868C13.7956 10.8616 13.6395 10.5617 13.3949 10.3441C13.1502 10.1265 12.8341 10.0064 12.5067 10.0068H11.3534C10.6 10.0068 9.97336 10.6335 10.02 11.3868C10.3734 17.0802 14.9267 21.6268 20.6134 21.9802C21.3667 22.0268 21.9934 21.4002 21.9934 20.6468V19.4935C22 18.8202 21.4934 18.2535 20.82 18.1735Z" fill="#2B3940"/>
</svg>
