<svg width="13" height="20" viewBox="0 0 13 20" fill="none" xmlns="http://www.w3.org/2000/svg">
<path d="M10.5834 6.77083H12.6667C12.6667 3.81562 9.79689 2.46771 7.45835 2.15729V0H5.37502V2.15729C3.03648 2.46771 0.166687 3.81562 0.166687 6.77083C0.166687 9.58958 2.94377 11.0552 5.37502 11.3854V16.5625C3.86669 16.301 2.25002 15.4958 2.25002 14.0625H0.166687C0.166687 16.7594 2.69273 18.3531 5.37502 18.6833V20.8333H7.45835V18.6771C9.79689 18.3667 12.6667 17.0177 12.6667 14.0625C12.6667 11.1073 9.79689 9.75937 7.45835 9.44896V4.27083C8.84377 4.51979 10.5834 5.25104 10.5834 6.77083V6.77083ZM2.25002 6.77083C2.25002 5.25104 3.9896 4.51979 5.37502 4.27083V9.26979C3.94689 9.00625 2.25002 8.22604 2.25002 6.77083ZM10.5834 14.0625C10.5834 15.5823 8.84377 16.3135 7.45835 16.5625V11.5625C8.84377 11.8115 10.5834 12.5427 10.5834 14.0625V14.0625Z" fill="white"/>
</svg>
