<svg width="24" height="24" viewBox="0 0 24 24" fill="none" xmlns="http://www.w3.org/2000/svg">
<path fill-rule="evenodd" clip-rule="evenodd" d="M9 4C9 3.44772 9.44772 3 10 3H14C14.5523 3 15 3.44772 15 4C15 4.55228 14.5523 5 14 5H19C19.5523 5 20 5.44772 20 6C20 6.55228 19.5523 7 19 7H5C4.44772 7 4 6.55228 4 6C4 5.44772 4.44772 5 5 5H10C9.44772 5 9 4.55228 9 4ZM6 9C6.55228 9 7 9.44772 7 10V20H17V10C17 9.44772 17.4477 9 18 9C18.5523 9 19 9.44772 19 10V20C19 20.4875 18.8775 21.0368 18.4571 21.4571C18.0368 21.8775 17.4875 22 17 22H7C6.51252 22 5.96324 21.8775 5.54289 21.4571C5.12255 21.0368 5 20.4875 5 20V10C5 9.44772 5.44772 9 6 9Z" fill="#2B3940"/>
</svg>
