<svg width="20" height="18" viewBox="0 0 20 18" fill="none" xmlns="http://www.w3.org/2000/svg">
<path fill-rule="evenodd" clip-rule="evenodd" d="M6.24967 2.33366C4.12804 2.33366 2.49967 3.95382 2.49967 5.99624C2.49967 7.26217 3.07245 8.47869 4.25949 9.90228C5.45558 11.3367 7.18234 12.8748 9.34519 14.7987L9.3464 14.7997L10.0018 15.385L10.6535 14.8074L10.6545 14.8065C12.8171 12.8788 14.5436 11.339 15.7397 9.90351C16.9269 8.47874 17.4997 7.26219 17.4997 5.99624C17.4997 3.95382 15.8713 2.33366 13.7497 2.33366C12.5461 2.33366 11.3823 2.8873 10.629 3.75507C10.4707 3.93739 10.2411 4.04211 9.99967 4.04211C9.75823 4.04211 9.52866 3.93739 9.37039 3.75507C8.61706 2.8873 7.45329 2.33366 6.24967 2.33366ZM0.833008 5.99624C0.833008 3.00323 3.23797 0.666992 6.24967 0.666992C7.63898 0.666992 8.97676 1.18386 9.99967 2.04383C11.0226 1.18386 12.3604 0.666992 13.7497 0.666992C16.7614 0.666992 19.1663 3.00323 19.1663 5.99624C19.1663 7.82021 18.3225 9.40747 17.0201 10.9704C15.7418 12.5045 13.9338 14.1161 11.8366 15.9855L11.7625 16.0515L11.7607 16.0532L10.5524 17.124C10.236 17.4043 9.7599 17.4034 9.44462 17.1219L8.23628 16.0429L8.18418 15.9965C6.07803 14.1231 4.26212 12.5079 2.97944 10.9696C1.6769 9.40752 0.833008 7.82022 0.833008 5.99624Z" fill="white"/>
</svg>
