<svg width="16" height="16" viewBox="0 0 16 16" fill="none" xmlns="http://www.w3.org/2000/svg">
<path d="M9.20002 5.9998C9.20002 6.66255 8.66277 7.1998 8.00002 7.1998C7.33728 7.1998 6.80002 6.66255 6.80002 5.9998C6.80002 5.33706 7.33728 4.7998 8.00002 4.7998C8.66277 4.7998 9.20002 5.33706 9.20002 5.9998Z" fill="#2B3940"/>
<path fill-rule="evenodd" clip-rule="evenodd" d="M3.33362 5.99967C3.33362 3.41967 5.42028 1.33301 8.00029 1.33301C10.5803 1.33301 12.667 3.41967 12.667 5.99967C12.667 9.49967 8.00029 14.6663 8.00029 14.6663C8.00029 14.6663 3.33362 9.49967 3.33362 5.99967ZM8.00029 2.66634C6.16028 2.66634 4.66695 4.15967 4.66695 5.99967C4.66695 7.89967 6.61362 10.8063 8.00029 12.5863C9.41362 10.793 11.3336 7.91967 11.3336 5.99967C11.3336 4.15967 9.84029 2.66634 8.00029 2.66634Z" fill="#2B3940"/>
</svg>
