<svg width="20" height="20" viewBox="0 0 20 20" fill="none" xmlns="http://www.w3.org/2000/svg">
<path d="M11.5 7.5C11.5 8.32843 10.8284 9 10 9C9.17157 9 8.5 8.32843 8.5 7.5C8.5 6.67157 9.17157 6 10 6C10.8284 6 11.5 6.67157 11.5 7.5Z" fill="#2B3940"/>
<path fill-rule="evenodd" clip-rule="evenodd" d="M4.16699 7.49984C4.16699 4.27484 6.77533 1.6665 10.0003 1.6665C13.2253 1.6665 15.8337 4.27484 15.8337 7.49984C15.8337 11.8748 10.0003 18.3332 10.0003 18.3332C10.0003 18.3332 4.16699 11.8748 4.16699 7.49984ZM10.0003 3.33317C7.70033 3.33317 5.83366 5.19984 5.83366 7.49984C5.83366 9.87484 8.26699 13.5082 10.0003 15.7332C11.767 13.4915 14.167 9.89984 14.167 7.49984C14.167 5.19984 12.3003 3.33317 10.0003 3.33317Z" fill="#2B3940"/>
</svg>
