<svg width="118" height="107" viewBox="0 0 118 107" fill="none" xmlns="http://www.w3.org/2000/svg">
<circle cx="68" cy="57" r="49.5" stroke="#2B3940" stroke-dasharray="6 6"/>
<circle cx="50" cy="50" r="50" fill="#EFF2F6"/>
<path fill-rule="evenodd" clip-rule="evenodd" d="M68.7203 26C67.3917 25.9979 66.1111 26.4883 65.1348 27.3723C64.1589 28.2559 63.5593 29.469 63.456 30.7677C63.3527 32.0664 63.7538 33.3556 64.5784 34.377L58.8418 40.0006L60.1926 41.3385L66.0252 35.6199C67.4408 36.4456 69.1681 36.5758 70.6954 35.9725C72.2234 35.3687 73.3758 34.1006 73.8116 32.5438C74.2479 30.9866 73.9175 29.3194 72.9189 28.0358C71.9199 26.7521 70.3674 25.9991 68.7203 26ZM68.7203 34.4707C67.8293 34.4707 66.9747 34.1236 66.3443 33.506C65.7143 32.8879 65.3602 32.0501 65.3602 31.1766C65.3602 30.303 65.7143 29.4652 66.3443 28.8472C66.9747 28.2295 67.8293 27.8824 68.7203 27.8824C69.6113 27.8824 70.4659 28.2295 71.0964 28.8472C71.7264 29.4652 72.0804 30.303 72.0804 31.1766C72.0804 32.0501 71.7264 32.8879 71.0964 33.506C70.4659 34.1236 69.6113 34.4707 68.7203 34.4707Z" fill="#2B3940"/>
<path fill-rule="evenodd" clip-rule="evenodd" d="M66.3201 60.823C65.2517 60.8221 64.209 61.1415 63.3303 61.7373L60.1926 58.6611L58.8418 59.999L61.9726 63.0684C61.076 64.3486 60.8138 65.9558 61.2577 67.4466C61.7017 68.9373 62.8053 70.1538 64.2637 70.7597C65.7222 71.366 67.3813 71.2975 68.7828 70.5739C70.1842 69.85 71.1799 68.547 71.4949 67.0252C71.8099 65.5034 71.4109 63.923 70.408 62.7209C69.4051 61.5187 67.9042 60.8222 66.3201 60.823ZM66.3201 69.2937C65.4291 69.2937 64.5745 68.9466 63.9441 68.3289C63.3141 67.7109 62.9601 66.8731 62.9601 65.9995C62.9601 65.126 63.3141 64.2882 63.9441 63.6701C64.5745 63.0525 65.4291 62.7054 66.3201 62.7054C67.2112 62.7054 68.0657 63.0525 68.6962 63.6701C69.3262 64.2882 69.6802 65.126 69.6802 65.9995C69.6802 66.8731 69.3262 67.7109 68.6962 68.3289C68.0657 68.9466 67.2112 69.2937 66.3201 69.2937Z" fill="#2B3940"/>
<path fill-rule="evenodd" clip-rule="evenodd" d="M30.3842 31.8685C31.3811 30.5437 32.9613 29.7626 34.6405 29.7647C35.9297 29.7634 37.1748 30.2253 38.1408 31.0627C39.1064 31.9001 39.7257 33.0555 39.8817 34.3102C40.0381 35.5648 39.7201 36.832 38.9881 37.8724L41.1589 40.001L39.808 41.3384L37.6303 39.2035C36.2477 40.1375 34.4944 40.3716 32.9073 39.8333C31.3203 39.2951 30.0894 38.0488 29.5913 36.4766C29.0929 34.9043 29.3878 33.1933 30.3842 31.8685ZM32.2645 37.2706C32.8949 37.8883 33.7495 38.2354 34.6405 38.2354C35.5315 38.2354 36.3861 37.8883 37.0165 37.2706C37.6466 36.6526 38.0006 35.8147 38.0006 34.9412C38.0006 34.0677 37.6466 33.2299 37.0165 32.6118C36.3861 31.9941 35.5315 31.6471 34.6405 31.6471C33.7495 31.6471 32.8949 31.9941 32.2645 32.6118C31.6344 33.2299 31.2804 34.0677 31.2804 34.9412C31.2804 35.8147 31.6344 36.6526 32.2645 37.2706Z" fill="#2B3940"/>
<path fill-rule="evenodd" clip-rule="evenodd" d="M58.9176 42.7527L57.4342 41.2796C57.0789 40.9283 56.6221 40.693 56.1253 40.6065C55.6286 40.5195 55.1164 40.5855 54.6596 40.7951C54.2691 40.6065 53.8667 40.443 53.4549 40.3056C53.2864 39.8384 52.9744 39.4338 52.5617 39.1472C52.1494 38.8606 51.6565 38.7064 51.1509 38.7056H48.8468C48.3411 38.7064 47.8482 38.8606 47.4359 39.1472C47.0232 39.4337 46.7112 39.8384 46.5428 40.3056C46.1305 40.4422 45.728 40.6057 45.3381 40.7951C44.8791 40.5846 44.3643 40.5191 43.8659 40.6073C43.367 40.696 42.9084 40.9342 42.554 41.2893L41.0706 42.7573C40.7162 43.109 40.4805 43.559 40.3956 44.0464C40.3103 44.5338 40.3802 45.035 40.5953 45.4821C40.3999 45.8758 40.2302 46.2813 40.0866 46.6964C39.6147 46.8658 39.2076 47.1733 38.9195 47.5775C38.6319 47.9813 38.4781 48.4624 38.4785 48.9553V51.0445C38.4781 51.5373 38.6319 52.0184 38.9195 52.4222C39.2075 52.8265 39.6147 53.134 40.0866 53.3034C40.2302 53.7185 40.3999 54.124 40.5953 54.5176C40.3793 54.966 40.3099 55.4689 40.3965 55.9576C40.4835 56.4463 40.7222 56.8967 41.08 57.2471L42.5634 58.7202C42.9187 59.0715 43.3756 59.3068 43.8724 59.3933C44.3691 59.4803 44.8812 59.4143 45.3381 59.2047C45.7285 59.3933 46.131 59.5568 46.5428 59.6942C46.7112 60.1614 47.0232 60.566 47.4359 60.8526C47.8482 61.1392 48.3411 61.2934 48.8468 61.2942H51.1509C51.6566 61.2934 52.1495 61.1392 52.5617 60.8526C52.9744 60.5661 53.2865 60.1614 53.4549 59.6942C53.8672 59.5576 54.2696 59.3941 54.6596 59.2047C55.1186 59.4152 55.6333 59.4807 56.1318 59.3921C56.6306 59.3038 57.0892 59.0656 57.4437 58.7105L58.927 57.2425C59.2815 56.8908 59.5172 56.4408 59.6021 55.9534C59.6873 55.466 59.6175 54.9648 59.4023 54.5177C59.5978 54.124 59.7675 53.7185 59.9111 53.3034C60.3829 53.134 60.7901 52.8265 61.0781 52.4223C61.3657 52.0185 61.5196 51.5374 61.5191 51.0445V48.9554C61.5196 48.4625 61.3657 47.9814 61.0781 47.5776C60.7901 47.1734 60.383 46.8658 59.9111 46.6965C59.7675 46.2813 59.5978 45.8759 59.4023 45.4822C59.6183 45.0338 59.6878 44.5309 59.6012 44.0422C59.5142 43.5535 59.2755 43.1031 58.9176 42.7527ZM49.9988 55.1764C48.5986 55.1764 47.2554 54.631 46.265 53.6604C45.275 52.6894 44.7186 51.3725 44.7186 49.9999C44.7186 48.6272 45.2749 47.3103 46.265 46.3393C47.2554 45.3687 48.5987 44.8233 49.9988 44.8233C51.3989 44.8233 52.7422 45.3687 53.7326 46.3393C54.7226 47.3104 55.2789 48.6272 55.2789 49.9999C55.2781 51.3726 54.7213 52.6885 53.7314 53.6592C52.7413 54.6298 51.399 55.1757 49.9988 55.1764Z" fill="#2B3940"/>
<path fill-rule="evenodd" clip-rule="evenodd" d="M34.8654 72.6273C33.8891 73.5114 32.6084 74.0017 31.2799 73.9996C29.6328 74.0005 28.0803 73.2475 27.0813 71.9638C26.0827 70.6803 25.7522 69.013 26.1885 67.4558C26.6243 65.899 27.7768 64.631 29.3047 64.0272C30.8321 63.4238 32.5594 63.5541 33.975 64.3797L39.8075 58.6611L41.1584 59.999L35.4218 65.6226C36.2464 66.644 36.6475 67.9332 36.5442 69.2319C36.4409 70.5307 35.8413 71.7437 34.8654 72.6273ZM33.6559 66.4936C33.0255 65.876 32.1709 65.5289 31.2799 65.5289C30.3889 65.5289 29.5343 65.876 28.9038 66.4936C28.2738 67.1117 27.9198 67.9495 27.9198 68.8231C27.9198 69.6966 28.2738 70.5344 28.9038 71.1525C29.5343 71.7701 30.3889 72.1172 31.2799 72.1172C32.1709 72.1172 33.0255 71.7701 33.6559 71.1525C34.2859 70.5344 34.6399 69.6966 34.6399 68.8231C34.6399 67.9495 34.2859 67.1117 33.6559 66.4936Z" fill="#2B3940"/>
</svg>
