<svg width="20" height="20" viewBox="0 0 20 20" fill="none" xmlns="http://www.w3.org/2000/svg">
<path d="M10.8421 6.16842C10.8421 7.31958 9.90902 8.25267 8.75797 8.25267C7.6068 8.25267 6.67372 7.31958 6.67372 6.16842C6.67372 5.0174 7.6068 4.08427 8.75797 4.08427C9.90899 4.08427 10.8421 5.01736 10.8421 6.16842Z" fill="white"/>
<path d="M10.1684 8.92632C9.74739 9.13691 9.26322 9.2632 8.75788 9.2632C8.23156 9.2632 7.76841 9.1369 7.32638 8.90532C6.50533 9.15791 5.89488 9.85265 5.76845 10.758L5.60001 12.0422C5.55786 12.3159 5.78945 12.5685 6.06317 12.5685H11.4105C11.6843 12.5685 11.8947 12.3369 11.8737 12.0422L11.7262 10.758C11.6 9.87367 10.9895 9.17892 10.1684 8.92632Z" fill="white"/>
<path fill-rule="evenodd" clip-rule="evenodd" d="M15.6421 14.0842L19.6842 18.1263C20.1053 18.5474 20.1053 19.2421 19.6841 19.6843C19.4737 19.8947 19.179 20 18.9052 20C18.6316 20 18.3369 19.8949 18.1263 19.6843L14.0842 15.6632C12.6105 16.8 10.758 17.4948 8.73684 17.4948C3.91579 17.4948 0 13.5579 0 8.73685C0 3.91579 3.91579 0 8.73684 0C13.5579 0 17.4948 3.91579 17.4737 8.73685C17.4737 10.7579 16.8001 12.6106 15.6421 14.0842ZM8.73688 2.21053C5.13688 2.21053 2.21056 5.13692 2.21056 8.73685C2.21056 12.3579 5.11583 15.2842 8.73688 15.2842C12.3579 15.2842 15.2842 12.3369 15.2842 8.73685C15.2842 5.13685 12.337 2.21053 8.73688 2.21053Z" fill="white"/>
</svg>
