<svg width="709" height="52" viewBox="0 0 709 52" fill="none" xmlns="http://www.w3.org/2000/svg">
<line x1="2.18557e-08" y1="24.75" x2="646" y2="24.7501" stroke="white" stroke-width="0.5" stroke-dasharray="6 6"/>
<path fill-rule="evenodd" clip-rule="evenodd" d="M707.56 25.5456L708.091 25.0153L707.558 24.4826L707.553 24.4779L707.536 24.4612C707.522 24.447 707.501 24.4267 707.474 24.4004C707.42 24.348 707.34 24.2722 707.237 24.176C707.03 23.9834 706.726 23.7087 706.334 23.3744C705.551 22.7061 704.414 21.7979 702.99 20.8317C700.148 18.9036 696.133 16.7224 691.49 15.7779C690.006 15.4761 688.456 15.3 686.858 15.3001C685.266 15.3 684.728 15.3463 683.845 15.4223C683.632 15.4407 683.399 15.4608 683.126 15.4823L683.126 11.0489L669.749 6.00098L669.749 17.2417C669.183 17.3169 668.547 17.3821 667.992 17.4328C667.609 17.4679 667.269 17.4955 667.025 17.5144C666.903 17.5238 666.805 17.5311 666.738 17.5359L666.661 17.5414L666.636 17.5432L665.937 17.591L665.937 32.4391L666.635 32.4873L666.637 32.4874L666.661 32.4891L666.738 32.4946C666.805 32.4995 666.903 32.5068 667.025 32.5163C667.268 32.5353 667.608 32.5632 667.992 32.5984C668.547 32.6493 669.183 32.7148 669.749 32.7902L669.749 44.0309L683.126 38.9815L683.126 34.5481C683.399 34.5696 683.632 34.5897 683.845 34.608C684.728 34.684 685.266 34.7303 686.858 34.7302C688.456 34.7304 690.006 34.5544 691.49 34.2524C696.133 33.3081 700.148 31.1269 702.99 29.1988C704.414 28.2326 705.551 27.3245 706.334 26.6562C706.726 26.3219 707.03 26.0471 707.237 25.8546C707.34 25.7583 707.42 25.6826 707.474 25.6301C707.501 25.6039 707.522 25.5835 707.536 25.5693L707.553 25.5527L707.558 25.548L707.559 25.5465L707.56 25.5456ZM681.626 12.0861L681.626 15.6333L671.249 17.0306L671.249 8.17027L681.626 12.0861ZM668.129 18.9266C668.902 18.856 669.873 18.7539 670.611 18.63L682.451 17.0357C683.145 16.9887 683.618 16.9479 684.01 16.9141C684.861 16.8407 685.331 16.8 686.858 16.8001C688.134 16.8 689.381 16.9205 690.591 17.1338L690.591 32.8966C689.381 33.11 688.134 33.2304 686.858 33.2302C685.331 33.2303 684.861 33.1897 684.01 33.1163C683.618 33.0824 683.145 33.0416 682.451 32.9946L670.611 31.402C669.873 31.2781 668.903 31.1757 668.129 31.1046C667.874 31.0813 667.639 31.0611 667.437 31.0445L667.437 18.9864C667.639 18.9699 667.874 18.9498 668.129 18.9266ZM692.091 32.5815L692.091 17.4489C696.095 18.4237 699.59 20.3375 702.148 22.073C703.518 23.003 704.612 23.8763 705.36 24.5154C705.582 24.7041 705.773 24.8723 705.932 25.0153C705.773 25.1583 705.582 25.3264 705.36 25.5152C704.612 26.1543 703.518 27.0276 702.148 27.9576C699.59 29.693 696.095 31.6067 692.091 32.5815ZM671.249 33.0013L681.626 34.3971L681.626 37.9444L671.249 41.8614L671.249 33.0013Z" fill="white"/>
<path fill-rule="evenodd" clip-rule="evenodd" d="M663.838 24.9343C663.838 24.3788 663.662 23.8533 663.244 23.4733C662.839 23.1049 662.307 22.9645 661.774 22.956C660.727 22.9394 659.392 23.4195 657.946 24.2924L656.883 24.9345L657.946 25.5766C659.392 26.4495 660.727 26.9296 661.774 26.913C662.308 26.9045 662.839 26.7641 663.244 26.3956C663.662 26.0155 663.838 25.4899 663.838 24.9343ZM661.75 25.4131C661.324 25.4199 660.709 25.2793 659.937 24.9345L662.338 24.9346C662.338 25.1714 662.271 25.2534 662.235 25.2862C662.186 25.3307 662.054 25.4083 661.75 25.4131ZM659.937 24.9345L662.338 24.9346C662.338 24.6978 662.271 24.6156 662.235 24.5828C662.186 24.5383 662.054 24.4607 661.75 24.4558C661.324 24.4491 660.709 24.5897 659.937 24.9345Z" fill="white"/>
</svg>
