<svg width="20" height="20" viewBox="0 0 20 20" fill="none" xmlns="http://www.w3.org/2000/svg">
<path d="M10.0002 8C8.89567 8 8.00024 8.89543 8.00024 10C8.00024 11.1046 8.89567 12 10.0002 12C11.1048 12 12.0002 11.1046 12.0002 10C12.0002 8.89543 11.1048 8 10.0002 8Z" fill="#2B3940"/>
<path fill-rule="evenodd" clip-rule="evenodd" d="M8.0003 0C7.56986 0 7.18773 0.27543 7.05161 0.683772L6.31332 2.89864C6.10131 3.00891 5.8949 3.12837 5.69463 3.25647L3.40655 2.78825C2.98486 2.70196 2.55526 2.89519 2.34004 3.26795L0.340041 6.73205C0.124826 7.10481 0.172286 7.57347 0.457864 7.89552L2.0081 9.64374C2.00291 9.76191 2.0003 9.88068 2.0003 10C2.0003 10.1193 2.00291 10.2381 2.0081 10.3563L0.457864 12.1045C0.172286 12.4265 0.124826 12.8952 0.340041 13.2679L2.34004 16.732C2.55526 17.1048 2.98486 17.298 3.40655 17.2117L5.69463 16.7435C5.8949 16.8716 6.10131 16.9911 6.31332 17.1014L7.05161 19.3162C7.18773 19.7246 7.56986 20 8.0003 20H12.0003C12.4307 20 12.8129 19.7246 12.949 19.3162L13.6873 17.1014C13.8993 16.9911 14.1057 16.8716 14.306 16.7435L16.594 17.2117C17.0157 17.298 17.4453 17.1048 17.6605 16.732L19.6606 13.2679C19.8758 12.8952 19.8283 12.4265 19.5427 12.1045L17.9925 10.3563C17.9977 10.2381 18.0003 10.1193 18.0003 10C18.0003 9.88068 17.9977 9.76191 17.9925 9.64375L19.5427 7.89552C19.8283 7.57347 19.8758 7.10481 19.6606 6.73205L17.6605 3.26795C17.4453 2.89519 17.0157 2.70196 16.594 2.78825L14.306 3.25647C14.1057 3.12837 13.8993 3.00891 13.6873 2.89864L12.949 0.683772C12.8129 0.27543 12.4307 0 12.0003 0H8.0003ZM8.0776 3.93035L8.72105 2H11.2795L11.923 3.93035C12.0113 4.1953 12.2064 4.41125 12.461 4.52593C12.8313 4.69266 13.1818 4.89601 13.508 5.13149C13.7348 5.29522 14.0198 5.35648 14.2938 5.30041L16.2889 4.89215L17.5681 7.10785L16.217 8.6315C16.0319 8.84025 15.9424 9.11686 15.9702 9.39448C15.9901 9.59333 16.0003 9.79532 16.0003 10C16.0003 10.2047 15.9901 10.4067 15.9702 10.6055C15.9424 10.8831 16.0319 11.1597 16.217 11.3685L17.5681 12.8921L16.2889 15.1079L14.2938 14.6996C14.0198 14.6435 13.7348 14.7048 13.508 14.8685C13.1818 15.104 12.8313 15.3073 12.461 15.4741C12.2064 15.5888 12.0113 15.8047 11.923 16.0696L11.2795 18H8.72105L8.0776 16.0696C7.98929 15.8047 7.7942 15.5888 7.53955 15.4741C7.16931 15.3073 6.81879 15.104 6.49262 14.8685C6.26583 14.7048 5.98083 14.6435 5.70679 14.6996L3.71171 15.1079L2.43247 12.8921L3.78356 11.3685C3.96868 11.1597 4.05816 10.8831 4.0304 10.6055C4.01051 10.4067 4.0003 10.2047 4.0003 10C4.0003 9.79532 4.01051 9.59333 4.0304 9.39448C4.05816 9.11686 3.96868 8.84025 3.78356 8.6315L2.43247 7.10786L3.71171 4.89215L5.70679 5.30041C5.98083 5.35648 6.26583 5.29522 6.49262 5.13149C6.81879 4.89601 7.16931 4.69266 7.53955 4.52593C7.7942 4.41125 7.98929 4.1953 8.0776 3.93035Z" fill="#2B3940"/>
</svg>
