<svg width="20" height="20" viewBox="0 0 20 20" fill="none" xmlns="http://www.w3.org/2000/svg">
<path fill-rule="evenodd" clip-rule="evenodd" d="M6.66699 1.6665C6.20676 1.6665 5.83366 2.0396 5.83366 2.49984V4.99984H2.50033C2.04009 4.99984 1.66699 5.37293 1.66699 5.83317V15.8332C1.66699 16.2934 2.04009 16.6665 2.50033 16.6665H17.5003C17.9606 16.6665 18.3337 16.2934 18.3337 15.8332V5.83317C18.3337 5.37293 17.9606 4.99984 17.5003 4.99984H14.167V2.49984C14.167 2.0396 13.7939 1.6665 13.3337 1.6665H6.66699ZM12.5003 4.99984V3.33317H7.50033V4.99984H12.5003ZM3.33366 6.6665V14.9998H16.667V6.6665H3.33366Z" fill="#2B3940"/>
</svg>
