<svg width="16" height="16" viewBox="0 0 16 16" fill="none" xmlns="http://www.w3.org/2000/svg">
<path fill-rule="evenodd" clip-rule="evenodd" d="M8.00184 15.3332H7.99927C3.9495 15.3328 0.666626 12.0497 0.666626 7.99984C0.666626 3.94975 3.94987 0.666504 7.99996 0.666504C12.05 0.666504 15.3333 3.94975 15.3333 7.99984C15.3333 12.0493 12.0511 15.3322 8.00184 15.3332ZM11.0458 5.33317C10.78 4.18568 10.3289 3.15236 9.68771 2.24048C11.3046 2.71352 12.6387 3.84898 13.3763 5.33317H11.0458ZM9.67177 5.33317C9.34851 4.13739 8.78836 3.1209 7.99996 2.27028C7.21156 3.1209 6.65141 4.13739 6.32814 5.33317H9.67177ZM6.0748 6.6665H9.92511C9.97492 7.09181 9.99996 7.53611 9.99996 7.99984C9.99996 8.46357 9.97491 8.90786 9.92511 9.33317H6.0748C6.025 8.90786 5.99996 8.46357 5.99996 7.99984C5.99996 7.53611 6.025 7.09181 6.0748 6.6665ZM4.95411 5.33317C5.21987 4.18568 5.67102 3.15236 6.3122 2.24048C4.6953 2.71352 3.36122 3.84898 2.62364 5.33317H4.95411ZM2.14864 6.6665H4.73365C4.6889 7.09741 4.66663 7.54196 4.66663 7.99984C4.66663 8.45772 4.6889 8.90226 4.73365 9.33317H2.14864C2.05133 8.90436 1.99996 8.4581 1.99996 7.99984C1.99996 7.54158 2.05133 7.09532 2.14864 6.6665ZM2.62364 10.6665C3.36122 12.1507 4.6953 13.2862 6.3122 13.7592C5.67102 12.8473 5.21987 11.814 4.95411 10.6665H2.62364ZM6.32814 10.6665C6.65141 11.8623 7.21156 12.8788 7.99996 13.7294C8.78836 12.8788 9.34851 11.8623 9.67177 10.6665H6.32814ZM11.0458 10.6665C10.78 11.814 10.3289 12.8473 9.68771 13.7592C11.3046 13.2862 12.6387 12.1507 13.3763 10.6665H11.0458ZM13.8513 9.33317C13.9486 8.90436 14 8.4581 14 7.99984C14 7.54158 13.9486 7.09532 13.8513 6.6665H11.2663C11.311 7.09741 11.3333 7.54196 11.3333 7.99984C11.3333 8.45772 11.311 8.90226 11.2663 9.33317H13.8513Z" fill="#2B3940"/>
</svg>
