<svg width="36" height="36" viewBox="0 0 36 36" fill="none" xmlns="http://www.w3.org/2000/svg">
<rect x="0.5" y="0.5" width="35" height="35" rx="7.5" stroke="#2B3940"/>
<path fill-rule="evenodd" clip-rule="evenodd" d="M18.0018 25.3332H17.9993C13.9495 25.3328 10.6666 22.0497 10.6666 17.9998C10.6666 13.9497 13.9499 10.6665 18 10.6665C22.05 10.6665 25.3333 13.9497 25.3333 17.9998C25.3333 22.0493 22.0511 25.3322 18.0018 25.3332ZM21.0458 15.3332C20.78 14.1857 20.3289 13.1524 19.6877 12.2405C21.3046 12.7135 22.6387 13.849 23.3763 15.3332H21.0458ZM19.6718 15.3332C19.3485 14.1374 18.7884 13.1209 18 12.2703C17.2116 13.1209 16.6514 14.1374 16.3281 15.3332H19.6718ZM16.0748 16.6665H19.9251C19.9749 17.0918 20 17.5361 20 17.9998C20 18.4636 19.9749 18.9079 19.9251 19.3332H16.0748C16.025 18.9079 16 18.4636 16 17.9998C16 17.5361 16.025 17.0918 16.0748 16.6665ZM14.9541 15.3332C15.2199 14.1857 15.671 13.1524 16.3122 12.2405C14.6953 12.7135 13.3612 13.849 12.6236 15.3332H14.9541ZM12.1486 16.6665H14.7336C14.6889 17.0974 14.6666 17.542 14.6666 17.9998C14.6666 18.4577 14.6889 18.9023 14.7336 19.3332H12.1486C12.0513 18.9044 12 18.4581 12 17.9998C12 17.5416 12.0513 17.0953 12.1486 16.6665ZM12.6236 20.6665C13.3612 22.1507 14.6953 23.2862 16.3122 23.7592C15.671 22.8473 15.2199 21.814 14.9541 20.6665H12.6236ZM16.3281 20.6665C16.6514 21.8623 17.2116 22.8788 18 23.7294C18.7884 22.8788 19.3485 21.8623 19.6718 20.6665H16.3281ZM21.0458 20.6665C20.78 21.814 20.3289 22.8473 19.6877 23.7592C21.3046 23.2862 22.6387 22.1507 23.3763 20.6665H21.0458ZM23.8513 19.3332C23.9486 18.9044 24 18.4581 24 17.9998C24 17.5416 23.9486 17.0953 23.8513 16.6665H21.2663C21.311 17.0974 21.3333 17.542 21.3333 17.9998C21.3333 18.4577 21.311 18.9023 21.2663 19.3332H23.8513Z" fill="#2B3940"/>
</svg>
