<svg width="24" height="25" viewBox="0 0 24 25" fill="none" xmlns="http://www.w3.org/2000/svg">
<path fill-rule="evenodd" clip-rule="evenodd" d="M11.9993 0.583984C8.63962 0.583984 5.91602 3.30759 5.91602 6.66732C5.91602 10.027 8.63962 12.7507 11.9993 12.7507C15.3591 12.7507 18.0827 10.027 18.0827 6.66732C18.0827 3.30759 15.3591 0.583984 11.9993 0.583984ZM7.41602 6.66732C7.41602 4.13601 9.46804 2.08398 11.9993 2.08398C14.5307 2.08398 16.5827 4.13601 16.5827 6.66732C16.5827 9.19862 14.5307 11.2507 11.9993 11.2507C9.46804 11.2507 7.41602 9.19862 7.41602 6.66732Z" fill="#2B3940"/>
<path d="M11.9987 16.584C9.53182 16.584 7.11821 17.1936 5.13118 18.3371C3.14458 19.4804 1.66787 21.1116 0.989238 23.0111C0.84988 23.4012 1.05312 23.8304 1.44319 23.9697C1.83325 24.1091 2.26244 23.9058 2.4018 23.5158C2.93863 22.0131 4.14022 20.6381 5.87937 19.6372C7.61808 18.6366 9.76943 18.084 11.9987 18.084C14.228 18.084 16.3794 18.6366 18.1181 19.6372C19.8572 20.6381 21.0588 22.0131 21.5957 23.5158C21.735 23.9058 22.1642 24.1091 22.5543 23.9697C22.9443 23.8304 23.1476 23.4012 23.0082 23.0111C22.3296 21.1116 20.8529 19.4804 18.8663 18.3371C16.8792 17.1936 14.4656 16.584 11.9987 16.584Z" fill="#2B3940"/>
</svg>
