<svg width="24" height="24" viewBox="0 0 24 24" fill="none" xmlns="http://www.w3.org/2000/svg">
<path fill-rule="evenodd" clip-rule="evenodd" d="M8.78094 6.96912C8.85078 7.03879 8.9062 7.12155 8.94401 7.21267C8.98182 7.30379 9.00128 7.40147 9.00128 7.50012C9.00128 7.59877 8.98182 7.69645 8.94401 7.78757C8.9062 7.87869 8.85078 7.96145 8.78094 8.03112L4.81044 12.0001L8.78094 15.9691C8.85067 16.0388 8.90598 16.1216 8.94372 16.2127C8.98146 16.3039 9.00089 16.4015 9.00089 16.5001C9.00089 16.5987 8.98146 16.6964 8.94372 16.7875C8.90598 16.8786 8.85067 16.9614 8.78094 17.0311C8.71121 17.1008 8.62842 17.1562 8.53731 17.1939C8.4462 17.2316 8.34855 17.2511 8.24994 17.2511C8.15132 17.2511 8.05367 17.2316 7.96256 17.1939C7.87145 17.1562 7.78867 17.1008 7.71894 17.0311L3.21894 12.5311C3.14909 12.4615 3.09368 12.3787 3.05587 12.2876C3.01806 12.1965 2.9986 12.0988 2.9986 12.0001C2.9986 11.9015 3.01806 11.8038 3.05587 11.7127C3.09368 11.6216 3.14909 11.5388 3.21894 11.4691L7.71894 6.96912C7.78861 6.89927 7.87137 6.84386 7.96249 6.80605C8.0536 6.76824 8.15129 6.74878 8.24994 6.74878C8.34859 6.74878 8.44627 6.76824 8.53739 6.80605C8.62851 6.84386 8.71127 6.89927 8.78094 6.96912Z" fill="#383F4C"/>
<path fill-rule="evenodd" clip-rule="evenodd" d="M3.75 12C3.75 11.8011 3.82902 11.6103 3.96967 11.4697C4.11032 11.329 4.30109 11.25 4.5 11.25H20.25C20.4489 11.25 20.6397 11.329 20.7803 11.4697C20.921 11.6103 21 11.8011 21 12C21 12.1989 20.921 12.3897 20.7803 12.5303C20.6397 12.671 20.4489 12.75 20.25 12.75H4.5C4.30109 12.75 4.11032 12.671 3.96967 12.5303C3.82902 12.3897 3.75 12.1989 3.75 12Z" fill="#383F4C"/>
</svg>
