<svg width="32" height="32" viewBox="0 0 32 32" fill="none" xmlns="http://www.w3.org/2000/svg">
<path fill-rule="evenodd" clip-rule="evenodd" d="M11.7079 9.29202C11.801 9.38491 11.8749 9.49526 11.9253 9.61675C11.9757 9.73824 12.0017 9.86848 12.0017 10C12.0017 10.1316 11.9757 10.2618 11.9253 10.3833C11.8749 10.5048 11.801 10.6151 11.7079 10.708L6.41391 16L11.7079 21.292C11.8009 21.385 11.8746 21.4954 11.925 21.6168C11.9753 21.7383 12.0012 21.8685 12.0012 22C12.0012 22.1315 11.9753 22.2617 11.925 22.3832C11.8746 22.5047 11.8009 22.615 11.7079 22.708C11.6149 22.801 11.5046 22.8747 11.3831 22.9251C11.2616 22.9754 11.1314 23.0013 10.9999 23.0013C10.8684 23.0013 10.7382 22.9754 10.6167 22.9251C10.4953 22.8747 10.3849 22.801 10.2919 22.708L4.29191 16.708C4.19878 16.6151 4.1249 16.5048 4.07449 16.3833C4.02407 16.2618 3.99812 16.1316 3.99812 16C3.99812 15.8685 4.02407 15.7382 4.07449 15.6167C4.1249 15.4953 4.19878 15.3849 4.29191 15.292L10.2919 9.29202C10.3848 9.19889 10.4952 9.125 10.6166 9.07459C10.7381 9.02418 10.8684 8.99823 10.9999 8.99823C11.1314 8.99823 11.2617 9.02418 11.3832 9.07459C11.5047 9.125 11.615 9.19889 11.7079 9.29202Z" fill="#F2F2F2"/>
<path fill-rule="evenodd" clip-rule="evenodd" d="M5 16C5 15.7348 5.10536 15.4804 5.29289 15.2929C5.48043 15.1054 5.73478 15 6 15H27C27.2652 15 27.5196 15.1054 27.7071 15.2929C27.8946 15.4804 28 15.7348 28 16C28 16.2652 27.8946 16.5196 27.7071 16.7071C27.5196 16.8946 27.2652 17 27 17H6C5.73478 17 5.48043 16.8946 5.29289 16.7071C5.10536 16.5196 5 16.2652 5 16Z" fill="#F2F2F2"/>
</svg>
