<?xml version="1.0" encoding="UTF-8" standalone="no"?>
<!DOCTYPE svg PUBLIC "-//W3C//DTD SVG 1.1//EN" "http://www.w3.org/Graphics/SVG/1.1/DTD/svg11.dtd">
<svg version="1.1" xmlns="http://www.w3.org/2000/svg" xmlns:xlink="http://www.w3.org/1999/xlink" preserveAspectRatio="xMidYMid meet" viewBox="177.6381541142178 177.64622405306986 286.7236917715644 286.71562183271226" width="282.72" height="282.72"><defs><path d="M183.78 230.01C189.92 236.16 198.26 239.61 206.95 239.6C206.54 249.12 210.15 258.38 216.89 265.12C225.31 273.54 292.7 340.91 301.13 349.33C301.7 349.91 302.29 350.44 302.91 350.97C300.9 352.97 284.87 369 282.87 371C282.28 370.46 281.71 369.91 281.14 369.34C272.72 360.92 205.34 293.54 196.92 285.12C181.48 269.69 175.23 247.3 180.44 226.11C181.46 227.49 182.57 228.79 183.78 230.01Z" id="a47mxe1Twq"></path><path d="M285.13 196.9C286.51 198.28 293.41 205.18 305.84 217.6L285.83 237.61C273.4 225.18 266.5 218.27 265.12 216.89C258.44 210.19 249.26 206.59 239.8 206.95C239.86 198.19 236.4 189.77 230.2 183.57C229.04 182.42 227.79 181.35 226.46 180.37C247.56 175.3 269.78 181.56 285.13 196.9Z" id="c1Un6iBvL"></path><path d="M207 179.64C192.01 179.64 179.85 191.8 179.85 206.8C179.85 221.8 192.01 233.96 207 233.96C222 233.96 234.16 221.8 234.16 206.8C234.16 191.8 222 179.64 207 179.64Z" id="b7IuqesefD"></path><path d="M400.26 207.01C390.74 206.64 381.5 210.28 374.79 217.05C366.4 225.5 299.29 293.14 290.9 301.6C290.33 302.18 289.8 302.77 289.27 303.38C287.26 301.38 271.18 285.41 269.16 283.41C269.7 282.83 270.25 282.25 270.82 281.64C279.2 273.18 346.28 205.53 354.67 197.08C370.07 181.59 392.44 175.29 413.65 180.44C405.2 186.65 400.22 196.53 400.26 207.01Z" id="b2q26mjcFR"></path><path d="M443.27 284.94C441.9 286.33 435.02 293.28 422.65 305.78L402.57 285.85C414.94 273.38 421.82 266.45 423.19 265.07C429.85 258.35 433.42 249.16 433.03 239.71C441.79 239.73 450.19 236.25 456.36 230.03C457.52 228.84 458.59 227.57 459.56 226.22C464.71 247.3 458.54 269.53 443.27 284.94Z" id="cLwiWRdGw"></path><path d="M433.07 179.71C418.07 179.71 405.91 191.86 405.91 206.86C405.91 221.86 418.07 234.02 433.07 234.02C448.06 234.02 460.22 221.86 460.22 206.86C460.22 191.86 448.06 179.71 433.07 179.71Z" id="a3ihrRJHOZ"></path><path d="M230.01 456.22C236.16 450.08 239.61 441.74 239.6 433.05C249.12 433.46 258.38 429.85 265.12 423.11C273.54 414.69 340.91 347.3 349.33 338.87C349.91 338.3 350.44 337.71 350.97 337.09C352.97 339.1 369 355.13 371 357.13C370.46 357.72 369.91 358.29 369.34 358.86C360.92 367.28 293.54 434.66 285.12 443.08C269.69 458.52 247.3 464.77 226.11 459.56C227.49 458.54 228.79 457.43 230.01 456.22Z" id="a2i9BtRPlB"></path><path d="M196.9 354.87C198.28 353.49 205.18 346.59 217.6 334.16L237.61 354.17C225.18 366.6 218.27 373.5 216.89 374.88C210.19 381.56 206.59 390.74 206.95 400.2C198.19 400.14 189.77 403.6 183.57 409.8C182.42 410.96 181.35 412.21 180.37 413.54C175.3 392.44 181.56 370.22 196.9 354.87Z" id="a3fAjavmM"></path><path d="M206.8 405.84C191.8 405.84 179.64 418 179.64 433C179.64 447.99 191.8 460.15 206.8 460.15C221.8 460.15 233.96 447.99 233.96 433C233.96 418 221.8 405.84 206.8 405.84Z" id="d37mlmpcRu"></path><path d="M456.22 409.99C450.08 403.84 441.74 400.39 433.05 400.4C433.46 390.88 429.85 381.62 423.11 374.88C414.69 366.46 347.3 299.09 338.87 290.67C338.3 290.09 337.71 289.56 337.09 289.03C339.1 287.03 355.13 271 357.13 269C357.72 269.54 358.29 270.09 358.86 270.66C367.28 279.08 434.66 346.46 443.08 354.88C458.52 370.31 464.77 392.7 459.56 413.89C458.54 412.51 457.43 411.21 456.22 409.99Z" id="g168HvpToF"></path><path d="M354.87 443.1C353.49 441.72 346.59 434.82 334.16 422.4L354.17 402.39C366.6 414.82 373.5 421.73 374.88 423.11C381.56 429.81 390.74 433.41 400.2 433.05C400.14 441.81 403.6 450.23 409.8 456.43C410.96 457.58 412.21 458.65 413.54 459.63C392.44 464.7 370.22 458.44 354.87 443.1Z" id="a37O7c45ld"></path><path d="M433 406.04C418 406.04 405.84 418.2 405.84 433.2C405.84 448.2 418 460.36 433 460.36C447.99 460.36 460.15 448.2 460.15 433.2C460.15 418.2 447.99 406.04 433 406.04Z" id="aeQp6j9bM"></path></defs><g><g><use xlink:href="#a47mxe1Twq" opacity="1" fill="#020000" fill-opacity="1"></use><g><use xlink:href="#a47mxe1Twq" opacity="1" fill-opacity="0" stroke="#000000" stroke-width="1" stroke-opacity="0"></use></g></g><g><use xlink:href="#c1Un6iBvL" opacity="1" fill="#020000" fill-opacity="1"></use><g><use xlink:href="#c1Un6iBvL" opacity="1" fill-opacity="0" stroke="#000000" stroke-width="1" stroke-opacity="0"></use></g></g><g><use xlink:href="#b7IuqesefD" opacity="1" fill="#020000" fill-opacity="1"></use><g><use xlink:href="#b7IuqesefD" opacity="1" fill-opacity="0" stroke="#000000" stroke-width="1" stroke-opacity="0"></use></g></g><g><use xlink:href="#b2q26mjcFR" opacity="1" fill="#020000" fill-opacity="1"></use><g><use xlink:href="#b2q26mjcFR" opacity="1" fill-opacity="0" stroke="#000000" stroke-width="1" stroke-opacity="0"></use></g></g><g><use xlink:href="#cLwiWRdGw" opacity="1" fill="#020000" fill-opacity="1"></use><g><use xlink:href="#cLwiWRdGw" opacity="1" fill-opacity="0" stroke="#000000" stroke-width="1" stroke-opacity="0"></use></g></g><g><use xlink:href="#a3ihrRJHOZ" opacity="1" fill="#020000" fill-opacity="1"></use><g><use xlink:href="#a3ihrRJHOZ" opacity="1" fill-opacity="0" stroke="#000000" stroke-width="1" stroke-opacity="0"></use></g></g><g><use xlink:href="#a2i9BtRPlB" opacity="1" fill="#020000" fill-opacity="1"></use><g><use xlink:href="#a2i9BtRPlB" opacity="1" fill-opacity="0" stroke="#000000" stroke-width="1" stroke-opacity="0"></use></g></g><g><use xlink:href="#a3fAjavmM" opacity="1" fill="#020000" fill-opacity="1"></use><g><use xlink:href="#a3fAjavmM" opacity="1" fill-opacity="0" stroke="#000000" stroke-width="1" stroke-opacity="0"></use></g></g><g><use xlink:href="#d37mlmpcRu" opacity="1" fill="#020000" fill-opacity="1"></use><g><use xlink:href="#d37mlmpcRu" opacity="1" fill-opacity="0" stroke="#000000" stroke-width="1" stroke-opacity="0"></use></g></g><g><use xlink:href="#g168HvpToF" opacity="1" fill="#020000" fill-opacity="1"></use><g><use xlink:href="#g168HvpToF" opacity="1" fill-opacity="0" stroke="#000000" stroke-width="1" stroke-opacity="0"></use></g></g><g><use xlink:href="#a37O7c45ld" opacity="1" fill="#020000" fill-opacity="1"></use><g><use xlink:href="#a37O7c45ld" opacity="1" fill-opacity="0" stroke="#000000" stroke-width="1" stroke-opacity="0"></use></g></g><g><use xlink:href="#aeQp6j9bM" opacity="1" fill="#020000" fill-opacity="1"></use><g><use xlink:href="#aeQp6j9bM" opacity="1" fill-opacity="0" stroke="#000000" stroke-width="1" stroke-opacity="0"></use></g></g></g></svg>