<?xml version="1.0" encoding="UTF-8" standalone="no"?>
<!DOCTYPE svg PUBLIC "-//W3C//DTD SVG 1.1//EN" "http://www.w3.org/Graphics/SVG/1.1/DTD/svg11.dtd">
<svg version="1.1" xmlns="http://www.w3.org/2000/svg" xmlns:xlink="http://www.w3.org/1999/xlink" preserveAspectRatio="xMidYMid meet" viewBox="21.00101232841144 27.44540543117383 529.9989876715886 107.1074629945537" width="526" height="103.11"><defs><path d="M32.44 50.68C32.3 54.03 33.52 57.43 36.11 59.99C39.21 63.06 64.07 87.63 67.17 90.71C67.38 90.91 67.61 91.11 67.83 91.3C67.09 92.03 61.18 97.88 60.44 98.61C60.23 98.41 60.01 98.21 59.8 98C56.7 94.93 31.84 70.35 28.73 67.27C22.83 61.45 20.82 53.23 22.66 45.75C23.03 46.25 23.43 46.73 23.89 47.18C26.25 49.51 29.35 50.67 32.44 50.68Z" id="ekGS5Oxgh"></path><path d="M32.44 50.68C32.3 54.03 33.52 57.43 36.11 59.99C39.21 63.06 64.07 87.63 67.17 90.71C67.38 90.91 67.61 91.11 67.83 91.3C67.09 92.03 61.18 97.88 60.44 98.61C60.23 98.41 60.01 98.21 59.8 98C56.7 94.93 31.84 70.35 28.73 67.27C22.83 61.45 20.82 53.23 22.66 45.75C23.03 46.25 23.43 46.73 23.89 47.18C26.25 49.51 29.35 50.67 32.44 50.68Z" id="a6xyE3u81"></path><path d="M68.91 42.65C68.17 43.38 62.27 49.22 61.53 49.95C56.94 45.42 54.4 42.9 53.89 42.39C51.33 39.86 47.92 38.65 44.55 38.77C44.57 35.68 43.39 32.59 41.01 30.24C40.58 29.82 40.12 29.43 39.63 29.07C47.16 27.3 55.41 29.3 61.27 35.1C61.78 35.6 64.32 38.12 68.91 42.65Z" id="c1MqCdddCc"></path><path d="M68.91 42.65C68.17 43.38 62.27 49.22 61.53 49.95C56.94 45.42 54.4 42.9 53.89 42.39C51.33 39.86 47.92 38.65 44.55 38.77C44.57 35.68 43.39 32.59 41.01 30.24C40.58 29.82 40.12 29.43 39.63 29.07C47.16 27.3 55.41 29.3 61.27 35.1C61.78 35.6 64.32 38.12 68.91 42.65Z" id="c8AXRr0NYT"></path><path d="M22.43 38.71C22.43 44.19 26.91 48.63 32.45 48.63C37.98 48.63 42.47 44.19 42.47 38.71C42.47 33.24 37.98 28.8 32.45 28.8C26.91 28.8 22.43 33.24 22.43 38.71Z" id="b2735qy5Aa"></path><path d="M22.43 38.71C22.43 44.19 26.91 48.63 32.45 48.63C37.98 48.63 42.47 44.19 42.47 38.71C42.47 33.24 37.98 28.8 32.45 28.8C26.91 28.8 22.43 33.24 22.43 38.71Z" id="b2XeHNW3ek"></path><path d="M103.73 38.77C100.34 38.64 96.91 39.86 94.34 42.43C91.24 45.51 66.49 70.19 63.4 73.27C63.19 73.49 62.99 73.7 62.8 73.92C62.05 73.2 56.12 67.37 55.38 66.64C55.58 66.43 55.78 66.22 55.99 66C59.09 62.92 83.84 38.24 86.93 35.16C92.8 29.31 101.12 27.28 108.68 29.08C108.17 29.44 107.7 29.85 107.24 30.3C104.89 32.63 103.72 35.7 103.73 38.77Z" id="a1BWPctl4m"></path><path d="M103.73 38.77C100.34 38.64 96.91 39.86 94.34 42.43C91.24 45.51 66.49 70.19 63.4 73.27C63.19 73.49 62.99 73.7 62.8 73.92C62.05 73.2 56.12 67.37 55.38 66.64C55.58 66.43 55.78 66.22 55.99 66C59.09 62.92 83.84 38.24 86.93 35.16C92.8 29.31 101.12 27.28 108.68 29.08C108.17 29.44 107.7 29.85 107.24 30.3C104.89 32.63 103.72 35.7 103.73 38.77Z" id="d1BMW8UasC"></path><path d="M112 74.8C111.26 74.07 105.34 68.26 104.6 67.53C109.16 62.98 111.69 60.46 112.2 59.95C114.75 57.41 115.96 54.03 115.83 50.71C118.95 50.71 122.07 49.53 124.43 47.18C124.87 46.73 125.26 46.27 125.61 45.8C127.44 53.23 125.44 61.4 119.61 67.22C119.1 67.73 116.57 70.25 112 74.8Z" id="a1rnk4E932"></path><path d="M112 74.8C111.26 74.07 105.34 68.26 104.6 67.53C109.16 62.98 111.69 60.46 112.2 59.95C114.75 57.41 115.96 54.03 115.83 50.71C118.95 50.71 122.07 49.53 124.43 47.18C124.87 46.73 125.26 46.27 125.61 45.8C127.44 53.23 125.44 61.4 119.61 67.22C119.1 67.73 116.57 70.25 112 74.8Z" id="b1SkmIU9bc"></path><path d="M105.82 38.73C105.82 44.21 110.31 48.64 115.84 48.64C121.38 48.64 125.86 44.21 125.86 38.73C125.86 33.26 121.38 28.82 115.84 28.82C110.31 28.82 105.82 33.26 105.82 38.73Z" id="a8wker9QPf"></path><path d="M105.82 38.73C105.82 44.21 110.31 48.64 115.84 48.64C121.38 48.64 125.86 44.21 125.86 38.73C125.86 33.26 121.38 28.82 115.84 28.82C110.31 28.82 105.82 33.26 105.82 38.73Z" id="gNM5jqq14"></path><path d="M44.48 121.23C47.87 121.37 51.31 120.16 53.89 117.6C56.99 114.53 81.85 89.96 84.95 86.88C85.16 86.68 85.37 86.46 85.56 86.23C86.3 86.97 92.21 92.81 92.95 93.54C92.75 93.75 92.54 93.97 92.33 94.17C89.23 97.24 64.37 121.82 61.27 124.89C55.37 130.73 47.06 132.72 39.5 130.9C40 130.54 40.49 130.14 40.93 129.68C43.29 127.35 44.47 124.29 44.48 121.23Z" id="aZEz1B3uu"></path><path d="M44.48 121.23C47.87 121.37 51.31 120.16 53.89 117.6C56.99 114.53 81.85 89.96 84.95 86.88C85.16 86.68 85.37 86.46 85.56 86.23C86.3 86.97 92.21 92.81 92.95 93.54C92.75 93.75 92.54 93.97 92.33 94.17C89.23 97.24 64.37 121.82 61.27 124.89C55.37 130.73 47.06 132.72 39.5 130.9C40 130.54 40.49 130.14 40.93 129.68C43.29 127.35 44.47 124.29 44.48 121.23Z" id="b3g8iLQZvg"></path><path d="M36.37 85.17C37.11 85.9 43.01 91.74 43.75 92.47C39.16 97 36.62 99.52 36.11 100.02C33.55 102.55 32.32 105.92 32.44 109.26C29.32 109.24 26.19 110.4 23.82 112.76C23.38 113.19 22.98 113.64 22.63 114.12C20.84 106.68 22.87 98.52 28.73 92.72C29.24 92.22 31.78 89.7 36.37 85.17Z" id="a1BO1chhFS"></path><path d="M36.37 85.17C37.11 85.9 43.01 91.74 43.75 92.47C39.16 97 36.62 99.52 36.11 100.02C33.55 102.55 32.32 105.92 32.44 109.26C29.32 109.24 26.19 110.4 23.82 112.76C23.38 113.19 22.98 113.64 22.63 114.12C20.84 106.68 22.87 98.52 28.73 92.72C29.24 92.22 31.78 89.7 36.37 85.17Z" id="b4VDKy6SG9"></path><path d="M22.35 121.22C22.35 126.69 26.84 131.13 32.38 131.13C37.91 131.13 42.4 126.69 42.4 121.22C42.4 115.75 37.91 111.31 32.38 111.31C26.84 111.31 22.35 115.75 22.35 121.22Z" id="g4Y8ieVQe"></path><path d="M22.35 121.22C22.35 126.69 26.84 131.13 32.38 131.13C37.91 131.13 42.4 126.69 42.4 121.22C42.4 115.75 37.91 111.31 32.38 111.31C26.84 111.31 22.35 115.75 22.35 121.22Z" id="a5p0Ou25z"></path><path d="M115.82 109.33C115.97 105.98 114.74 102.57 112.16 100.02C109.05 96.95 84.2 72.37 81.09 69.3C80.88 69.1 80.66 68.89 80.43 68.71C81.17 67.97 87.08 62.13 87.82 61.4C88.04 61.59 88.25 61.8 88.46 62C91.57 65.08 116.42 89.65 119.53 92.72C125.43 98.55 127.45 106.78 125.6 114.25C125.23 113.75 124.83 113.27 124.37 112.83C122.02 110.5 118.92 109.34 115.82 109.33Z" id="a2FtMpn3s0"></path><path d="M115.82 109.33C115.97 105.98 114.74 102.57 112.16 100.02C109.05 96.95 84.2 72.37 81.09 69.3C80.88 69.1 80.66 68.89 80.43 68.71C81.17 67.97 87.08 62.13 87.82 61.4C88.04 61.59 88.25 61.8 88.46 62C91.57 65.08 116.42 89.65 119.53 92.72C125.43 98.55 127.45 106.78 125.6 114.25C125.23 113.75 124.83 113.27 124.37 112.83C122.02 110.5 118.92 109.34 115.82 109.33Z" id="b155wwiB4F"></path><path d="M79.36 117.35C80.1 116.62 86 110.78 86.74 110.05C91.33 114.58 93.87 117.1 94.38 117.6C96.95 120.14 100.35 121.35 103.72 121.23C103.71 124.31 104.88 127.41 107.27 129.75C107.69 130.19 108.16 130.58 108.64 130.93C101.12 132.7 92.86 130.7 87 124.9C86.49 124.4 83.95 121.88 79.36 117.35Z" id="aop5yXWNH"></path><path d="M79.36 117.35C80.1 116.62 86 110.78 86.74 110.05C91.33 114.58 93.87 117.1 94.38 117.6C96.95 120.14 100.35 121.35 103.72 121.23C103.71 124.31 104.88 127.41 107.27 129.75C107.69 130.19 108.16 130.58 108.64 130.93C101.12 132.7 92.86 130.7 87 124.9C86.49 124.4 83.95 121.88 79.36 117.35Z" id="a6umznPrlc"></path><path d="M105.79 121.29C105.79 126.77 110.28 131.2 115.81 131.2C121.35 131.2 125.84 126.77 125.84 121.29C125.84 115.82 121.35 111.38 115.81 111.38C110.28 111.38 105.79 115.82 105.79 121.29Z" id="b6xh7aHg7g"></path><path d="M105.79 121.29C105.79 126.77 110.28 131.2 115.81 131.2C121.35 131.2 125.84 126.77 125.84 121.29C125.84 115.82 121.35 111.38 115.81 111.38C110.28 111.38 105.79 115.82 105.79 121.29Z" id="a77EpKSwt"></path><path d="M165.05 34.4C166.45 34.7 167.7 35.19 168.8 35.86C169.9 36.54 170.8 37.42 171.48 38.51C172.16 39.59 172.5 40.95 172.5 42.56C172.5 44.61 171.95 46.3 170.83 47.63C169.72 48.96 168.21 49.91 166.3 50.47C166.3 50.48 166.3 50.56 166.3 50.57C167.43 50.67 168.49 50.96 169.47 51.43C170.45 51.91 171.31 52.53 172.03 53.29C172.75 54.05 173.3 54.94 173.7 55.94C174.1 56.95 174.3 58.03 174.3 59.18C174.3 61.12 173.89 62.72 173.08 63.98C172.26 65.23 171.19 66.23 169.88 66.97C168.57 67.72 167.07 68.23 165.43 68.53C163.78 68.82 162.14 68.97 160.5 68.97C159.8 68.97 156.28 68.97 149.95 68.97C149.95 65.47 149.95 37.46 149.95 33.96C156.43 33.96 160.03 33.96 160.75 33.96C162.21 33.96 163.65 34.11 165.05 34.4ZM162.87 48.61C163.82 48.47 164.67 48.21 165.45 47.79C166.21 47.38 166.83 46.8 167.3 46.06C167.77 45.31 168 44.33 168 43.11C168 42.03 167.78 41.14 167.35 40.47C166.92 39.79 166.35 39.26 165.63 38.86C164.91 38.46 164.09 38.19 163.17 38.04C162.26 37.89 161.33 37.82 160.4 37.82C159.98 37.82 157.89 37.82 154.14 37.82C154.14 38.92 154.14 47.7 154.14 48.8C157.62 48.8 159.55 48.8 159.94 48.8C160.93 48.8 161.91 48.74 162.87 48.61ZM164.31 64.8C165.33 64.59 166.25 64.24 167.07 63.76C167.88 63.28 168.54 62.66 169.04 61.89C169.55 61.11 169.79 60.16 169.79 59.04C169.79 57.83 169.55 56.8 169.06 55.98C168.58 55.15 167.95 54.49 167.16 53.99C166.38 53.5 165.48 53.15 164.47 52.95C163.45 52.76 162.41 52.66 161.34 52.66C160.86 52.66 158.46 52.66 154.14 52.66C154.14 53.91 154.14 63.87 154.14 65.12C158.4 65.12 160.77 65.12 161.24 65.12C162.27 65.12 163.3 65.02 164.31 64.8Z" id="b1hj3SKI0O"></path><path d="M165.05 34.4C166.45 34.7 167.7 35.19 168.8 35.86C169.9 36.54 170.8 37.42 171.48 38.51C172.16 39.59 172.5 40.95 172.5 42.56C172.5 44.61 171.95 46.3 170.83 47.63C169.72 48.96 168.21 49.91 166.3 50.47C166.3 50.48 166.3 50.56 166.3 50.57C167.43 50.67 168.49 50.96 169.47 51.43C170.45 51.91 171.31 52.53 172.03 53.29C172.75 54.05 173.3 54.94 173.7 55.94C174.1 56.95 174.3 58.03 174.3 59.18C174.3 61.12 173.89 62.72 173.08 63.98C172.26 65.23 171.19 66.23 169.88 66.97C168.57 67.72 167.07 68.23 165.43 68.53C163.78 68.82 162.14 68.97 160.5 68.97C159.8 68.97 156.28 68.97 149.95 68.97C149.95 65.47 149.95 37.46 149.95 33.96C156.43 33.96 160.03 33.96 160.75 33.96C162.21 33.96 163.65 34.11 165.05 34.4ZM162.87 48.61C163.82 48.47 164.67 48.21 165.45 47.79C166.21 47.38 166.83 46.8 167.3 46.06C167.77 45.31 168 44.33 168 43.11C168 42.03 167.78 41.14 167.35 40.47C166.92 39.79 166.35 39.26 165.63 38.86C164.91 38.46 164.09 38.19 163.17 38.04C162.26 37.89 161.33 37.82 160.4 37.82C159.98 37.82 157.89 37.82 154.14 37.82C154.14 38.92 154.14 47.7 154.14 48.8C157.62 48.8 159.55 48.8 159.94 48.8C160.93 48.8 161.91 48.74 162.87 48.61ZM164.31 64.8C165.33 64.59 166.25 64.24 167.07 63.76C167.88 63.28 168.54 62.66 169.04 61.89C169.55 61.11 169.79 60.16 169.79 59.04C169.79 57.83 169.55 56.8 169.06 55.98C168.58 55.15 167.95 54.49 167.16 53.99C166.38 53.5 165.48 53.15 164.47 52.95C163.45 52.76 162.41 52.66 161.34 52.66C160.86 52.66 158.46 52.66 154.14 52.66C154.14 53.91 154.14 63.87 154.14 65.12C158.4 65.12 160.77 65.12 161.24 65.12C162.27 65.12 163.3 65.02 164.31 64.8Z" id="dzGT71Z3S"></path><path d="M185.24 65.11L201.44 65.11L201.44 68.97L181.04 68.97L181.04 33.96L185.24 33.96L185.24 65.11Z" id="e6i2tQuxWB"></path><path d="M185.24 65.11L201.44 65.11L201.44 68.97L181.04 68.97L181.04 33.96L185.24 33.96L185.24 65.11Z" id="bdpDlrntV"></path><path d="M236.56 68.97L231.67 68.97L228.06 60.37L210.35 60.37L206.7 68.97L201.95 68.97L217.55 33.96L221.51 33.96L236.56 68.97ZM212.01 56.51L226.46 56.51L219.46 39.3L219.36 39.3L212.01 56.51Z" id="k2MUFfSulM"></path><path d="M236.56 68.97L231.67 68.97L228.06 60.37L210.35 60.37L206.7 68.97L201.95 68.97L217.55 33.96L221.51 33.96L236.56 68.97ZM212.01 56.51L226.46 56.51L219.46 39.3L219.36 39.3L212.01 56.51Z" id="b2218lmrgl"></path><path d="M257.22 36.93C255.25 36.93 253.45 37.33 251.79 38.12C250.14 38.91 248.72 39.98 247.51 41.31C246.32 42.64 245.38 44.2 244.71 45.96C244.04 47.72 243.71 49.56 243.71 51.47C243.71 53.51 244.04 55.42 244.71 57.19C245.37 58.95 246.3 60.48 247.49 61.78C248.67 63.09 250.08 64.11 251.74 64.87C253.39 65.63 255.22 66.01 257.21 66.01C259.38 66.01 261.31 65.59 263.01 64.75C264.71 63.91 266.19 62.7 267.46 61.11C267.78 61.38 270.3 63.47 270.61 63.74C269.01 65.84 267.09 67.4 264.83 68.39C262.59 69.37 260.04 69.87 257.2 69.87C254.67 69.87 252.3 69.41 250.1 68.48C247.9 67.56 245.99 66.28 244.38 64.65C242.76 63.02 241.49 61.08 240.57 58.84C239.66 56.6 239.2 54.14 239.2 51.47C239.2 48.9 239.64 46.49 240.52 44.25C241.4 42.01 242.64 40.07 244.25 38.41C245.85 36.77 247.75 35.46 249.95 34.5C252.15 33.54 254.57 33.07 257.2 33.07C259.6 33.07 261.91 33.5 264.13 34.36C266.35 35.21 268.21 36.62 269.71 38.56C269.46 38.74 268.25 39.61 266.08 41.19C264.49 39.53 263.17 38.47 262.12 37.99C260.56 37.28 258.92 36.93 257.22 36.93Z" id="b1u06v3Xb"></path><path d="M257.22 36.93C255.25 36.93 253.45 37.33 251.79 38.12C250.14 38.91 248.72 39.98 247.51 41.31C246.32 42.64 245.38 44.2 244.71 45.96C244.04 47.72 243.71 49.56 243.71 51.47C243.71 53.51 244.04 55.42 244.71 57.19C245.37 58.95 246.3 60.48 247.49 61.78C248.67 63.09 250.08 64.11 251.74 64.87C253.39 65.63 255.22 66.01 257.21 66.01C259.38 66.01 261.31 65.59 263.01 64.75C264.71 63.91 266.19 62.7 267.46 61.11C267.78 61.38 270.3 63.47 270.61 63.74C269.01 65.84 267.09 67.4 264.83 68.39C262.59 69.37 260.04 69.87 257.2 69.87C254.67 69.87 252.3 69.41 250.1 68.48C247.9 67.56 245.99 66.28 244.38 64.65C242.76 63.02 241.49 61.08 240.57 58.84C239.66 56.6 239.2 54.14 239.2 51.47C239.2 48.9 239.64 46.49 240.52 44.25C241.4 42.01 242.64 40.07 244.25 38.41C245.85 36.77 247.75 35.46 249.95 34.5C252.15 33.54 254.57 33.07 257.2 33.07C259.6 33.07 261.91 33.5 264.13 34.36C266.35 35.21 268.21 36.62 269.71 38.56C269.46 38.74 268.25 39.61 266.08 41.19C264.49 39.53 263.17 38.47 262.12 37.99C260.56 37.28 258.92 36.93 257.22 36.93Z" id="a3Opf9cZLC"></path><path d="M280.67 49.1L281.28 49.1L297.38 33.96L303.43 33.96L285.93 49.94L304.29 68.98L298.14 68.98L281.28 51.18L280.68 51.18L280.68 68.98L276.48 68.98L276.48 33.96L280.67 33.96L280.67 49.1Z" id="g23EVOcZaD"></path><path d="M280.67 49.1L281.28 49.1L297.38 33.96L303.43 33.96L285.93 49.94L304.29 68.98L298.14 68.98L281.28 51.18L280.68 51.18L280.68 68.98L276.48 68.98L276.48 33.96L280.67 33.96L280.67 49.1Z" id="boHJqlS11"></path><path d="M337 34.4C338.4 34.7 339.65 35.19 340.75 35.86C341.84 36.54 342.74 37.42 343.43 38.51C344.11 39.59 344.45 40.95 344.45 42.56C344.45 44.61 343.89 46.3 342.78 47.63C341.66 48.96 340.15 49.91 338.25 50.47C338.25 50.48 338.25 50.56 338.25 50.57C339.38 50.67 340.44 50.96 341.42 51.43C342.4 51.91 343.26 52.53 343.97 53.29C344.69 54.05 345.25 54.94 345.65 55.94C346.05 56.95 346.25 58.03 346.25 59.18C346.25 61.12 345.84 62.72 345.03 63.98C344.21 65.23 343.14 66.23 341.83 66.97C340.51 67.72 339.02 68.23 337.38 68.53C335.72 68.82 334.09 68.97 332.45 68.97C331.75 68.97 328.23 68.97 321.89 68.97C321.89 65.47 321.89 37.46 321.89 33.96C328.37 33.96 331.97 33.96 332.69 33.96C334.16 33.96 335.6 34.11 337 34.4ZM334.82 48.61C335.78 48.47 336.63 48.21 337.4 47.79C338.17 47.38 338.79 46.8 339.26 46.06C339.72 45.31 339.96 44.33 339.96 43.11C339.96 42.03 339.74 41.14 339.31 40.47C338.88 39.79 338.3 39.26 337.58 38.86C336.86 38.46 336.05 38.19 335.13 38.04C334.21 37.89 333.29 37.82 332.35 37.82C331.93 37.82 329.85 37.82 326.1 37.82C326.1 38.92 326.1 47.7 326.1 48.8C329.57 48.8 331.51 48.8 331.89 48.8C332.89 48.8 333.87 48.74 334.82 48.61ZM336.27 64.8C337.29 64.59 338.2 64.24 339.02 63.76C339.84 63.28 340.5 62.66 341 61.89C341.5 61.11 341.75 60.16 341.75 59.04C341.75 57.83 341.5 56.8 341.02 55.98C340.53 55.15 339.9 54.49 339.12 53.99C338.34 53.5 337.44 53.15 336.42 52.95C335.41 52.76 334.37 52.66 333.3 52.66C332.82 52.66 330.42 52.66 326.1 52.66C326.1 53.91 326.1 63.87 326.1 65.12C330.36 65.12 332.72 65.12 333.2 65.12C334.23 65.12 335.26 65.02 336.27 64.8Z" id="c3necaBVYE"></path><path d="M337 34.4C338.4 34.7 339.65 35.19 340.75 35.86C341.84 36.54 342.74 37.42 343.43 38.51C344.11 39.59 344.45 40.95 344.45 42.56C344.45 44.61 343.89 46.3 342.78 47.63C341.66 48.96 340.15 49.91 338.25 50.47C338.25 50.48 338.25 50.56 338.25 50.57C339.38 50.67 340.44 50.96 341.42 51.43C342.4 51.91 343.26 52.53 343.97 53.29C344.69 54.05 345.25 54.94 345.65 55.94C346.05 56.95 346.25 58.03 346.25 59.18C346.25 61.12 345.84 62.72 345.03 63.98C344.21 65.23 343.14 66.23 341.83 66.97C340.51 67.72 339.02 68.23 337.38 68.53C335.72 68.82 334.09 68.97 332.45 68.97C331.75 68.97 328.23 68.97 321.89 68.97C321.89 65.47 321.89 37.46 321.89 33.96C328.37 33.96 331.97 33.96 332.69 33.96C334.16 33.96 335.6 34.11 337 34.4ZM334.82 48.61C335.78 48.47 336.63 48.21 337.4 47.79C338.17 47.38 338.79 46.8 339.26 46.06C339.72 45.31 339.96 44.33 339.96 43.11C339.96 42.03 339.74 41.14 339.31 40.47C338.88 39.79 338.3 39.26 337.58 38.86C336.86 38.46 336.05 38.19 335.13 38.04C334.21 37.89 333.29 37.82 332.35 37.82C331.93 37.82 329.85 37.82 326.1 37.82C326.1 38.92 326.1 47.7 326.1 48.8C329.57 48.8 331.51 48.8 331.89 48.8C332.89 48.8 333.87 48.74 334.82 48.61ZM336.27 64.8C337.29 64.59 338.2 64.24 339.02 63.76C339.84 63.28 340.5 62.66 341 61.89C341.5 61.11 341.75 60.16 341.75 59.04C341.75 57.83 341.5 56.8 341.02 55.98C340.53 55.15 339.9 54.49 339.12 53.99C338.34 53.5 337.44 53.15 336.42 52.95C335.41 52.76 334.37 52.66 333.3 52.66C332.82 52.66 330.42 52.66 326.1 52.66C326.1 53.91 326.1 63.87 326.1 65.12C330.36 65.12 332.72 65.12 333.2 65.12C334.23 65.12 335.26 65.02 336.27 64.8Z" id="baC5Zbrg1"></path><path d="M376.93 65.59C375.88 66.89 374.5 67.92 372.8 68.71C371.1 69.49 369.04 69.87 366.6 69.87C364.16 69.87 362.1 69.48 360.4 68.71C358.7 67.93 357.32 66.89 356.27 65.59C355.22 64.29 354.46 62.78 353.97 61.06C353.49 59.35 353.24 57.53 353.24 55.62C353.24 54.18 353.24 46.96 353.24 33.96C353.66 33.96 357.02 33.96 357.44 33.96C357.44 46.6 357.44 53.62 357.44 55.03C357.44 56.45 357.59 57.81 357.89 59.13C358.19 60.45 358.69 61.62 359.39 62.64C360.09 63.67 361.03 64.48 362.2 65.09C363.36 65.7 364.83 66 366.6 66C368.37 66 369.84 65.7 371 65.09C372.17 64.47 373.11 63.67 373.81 62.64C374.51 61.62 375.01 60.45 375.31 59.13C375.61 57.82 375.76 56.45 375.76 55.03C375.76 53.62 375.76 46.6 375.76 33.96C376.04 33.96 377.44 33.96 379.96 33.96C379.96 46.96 379.96 54.18 379.96 55.62C379.8 58.1 379.55 59.92 379.23 61.06C378.74 62.78 377.98 64.29 376.93 65.59Z" id="ab2W3nIyi"></path><path d="M376.93 65.59C375.88 66.89 374.5 67.92 372.8 68.71C371.1 69.49 369.04 69.87 366.6 69.87C364.16 69.87 362.1 69.48 360.4 68.71C358.7 67.93 357.32 66.89 356.27 65.59C355.22 64.29 354.46 62.78 353.97 61.06C353.49 59.35 353.24 57.53 353.24 55.62C353.24 54.18 353.24 46.96 353.24 33.96C353.66 33.96 357.02 33.96 357.44 33.96C357.44 46.6 357.44 53.62 357.44 55.03C357.44 56.45 357.59 57.81 357.89 59.13C358.19 60.45 358.69 61.62 359.39 62.64C360.09 63.67 361.03 64.48 362.2 65.09C363.36 65.7 364.83 66 366.6 66C368.37 66 369.84 65.7 371 65.09C372.17 64.47 373.11 63.67 373.81 62.64C374.51 61.62 375.01 60.45 375.31 59.13C375.61 57.82 375.76 56.45 375.76 55.03C375.76 53.62 375.76 46.6 375.76 33.96C376.04 33.96 377.44 33.96 379.96 33.96C379.96 46.96 379.96 54.18 379.96 55.62C379.8 58.1 379.55 59.92 379.23 61.06C378.74 62.78 377.98 64.29 376.93 65.59Z" id="k1hyuTKEH"></path><path d="M398.96 36.94C398.03 36.94 397.11 37.05 396.21 37.28C395.31 37.51 394.5 37.86 393.78 38.32C393.06 38.79 392.49 39.4 392.06 40.15C391.63 40.91 391.41 41.8 391.41 42.82C391.41 43.61 391.54 44.31 391.79 44.92C392.04 45.53 392.44 46.08 393.01 46.57C393.58 47.07 394.34 47.53 395.31 47.96C396.28 48.39 397.46 48.82 398.86 49.25C400.23 49.67 401.56 50.14 402.84 50.63C404.12 51.13 405.25 51.75 406.23 52.51C407.21 53.27 408 54.22 408.59 55.35C409.17 56.49 409.46 57.91 409.46 59.63C409.46 61.38 409.11 62.89 408.41 64.18C407.71 65.47 406.78 66.53 405.63 67.37C404.48 68.22 403.16 68.84 401.66 69.25C400.16 69.66 398.61 69.87 397.01 69.87C395.98 69.87 394.94 69.78 393.91 69.59C392.88 69.42 391.89 69.13 390.93 68.75C389.98 68.37 389.09 67.88 388.26 67.27C387.42 66.65 386.71 65.91 386.11 65.02C386.47 64.73 389.35 62.39 389.71 62.1C390.48 63.39 391.55 64.36 392.91 65.02C394.28 65.67 395.72 66 397.26 66C398.16 66 399.07 65.87 399.99 65.6C400.9 65.34 401.73 64.95 402.46 64.44C403.19 63.93 403.79 63.29 404.26 62.54C404.72 61.78 404.96 60.9 404.96 59.91C404.96 58.83 404.77 57.94 404.41 57.27C404.04 56.59 403.47 56 402.71 55.51C401.95 55.01 400.97 54.56 399.81 54.17C398.64 53.77 397.27 53.32 395.71 52.79C394.44 52.39 393.27 51.94 392.2 51.43C391.13 50.92 390.21 50.29 389.42 49.55C388.64 48.81 388.02 47.91 387.57 46.88C387.12 45.85 386.9 44.6 386.9 43.15C386.9 41.47 387.23 40 387.9 38.75C388.56 37.5 389.46 36.45 390.59 35.61C391.72 34.77 393.01 34.14 394.44 33.71C395.87 33.28 397.37 33.07 398.94 33.07C400.95 33.07 402.77 33.37 404.42 33.99C406.07 34.6 407.55 35.66 408.84 37.18C408.61 37.37 407.47 38.36 405.42 40.15C404.32 38.85 403.39 38.04 402.61 37.7C401.44 37.19 400.23 36.94 398.96 36.94Z" id="kthwABrl9"></path><path d="M398.96 36.94C398.03 36.94 397.11 37.05 396.21 37.28C395.31 37.51 394.5 37.86 393.78 38.32C393.06 38.79 392.49 39.4 392.06 40.15C391.63 40.91 391.41 41.8 391.41 42.82C391.41 43.61 391.54 44.31 391.79 44.92C392.04 45.53 392.44 46.08 393.01 46.57C393.58 47.07 394.34 47.53 395.31 47.96C396.28 48.39 397.46 48.82 398.86 49.25C400.23 49.67 401.56 50.14 402.84 50.63C404.12 51.13 405.25 51.75 406.23 52.51C407.21 53.27 408 54.22 408.59 55.35C409.17 56.49 409.46 57.91 409.46 59.63C409.46 61.38 409.11 62.89 408.41 64.18C407.71 65.47 406.78 66.53 405.63 67.37C404.48 68.22 403.16 68.84 401.66 69.25C400.16 69.66 398.61 69.87 397.01 69.87C395.98 69.87 394.94 69.78 393.91 69.59C392.88 69.42 391.89 69.13 390.93 68.75C389.98 68.37 389.09 67.88 388.26 67.27C387.42 66.65 386.71 65.91 386.11 65.02C386.47 64.73 389.35 62.39 389.71 62.1C390.48 63.39 391.55 64.36 392.91 65.02C394.28 65.67 395.72 66 397.26 66C398.16 66 399.07 65.87 399.99 65.6C400.9 65.34 401.73 64.95 402.46 64.44C403.19 63.93 403.79 63.29 404.26 62.54C404.72 61.78 404.96 60.9 404.96 59.91C404.96 58.83 404.77 57.94 404.41 57.27C404.04 56.59 403.47 56 402.71 55.51C401.95 55.01 400.97 54.56 399.81 54.17C398.64 53.77 397.27 53.32 395.71 52.79C394.44 52.39 393.27 51.94 392.2 51.43C391.13 50.92 390.21 50.29 389.42 49.55C388.64 48.81 388.02 47.91 387.57 46.88C387.12 45.85 386.9 44.6 386.9 43.15C386.9 41.47 387.23 40 387.9 38.75C388.56 37.5 389.46 36.45 390.59 35.61C391.72 34.77 393.01 34.14 394.44 33.71C395.87 33.28 397.37 33.07 398.94 33.07C400.95 33.07 402.77 33.37 404.42 33.99C406.07 34.6 407.55 35.66 408.84 37.18C408.61 37.37 407.47 38.36 405.42 40.15C404.32 38.85 403.39 38.04 402.61 37.7C401.44 37.19 400.23 36.94 398.96 36.94Z" id="b2teZBn8IW"></path><path d="M420.62 68.97L416.42 68.97L416.42 33.96L420.62 33.96L420.62 68.97Z" id="f28sOe78zg"></path><path d="M420.62 68.97L416.42 68.97L416.42 33.96L420.62 33.96L420.62 68.97Z" id="c7r8sODN9c"></path><path d="M455.23 63.04L455.33 63.04L455.33 33.96L459.53 33.96L459.53 68.97L454.23 68.97L433.72 39.89L433.62 39.89L433.62 68.97L429.43 68.97L429.43 33.96L434.73 33.96L455.23 63.04Z" id="aCFe3YUJ"></path><path d="M455.23 63.04L455.33 63.04L455.33 33.96L459.53 33.96L459.53 68.97L454.23 68.97L433.72 39.89L433.62 39.89L433.62 68.97L429.43 68.97L429.43 33.96L434.73 33.96L455.23 63.04Z" id="c4eWTeu4j5"></path><path d="M490.6 37.82L472.54 37.82L472.54 48.79L489.39 48.79L489.39 52.65L472.54 52.65L472.54 65.11L491.49 65.11L491.49 68.97L468.34 68.97L468.34 33.96L490.6 33.96L490.6 37.82Z" id="b3eWs8dALo"></path><path d="M490.6 37.82L472.54 37.82L472.54 48.79L489.39 48.79L489.39 52.65L472.54 52.65L472.54 65.11L491.49 65.11L491.49 68.97L468.34 68.97L468.34 33.96L490.6 33.96L490.6 37.82Z" id="e2GSnDGRIu"></path><path d="M508.35 36.94C507.41 36.94 506.5 37.05 505.6 37.28C504.7 37.51 503.89 37.86 503.17 38.32C502.45 38.79 501.88 39.4 501.45 40.15C501.01 40.91 500.8 41.8 500.8 42.82C500.8 43.61 500.92 44.31 501.18 44.92C501.43 45.53 501.83 46.08 502.4 46.57C502.96 47.07 503.73 47.53 504.7 47.96C505.67 48.39 506.85 48.82 508.25 49.25C509.62 49.67 510.95 50.14 512.22 50.63C513.51 51.13 514.64 51.75 515.62 52.51C516.6 53.27 517.39 54.22 517.98 55.35C518.56 56.49 518.85 57.91 518.85 59.63C518.85 61.38 518.5 62.89 517.8 64.18C517.1 65.47 516.17 66.53 515.02 67.37C513.87 68.22 512.55 68.84 511.05 69.25C509.54 69.66 508 69.87 506.4 69.87C505.36 69.87 504.33 69.78 503.3 69.59C502.26 69.42 501.27 69.13 500.32 68.75C499.37 68.37 498.48 67.88 497.64 67.27C496.81 66.65 496.1 65.91 495.49 65.02C495.86 64.73 498.74 62.39 499.1 62.1C499.86 63.39 500.93 64.36 502.3 65.02C503.67 65.67 505.11 66 506.65 66C507.55 66 508.46 65.87 509.37 65.6C510.29 65.34 511.12 64.95 511.85 64.44C512.58 63.93 513.18 63.29 513.64 62.54C514.11 61.78 514.34 60.9 514.34 59.91C514.34 58.83 514.16 57.94 513.8 57.27C513.43 56.59 512.86 56 512.1 55.51C511.33 55.01 510.36 54.56 509.19 54.17C508.03 53.77 506.66 53.32 505.1 52.79C503.83 52.39 502.66 51.94 501.59 51.43C500.52 50.92 499.59 50.29 498.81 49.55C498.03 48.81 497.41 47.91 496.96 46.88C496.51 45.85 496.29 44.6 496.29 43.15C496.29 41.47 496.62 40 497.28 38.75C497.95 37.5 498.85 36.45 499.98 35.61C501.11 34.77 502.4 34.14 503.83 33.71C505.26 33.28 506.76 33.07 508.33 33.07C510.34 33.07 512.16 33.37 513.81 33.99C515.46 34.6 516.93 35.66 518.23 37.18C518 37.37 516.86 38.36 514.8 40.15C513.71 38.85 512.78 38.04 512 37.7C510.83 37.19 509.62 36.94 508.35 36.94Z" id="bEZAMzr7x"></path><path d="M508.35 36.94C507.41 36.94 506.5 37.05 505.6 37.28C504.7 37.51 503.89 37.86 503.17 38.32C502.45 38.79 501.88 39.4 501.45 40.15C501.01 40.91 500.8 41.8 500.8 42.82C500.8 43.61 500.92 44.31 501.18 44.92C501.43 45.53 501.83 46.08 502.4 46.57C502.96 47.07 503.73 47.53 504.7 47.96C505.67 48.39 506.85 48.82 508.25 49.25C509.62 49.67 510.95 50.14 512.22 50.63C513.51 51.13 514.64 51.75 515.62 52.51C516.6 53.27 517.39 54.22 517.98 55.35C518.56 56.49 518.85 57.91 518.85 59.63C518.85 61.38 518.5 62.89 517.8 64.18C517.1 65.47 516.17 66.53 515.02 67.37C513.87 68.22 512.55 68.84 511.05 69.25C509.54 69.66 508 69.87 506.4 69.87C505.36 69.87 504.33 69.78 503.3 69.59C502.26 69.42 501.27 69.13 500.32 68.75C499.37 68.37 498.48 67.88 497.64 67.27C496.81 66.65 496.1 65.91 495.49 65.02C495.86 64.73 498.74 62.39 499.1 62.1C499.86 63.39 500.93 64.36 502.3 65.02C503.67 65.67 505.11 66 506.65 66C507.55 66 508.46 65.87 509.37 65.6C510.29 65.34 511.12 64.95 511.85 64.44C512.58 63.93 513.18 63.29 513.64 62.54C514.11 61.78 514.34 60.9 514.34 59.91C514.34 58.83 514.16 57.94 513.8 57.27C513.43 56.59 512.86 56 512.1 55.51C511.33 55.01 510.36 54.56 509.19 54.17C508.03 53.77 506.66 53.32 505.1 52.79C503.83 52.39 502.66 51.94 501.59 51.43C500.52 50.92 499.59 50.29 498.81 49.55C498.03 48.81 497.41 47.91 496.96 46.88C496.51 45.85 496.29 44.6 496.29 43.15C496.29 41.47 496.62 40 497.28 38.75C497.95 37.5 498.85 36.45 499.98 35.61C501.11 34.77 502.4 34.14 503.83 33.71C505.26 33.28 506.76 33.07 508.33 33.07C510.34 33.07 512.16 33.37 513.81 33.99C515.46 34.6 516.93 35.66 518.23 37.18C518 37.37 516.86 38.36 514.8 40.15C513.71 38.85 512.78 38.04 512 37.7C510.83 37.19 509.62 36.94 508.35 36.94Z" id="aJnYZZ8m"></path><path d="M536.16 36.94C535.23 36.94 534.31 37.05 533.41 37.28C532.51 37.51 531.7 37.86 530.98 38.32C530.26 38.79 529.69 39.4 529.26 40.15C528.83 40.91 528.61 41.8 528.61 42.82C528.61 43.61 528.74 44.31 528.99 44.92C529.24 45.53 529.64 46.08 530.21 46.57C530.78 47.07 531.54 47.53 532.51 47.96C533.48 48.39 534.66 48.82 536.06 49.25C537.43 49.67 538.76 50.14 540.04 50.63C541.32 51.13 542.45 51.75 543.43 52.51C544.41 53.27 545.2 54.22 545.79 55.35C546.37 56.49 546.66 57.91 546.66 59.63C546.66 61.38 546.31 62.89 545.61 64.18C544.91 65.47 543.98 66.53 542.83 67.37C541.68 68.22 540.36 68.84 538.86 69.25C537.36 69.66 535.81 69.87 534.21 69.87C533.18 69.87 532.14 69.78 531.11 69.59C530.08 69.42 529.09 69.13 528.13 68.75C527.18 68.37 526.29 67.88 525.46 67.27C524.62 66.65 523.91 65.91 523.31 65.02C523.67 64.73 526.55 62.39 526.91 62.1C527.68 63.39 528.75 64.36 530.11 65.02C531.48 65.67 532.93 66 534.46 66C535.36 66 536.27 65.87 537.19 65.6C538.1 65.34 538.93 64.95 539.66 64.44C540.4 63.93 540.99 63.29 541.46 62.54C541.92 61.78 542.16 60.9 542.16 59.91C542.16 58.83 541.97 57.94 541.61 57.27C541.24 56.59 540.67 56 539.91 55.51C539.15 55.01 538.17 54.56 537.01 54.17C535.84 53.77 534.47 53.32 532.91 52.79C531.64 52.39 530.47 51.94 529.4 51.43C528.33 50.92 527.41 50.29 526.62 49.55C525.84 48.81 525.22 47.91 524.77 46.88C524.32 45.85 524.1 44.6 524.1 43.15C524.1 41.47 524.43 40 525.1 38.75C525.76 37.5 526.66 36.45 527.79 35.61C528.93 34.77 530.21 34.14 531.64 33.71C533.07 33.28 534.57 33.07 536.14 33.07C538.15 33.07 539.97 33.37 541.62 33.99C543.27 34.6 544.75 35.66 546.04 37.18C545.81 37.37 544.67 38.36 542.62 40.15C541.52 38.85 540.59 38.04 539.81 37.7C538.64 37.19 537.43 36.94 536.16 36.94Z" id="cLmILwLXz"></path><path d="M536.16 36.94C535.23 36.94 534.31 37.05 533.41 37.28C532.51 37.51 531.7 37.86 530.98 38.32C530.26 38.79 529.69 39.4 529.26 40.15C528.83 40.91 528.61 41.8 528.61 42.82C528.61 43.61 528.74 44.31 528.99 44.92C529.24 45.53 529.64 46.08 530.21 46.57C530.78 47.07 531.54 47.53 532.51 47.96C533.48 48.39 534.66 48.82 536.06 49.25C537.43 49.67 538.76 50.14 540.04 50.63C541.32 51.13 542.45 51.75 543.43 52.51C544.41 53.27 545.2 54.22 545.79 55.35C546.37 56.49 546.66 57.91 546.66 59.63C546.66 61.38 546.31 62.89 545.61 64.18C544.91 65.47 543.98 66.53 542.83 67.37C541.68 68.22 540.36 68.84 538.86 69.25C537.36 69.66 535.81 69.87 534.21 69.87C533.18 69.87 532.14 69.78 531.11 69.59C530.08 69.42 529.09 69.13 528.13 68.75C527.18 68.37 526.29 67.88 525.46 67.27C524.62 66.65 523.91 65.91 523.31 65.02C523.67 64.73 526.55 62.39 526.91 62.1C527.68 63.39 528.75 64.36 530.11 65.02C531.48 65.67 532.93 66 534.46 66C535.36 66 536.27 65.87 537.19 65.6C538.1 65.34 538.93 64.95 539.66 64.44C540.4 63.93 540.99 63.29 541.46 62.54C541.92 61.78 542.16 60.9 542.16 59.91C542.16 58.83 541.97 57.94 541.61 57.27C541.24 56.59 540.67 56 539.91 55.51C539.15 55.01 538.17 54.56 537.01 54.17C535.84 53.77 534.47 53.32 532.91 52.79C531.64 52.39 530.47 51.94 529.4 51.43C528.33 50.92 527.41 50.29 526.62 49.55C525.84 48.81 525.22 47.91 524.77 46.88C524.32 45.85 524.1 44.6 524.1 43.15C524.1 41.47 524.43 40 525.1 38.75C525.76 37.5 526.66 36.45 527.79 35.61C528.93 34.77 530.21 34.14 531.64 33.71C533.07 33.28 534.57 33.07 536.14 33.07C538.15 33.07 539.97 33.37 541.62 33.99C543.27 34.6 544.75 35.66 546.04 37.18C545.81 37.37 544.67 38.36 542.62 40.15C541.52 38.85 540.59 38.04 539.81 37.7C538.64 37.19 537.43 36.94 536.16 36.94Z" id="a1f2vQdQTv"></path><path d="M160.61 110.79L160.73 110.79L169.98 82.71L179.05 82.71L188.24 111.52L188.36 111.52L195.81 82.71L205.69 82.71L192.74 126.48L184.05 126.48L174.3 96.19L174.17 96.19L164.42 126.48L156.04 126.48L142.92 82.71L153.54 82.71L160.61 110.79Z" id="k1fxUfX8X"></path><path d="M160.61 110.79L160.73 110.79L169.98 82.71L179.05 82.71L188.24 111.52L188.36 111.52L195.81 82.71L205.69 82.71L192.74 126.48L184.05 126.48L174.3 96.19L174.17 96.19L164.42 126.48L156.04 126.48L142.92 82.71L153.54 82.71L160.61 110.79Z" id="a2lO32Of6X"></path><path d="M250.39 126.48L239.39 126.48L235.58 117.21L218.38 117.21L214.69 126.48L203.94 126.48L223.07 82.71L231.13 82.71L250.39 126.48ZM232.26 109.05L226.82 95.45L221.44 109.05L232.26 109.05Z" id="a4PZ3rAPKt"></path><path d="M250.39 126.48L239.39 126.48L235.58 117.21L218.38 117.21L214.69 126.48L203.94 126.48L223.07 82.71L231.13 82.71L250.39 126.48ZM232.26 109.05L226.82 95.45L221.44 109.05L232.26 109.05Z" id="kqz86S0oF"></path><path d="M278.37 83.36C280.4 83.8 282.17 84.52 283.69 85.52C285.2 86.54 286.42 87.9 287.31 89.6C288.21 91.31 288.66 93.44 288.66 96C288.66 99.1 287.85 101.72 286.22 103.89C284.59 106.05 282.22 107.43 279.09 108C279.84 109.24 283.59 115.4 290.35 126.49C289.57 126.49 285.67 126.49 278.65 126.49L269.4 109L264.58 109L264.58 126.49L254.83 126.49C254.83 100.22 254.83 85.63 254.83 82.71C265.11 82.71 270.82 82.71 271.96 82.71C274.21 82.71 276.35 82.93 278.37 83.36ZM273.11 100.74C274.09 100.68 274.98 100.49 275.77 100.18C276.57 99.87 277.22 99.39 277.74 98.73C278.26 98.07 278.53 97.14 278.53 95.95C278.53 94.84 278.29 93.95 277.83 93.29C277.37 92.63 276.79 92.13 276.08 91.78C275.37 91.43 274.56 91.19 273.64 91.07C272.73 90.95 271.83 90.88 270.96 90.88C270.53 90.88 268.41 90.88 264.58 90.88C264.58 91.88 264.58 99.84 264.58 100.83C268.04 100.83 269.95 100.83 270.34 100.83C271.21 100.83 272.13 100.79 273.11 100.74Z" id="c14We3sICO"></path><path d="M278.37 83.36C280.4 83.8 282.17 84.52 283.69 85.52C285.2 86.54 286.42 87.9 287.31 89.6C288.21 91.31 288.66 93.44 288.66 96C288.66 99.1 287.85 101.72 286.22 103.89C284.59 106.05 282.22 107.43 279.09 108C279.84 109.24 283.59 115.4 290.35 126.49C289.57 126.49 285.67 126.49 278.65 126.49L269.4 109L264.58 109L264.58 126.49L254.83 126.49C254.83 100.22 254.83 85.63 254.83 82.71C265.11 82.71 270.82 82.71 271.96 82.71C274.21 82.71 276.35 82.93 278.37 83.36ZM273.11 100.74C274.09 100.68 274.98 100.49 275.77 100.18C276.57 99.87 277.22 99.39 277.74 98.73C278.26 98.07 278.53 97.14 278.53 95.95C278.53 94.84 278.29 93.95 277.83 93.29C277.37 92.63 276.79 92.13 276.08 91.78C275.37 91.43 274.56 91.19 273.64 91.07C272.73 90.95 271.83 90.88 270.96 90.88C270.53 90.88 268.41 90.88 264.58 90.88C264.58 91.88 264.58 99.84 264.58 100.83C268.04 100.83 269.95 100.83 270.34 100.83C271.21 100.83 272.13 100.79 273.11 100.74Z" id="dC3yG1lGw"></path><path d="M325.8 91.62L305.48 91.62L305.48 99.78L324.68 99.78L324.68 108.69L305.48 108.69L305.48 117.59L326.93 117.59L326.93 126.5L295.73 126.5L295.73 82.71L325.8 82.71L325.8 91.62Z" id="byx2lOLh3"></path><path d="M325.8 91.62L305.48 91.62L305.48 99.78L324.68 99.78L324.68 108.69L305.48 108.69L305.48 117.59L326.93 117.59L326.93 126.5L295.73 126.5L295.73 82.71L325.8 82.71L325.8 91.62Z" id="c336Ig23fI"></path><path d="M344.49 99.03L363.43 99.03L363.43 82.71L373.18 82.71L373.18 126.48L363.43 126.48L363.43 107.57L344.49 107.57L344.49 126.48L334.73 126.48L334.73 82.71L344.49 82.71L344.49 99.03Z" id="avPZIuTyq"></path><path d="M344.49 99.03L363.43 99.03L363.43 82.71L373.18 82.71L373.18 126.48L363.43 126.48L363.43 107.57L344.49 107.57L344.49 126.48L334.73 126.48L334.73 82.71L344.49 82.71L344.49 99.03Z" id="cuQ8xOyu8"></path><path d="M386.57 87.82C388.7 85.82 391.21 84.28 394.13 83.21C397.06 82.14 400.24 81.6 403.7 81.6C407.16 81.6 410.35 82.14 413.26 83.21C416.18 84.29 418.7 85.82 420.83 87.82C422.95 89.82 424.62 92.23 425.8 95.08C426.99 97.92 427.58 101.1 427.58 104.6C427.58 108.1 426.99 111.27 425.8 114.12C424.62 116.96 422.95 119.38 420.83 121.38C418.7 123.38 416.18 124.92 413.26 125.99C410.34 127.06 407.16 127.59 403.7 127.59C400.24 127.59 397.05 127.06 394.13 125.99C391.21 124.91 388.7 123.38 386.57 121.38C384.44 119.38 382.78 116.96 381.59 114.12C380.41 111.27 379.81 108.11 379.81 104.6C379.81 101.1 380.41 97.92 381.59 95.08C382.78 92.23 384.44 89.82 386.57 87.82ZM393.69 114.71C394.9 115.97 396.35 116.95 398.04 117.64C399.73 118.34 401.6 118.69 403.69 118.69C405.77 118.69 407.66 118.34 409.34 117.64C411.03 116.94 412.48 115.96 413.69 114.71C414.89 113.45 415.82 111.97 416.46 110.25C417.11 108.55 417.43 106.66 417.43 104.6C417.43 102.58 417.11 100.71 416.46 98.97C415.82 97.24 414.89 95.75 413.69 94.49C412.47 93.24 411.02 92.26 409.34 91.56C407.65 90.86 405.77 90.51 403.69 90.51C401.6 90.51 399.72 90.86 398.04 91.56C396.35 92.26 394.9 93.24 393.69 94.49C392.48 95.75 391.55 97.24 390.91 98.97C390.26 100.71 389.94 102.58 389.94 104.6C389.94 106.66 390.26 108.55 390.91 110.25C391.55 111.96 392.48 113.44 393.69 114.71Z" id="cvo4EQB62"></path><path d="M386.57 87.82C388.7 85.82 391.21 84.28 394.13 83.21C397.06 82.14 400.24 81.6 403.7 81.6C407.16 81.6 410.35 82.14 413.26 83.21C416.18 84.29 418.7 85.82 420.83 87.82C422.95 89.82 424.62 92.23 425.8 95.08C426.99 97.92 427.58 101.1 427.58 104.6C427.58 108.1 426.99 111.27 425.8 114.12C424.62 116.96 422.95 119.38 420.83 121.38C418.7 123.38 416.18 124.92 413.26 125.99C410.34 127.06 407.16 127.59 403.7 127.59C400.24 127.59 397.05 127.06 394.13 125.99C391.21 124.91 388.7 123.38 386.57 121.38C384.44 119.38 382.78 116.96 381.59 114.12C380.41 111.27 379.81 108.11 379.81 104.6C379.81 101.1 380.41 97.92 381.59 95.08C382.78 92.23 384.44 89.82 386.57 87.82ZM393.69 114.71C394.9 115.97 396.35 116.95 398.04 117.64C399.73 118.34 401.6 118.69 403.69 118.69C405.77 118.69 407.66 118.34 409.34 117.64C411.03 116.94 412.48 115.96 413.69 114.71C414.89 113.45 415.82 111.97 416.46 110.25C417.11 108.55 417.43 106.66 417.43 104.6C417.43 102.58 417.11 100.71 416.46 98.97C415.82 97.24 414.89 95.75 413.69 94.49C412.47 93.24 411.02 92.26 409.34 91.56C407.65 90.86 405.77 90.51 403.69 90.51C401.6 90.51 399.72 90.86 398.04 91.56C396.35 92.26 394.9 93.24 393.69 94.49C392.48 95.75 391.55 97.24 390.91 98.97C390.26 100.71 389.94 102.58 389.94 104.6C389.94 106.66 390.26 108.55 390.91 110.25C391.55 111.96 392.48 113.44 393.69 114.71Z" id="a17KRTvLTH"></path><path d="M466.81 122.47C465.25 124.08 463.3 125.34 460.97 126.24C458.63 127.15 455.94 127.6 452.9 127.6C449.82 127.6 447.11 127.15 444.78 126.24C442.45 125.34 440.5 124.08 438.94 122.47C437.37 120.87 436.19 118.97 435.4 116.79C434.61 114.6 434.22 112.21 434.22 109.61C434.22 107.82 434.22 98.85 434.22 82.71C435.19 82.71 442.99 82.71 443.96 82.71C443.96 98.63 443.96 107.47 443.96 109.24C443.96 110.6 444.18 111.86 444.62 113.01C445.06 114.16 445.67 115.16 446.46 116C447.25 116.85 448.2 117.51 449.31 117.99C450.41 118.46 451.61 118.7 452.9 118.7C454.2 118.7 455.39 118.46 456.46 117.99C457.55 117.51 458.49 116.86 459.28 116C460.07 115.16 460.68 114.16 461.12 113.01C461.56 111.85 461.78 110.6 461.78 109.24C461.78 107.47 461.78 98.63 461.78 82.71C462.43 82.71 465.68 82.71 471.53 82.71C471.53 98.85 471.53 107.82 471.53 109.61C471.27 112.94 470.87 115.33 470.34 116.79C469.55 118.97 468.37 120.87 466.81 122.47Z" id="c35tOYtViD"></path><path d="M466.81 122.47C465.25 124.08 463.3 125.34 460.97 126.24C458.63 127.15 455.94 127.6 452.9 127.6C449.82 127.6 447.11 127.15 444.78 126.24C442.45 125.34 440.5 124.08 438.94 122.47C437.37 120.87 436.19 118.97 435.4 116.79C434.61 114.6 434.22 112.21 434.22 109.61C434.22 107.82 434.22 98.85 434.22 82.71C435.19 82.71 442.99 82.71 443.96 82.71C443.96 98.63 443.96 107.47 443.96 109.24C443.96 110.6 444.18 111.86 444.62 113.01C445.06 114.16 445.67 115.16 446.46 116C447.25 116.85 448.2 117.51 449.31 117.99C450.41 118.46 451.61 118.7 452.9 118.7C454.2 118.7 455.39 118.46 456.46 117.99C457.55 117.51 458.49 116.86 459.28 116C460.07 115.16 460.68 114.16 461.12 113.01C461.56 111.85 461.78 110.6 461.78 109.24C461.78 107.47 461.78 98.63 461.78 82.71C462.43 82.71 465.68 82.71 471.53 82.71C471.53 98.85 471.53 107.82 471.53 109.61C471.27 112.94 470.87 115.33 470.34 116.79C469.55 118.97 468.37 120.87 466.81 122.47Z" id="aZg3gIQ2y"></path><path d="M495.35 90.5C494.64 90.5 493.91 90.58 493.17 90.75C492.42 90.92 491.71 91.18 491.04 91.52C490.37 91.87 489.82 92.34 489.41 92.92C489 93.5 488.78 94.2 488.78 95.02C488.78 96.33 489.28 97.35 490.28 98.05C491.28 98.75 492.54 99.35 494.07 99.84C495.58 100.34 497.22 100.83 498.97 101.33C500.73 101.83 502.36 102.53 503.88 103.43C505.4 104.33 506.67 105.55 507.67 107.07C508.66 108.6 509.17 110.63 509.17 113.19C509.17 115.63 508.71 117.75 507.79 119.56C506.87 121.37 505.63 122.87 504.07 124.07C502.51 125.27 500.69 126.15 498.63 126.73C496.56 127.31 494.39 127.59 492.1 127.59C489.22 127.59 486.55 127.16 484.1 126.3C481.63 125.43 479.34 124.03 477.22 122.09C477.91 121.34 483.47 115.3 484.16 114.55C485.16 115.86 486.42 116.88 487.94 117.6C489.46 118.32 491.04 118.69 492.66 118.69C493.45 118.69 494.25 118.6 495.07 118.41C495.88 118.23 496.61 117.95 497.26 117.58C497.9 117.2 498.43 116.73 498.82 116.15C499.22 115.58 499.41 114.9 499.41 114.12C499.41 112.8 498.9 111.76 497.89 111C496.86 110.23 495.58 109.59 494.04 109.05C492.49 108.52 490.83 107.98 489.04 107.44C487.25 106.91 485.58 106.19 484.04 105.28C482.5 104.38 481.22 103.18 480.2 101.7C479.17 100.22 478.67 98.26 478.67 95.83C478.67 93.48 479.13 91.42 480.08 89.64C481.01 87.87 482.26 86.39 483.83 85.19C485.39 83.99 487.19 83.1 489.24 82.49C491.28 81.9 493.38 81.59 495.55 81.59C498.05 81.59 500.47 81.94 502.8 82.64C505.14 83.35 507.24 84.52 509.11 86.16C508.67 86.65 506.43 89.06 502.42 93.41C501.17 92.26 500.1 91.53 499.2 91.21C497.84 90.74 496.56 90.5 495.35 90.5Z" id="d2RcDvprAx"></path><path d="M495.35 90.5C494.64 90.5 493.91 90.58 493.17 90.75C492.42 90.92 491.71 91.18 491.04 91.52C490.37 91.87 489.82 92.34 489.41 92.92C489 93.5 488.78 94.2 488.78 95.02C488.78 96.33 489.28 97.35 490.28 98.05C491.28 98.75 492.54 99.35 494.07 99.84C495.58 100.34 497.22 100.83 498.97 101.33C500.73 101.83 502.36 102.53 503.88 103.43C505.4 104.33 506.67 105.55 507.67 107.07C508.66 108.6 509.17 110.63 509.17 113.19C509.17 115.63 508.71 117.75 507.79 119.56C506.87 121.37 505.63 122.87 504.07 124.07C502.51 125.27 500.69 126.15 498.63 126.73C496.56 127.31 494.39 127.59 492.1 127.59C489.22 127.59 486.55 127.16 484.1 126.3C481.63 125.43 479.34 124.03 477.22 122.09C477.91 121.34 483.47 115.3 484.16 114.55C485.16 115.86 486.42 116.88 487.94 117.6C489.46 118.32 491.04 118.69 492.66 118.69C493.45 118.69 494.25 118.6 495.07 118.41C495.88 118.23 496.61 117.95 497.26 117.58C497.9 117.2 498.43 116.73 498.82 116.15C499.22 115.58 499.41 114.9 499.41 114.12C499.41 112.8 498.9 111.76 497.89 111C496.86 110.23 495.58 109.59 494.04 109.05C492.49 108.52 490.83 107.98 489.04 107.44C487.25 106.91 485.58 106.19 484.04 105.28C482.5 104.38 481.22 103.18 480.2 101.7C479.17 100.22 478.67 98.26 478.67 95.83C478.67 93.48 479.13 91.42 480.08 89.64C481.01 87.87 482.26 86.39 483.83 85.19C485.39 83.99 487.19 83.1 489.24 82.49C491.28 81.9 493.38 81.59 495.55 81.59C498.05 81.59 500.47 81.94 502.8 82.64C505.14 83.35 507.24 84.52 509.11 86.16C508.67 86.65 506.43 89.06 502.42 93.41C501.17 92.26 500.1 91.53 499.2 91.21C497.84 90.74 496.56 90.5 495.35 90.5Z" id="bWSDpSdBH"></path><path d="M546.87 91.62L526.55 91.62L526.55 99.78L545.74 99.78L545.74 108.69L526.55 108.69L526.55 117.59L548 117.59L548 126.5L516.8 126.5L516.8 82.71L546.87 82.71L546.87 91.62Z" id="dEYqXQj9n"></path><path d="M546.87 91.62L526.55 91.62L526.55 99.78L545.74 99.78L545.74 108.69L526.55 108.69L526.55 117.59L548 117.59L548 126.5L516.8 126.5L516.8 82.71L546.87 82.71L546.87 91.62Z" id="a3k5LGKdm7"></path></defs><g><g><use xlink:href="#ekGS5Oxgh" opacity="1" fill="#000000" fill-opacity="1"></use><g><use xlink:href="#ekGS5Oxgh" opacity="1" fill-opacity="0" stroke="#000000" stroke-width="1" stroke-opacity="0"></use></g></g><g><use xlink:href="#a6xyE3u81" opacity="1" fill="#000000" fill-opacity="0"></use><g><use xlink:href="#a6xyE3u81" opacity="1" fill-opacity="0" stroke="#000000" stroke-width="1" stroke-opacity="0"></use></g></g><g><use xlink:href="#c1MqCdddCc" opacity="1" fill="#000000" fill-opacity="1"></use><g><use xlink:href="#c1MqCdddCc" opacity="1" fill-opacity="0" stroke="#000000" stroke-width="1" stroke-opacity="0"></use></g></g><g><use xlink:href="#c8AXRr0NYT" opacity="1" fill="#000000" fill-opacity="0"></use><g><use xlink:href="#c8AXRr0NYT" opacity="1" fill-opacity="0" stroke="#000000" stroke-width="1" stroke-opacity="0"></use></g></g><g><use xlink:href="#b2735qy5Aa" opacity="1" fill="#000000" fill-opacity="1"></use><g><use xlink:href="#b2735qy5Aa" opacity="1" fill-opacity="0" stroke="#000000" stroke-width="1" stroke-opacity="0"></use></g></g><g><use xlink:href="#b2XeHNW3ek" opacity="1" fill="#000000" fill-opacity="0"></use><g><use xlink:href="#b2XeHNW3ek" opacity="1" fill-opacity="0" stroke="#000000" stroke-width="1" stroke-opacity="0"></use></g></g><g><use xlink:href="#a1BWPctl4m" opacity="1" fill="#000000" fill-opacity="1"></use><g><use xlink:href="#a1BWPctl4m" opacity="1" fill-opacity="0" stroke="#000000" stroke-width="1" stroke-opacity="0"></use></g></g><g><use xlink:href="#d1BMW8UasC" opacity="1" fill="#000000" fill-opacity="0"></use><g><use xlink:href="#d1BMW8UasC" opacity="1" fill-opacity="0" stroke="#000000" stroke-width="1" stroke-opacity="0"></use></g></g><g><use xlink:href="#a1rnk4E932" opacity="1" fill="#000000" fill-opacity="1"></use><g><use xlink:href="#a1rnk4E932" opacity="1" fill-opacity="0" stroke="#000000" stroke-width="1" stroke-opacity="0"></use></g></g><g><use xlink:href="#b1SkmIU9bc" opacity="1" fill="#000000" fill-opacity="0"></use><g><use xlink:href="#b1SkmIU9bc" opacity="1" fill-opacity="0" stroke="#000000" stroke-width="1" stroke-opacity="0"></use></g></g><g><use xlink:href="#a8wker9QPf" opacity="1" fill="#000000" fill-opacity="1"></use><g><use xlink:href="#a8wker9QPf" opacity="1" fill-opacity="0" stroke="#000000" stroke-width="1" stroke-opacity="0"></use></g></g><g><use xlink:href="#gNM5jqq14" opacity="1" fill="#000000" fill-opacity="0"></use><g><use xlink:href="#gNM5jqq14" opacity="1" fill-opacity="0" stroke="#000000" stroke-width="1" stroke-opacity="0"></use></g></g><g><use xlink:href="#aZEz1B3uu" opacity="1" fill="#000000" fill-opacity="1"></use><g><use xlink:href="#aZEz1B3uu" opacity="1" fill-opacity="0" stroke="#000000" stroke-width="1" stroke-opacity="0"></use></g></g><g><use xlink:href="#b3g8iLQZvg" opacity="1" fill="#000000" fill-opacity="0"></use><g><use xlink:href="#b3g8iLQZvg" opacity="1" fill-opacity="0" stroke="#000000" stroke-width="1" stroke-opacity="0"></use></g></g><g><use xlink:href="#a1BO1chhFS" opacity="1" fill="#000000" fill-opacity="1"></use><g><use xlink:href="#a1BO1chhFS" opacity="1" fill-opacity="0" stroke="#000000" stroke-width="1" stroke-opacity="0"></use></g></g><g><use xlink:href="#b4VDKy6SG9" opacity="1" fill="#000000" fill-opacity="0"></use><g><use xlink:href="#b4VDKy6SG9" opacity="1" fill-opacity="0" stroke="#000000" stroke-width="1" stroke-opacity="0"></use></g></g><g><use xlink:href="#g4Y8ieVQe" opacity="1" fill="#000000" fill-opacity="1"></use><g><use xlink:href="#g4Y8ieVQe" opacity="1" fill-opacity="0" stroke="#000000" stroke-width="1" stroke-opacity="0"></use></g></g><g><use xlink:href="#a5p0Ou25z" opacity="1" fill="#000000" fill-opacity="0"></use><g><use xlink:href="#a5p0Ou25z" opacity="1" fill-opacity="0" stroke="#000000" stroke-width="1" stroke-opacity="0"></use></g></g><g><use xlink:href="#a2FtMpn3s0" opacity="1" fill="#000000" fill-opacity="1"></use><g><use xlink:href="#a2FtMpn3s0" opacity="1" fill-opacity="0" stroke="#000000" stroke-width="1" stroke-opacity="0"></use></g></g><g><use xlink:href="#b155wwiB4F" opacity="1" fill="#000000" fill-opacity="0"></use><g><use xlink:href="#b155wwiB4F" opacity="1" fill-opacity="0" stroke="#000000" stroke-width="1" stroke-opacity="0"></use></g></g><g><use xlink:href="#aop5yXWNH" opacity="1" fill="#000000" fill-opacity="1"></use><g><use xlink:href="#aop5yXWNH" opacity="1" fill-opacity="0" stroke="#000000" stroke-width="1" stroke-opacity="0"></use></g></g><g><use xlink:href="#a6umznPrlc" opacity="1" fill="#000000" fill-opacity="0"></use><g><use xlink:href="#a6umznPrlc" opacity="1" fill-opacity="0" stroke="#000000" stroke-width="1" stroke-opacity="0"></use></g></g><g><use xlink:href="#b6xh7aHg7g" opacity="1" fill="#000000" fill-opacity="1"></use><g><use xlink:href="#b6xh7aHg7g" opacity="1" fill-opacity="0" stroke="#000000" stroke-width="1" stroke-opacity="0"></use></g></g><g><use xlink:href="#a77EpKSwt" opacity="1" fill="#000000" fill-opacity="0"></use><g><use xlink:href="#a77EpKSwt" opacity="1" fill-opacity="0" stroke="#000000" stroke-width="1" stroke-opacity="0"></use></g></g><g><use xlink:href="#b1hj3SKI0O" opacity="1" fill="#000000" fill-opacity="1"></use><g><use xlink:href="#b1hj3SKI0O" opacity="1" fill-opacity="0" stroke="#000000" stroke-width="1" stroke-opacity="0"></use></g></g><g><use xlink:href="#dzGT71Z3S" opacity="1" fill="#000000" fill-opacity="0"></use><g><use xlink:href="#dzGT71Z3S" opacity="1" fill-opacity="0" stroke="#000000" stroke-width="1" stroke-opacity="0"></use></g></g><g><use xlink:href="#e6i2tQuxWB" opacity="1" fill="#000000" fill-opacity="1"></use><g><use xlink:href="#e6i2tQuxWB" opacity="1" fill-opacity="0" stroke="#000000" stroke-width="1" stroke-opacity="0"></use></g></g><g><use xlink:href="#bdpDlrntV" opacity="1" fill="#000000" fill-opacity="0"></use><g><use xlink:href="#bdpDlrntV" opacity="1" fill-opacity="0" stroke="#000000" stroke-width="1" stroke-opacity="0"></use></g></g><g><use xlink:href="#k2MUFfSulM" opacity="1" fill="#000000" fill-opacity="1"></use><g><use xlink:href="#k2MUFfSulM" opacity="1" fill-opacity="0" stroke="#000000" stroke-width="1" stroke-opacity="0"></use></g></g><g><use xlink:href="#b2218lmrgl" opacity="1" fill="#000000" fill-opacity="0"></use><g><use xlink:href="#b2218lmrgl" opacity="1" fill-opacity="0" stroke="#000000" stroke-width="1" stroke-opacity="0"></use></g></g><g><use xlink:href="#b1u06v3Xb" opacity="1" fill="#000000" fill-opacity="1"></use><g><use xlink:href="#b1u06v3Xb" opacity="1" fill-opacity="0" stroke="#000000" stroke-width="1" stroke-opacity="0"></use></g></g><g><use xlink:href="#a3Opf9cZLC" opacity="1" fill="#000000" fill-opacity="0"></use><g><use xlink:href="#a3Opf9cZLC" opacity="1" fill-opacity="0" stroke="#000000" stroke-width="1" stroke-opacity="0"></use></g></g><g><use xlink:href="#g23EVOcZaD" opacity="1" fill="#000000" fill-opacity="1"></use><g><use xlink:href="#g23EVOcZaD" opacity="1" fill-opacity="0" stroke="#000000" stroke-width="1" stroke-opacity="0"></use></g></g><g><use xlink:href="#boHJqlS11" opacity="1" fill="#000000" fill-opacity="0"></use><g><use xlink:href="#boHJqlS11" opacity="1" fill-opacity="0" stroke="#000000" stroke-width="1" stroke-opacity="0"></use></g></g><g><use xlink:href="#c3necaBVYE" opacity="1" fill="#000000" fill-opacity="1"></use><g><use xlink:href="#c3necaBVYE" opacity="1" fill-opacity="0" stroke="#000000" stroke-width="1" stroke-opacity="0"></use></g></g><g><use xlink:href="#baC5Zbrg1" opacity="1" fill="#000000" fill-opacity="0"></use><g><use xlink:href="#baC5Zbrg1" opacity="1" fill-opacity="0" stroke="#000000" stroke-width="1" stroke-opacity="0"></use></g></g><g><use xlink:href="#ab2W3nIyi" opacity="1" fill="#000000" fill-opacity="1"></use><g><use xlink:href="#ab2W3nIyi" opacity="1" fill-opacity="0" stroke="#000000" stroke-width="1" stroke-opacity="0"></use></g></g><g><use xlink:href="#k1hyuTKEH" opacity="1" fill="#000000" fill-opacity="0"></use><g><use xlink:href="#k1hyuTKEH" opacity="1" fill-opacity="0" stroke="#000000" stroke-width="1" stroke-opacity="0"></use></g></g><g><use xlink:href="#kthwABrl9" opacity="1" fill="#000000" fill-opacity="1"></use><g><use xlink:href="#kthwABrl9" opacity="1" fill-opacity="0" stroke="#000000" stroke-width="1" stroke-opacity="0"></use></g></g><g><use xlink:href="#b2teZBn8IW" opacity="1" fill="#000000" fill-opacity="0"></use><g><use xlink:href="#b2teZBn8IW" opacity="1" fill-opacity="0" stroke="#000000" stroke-width="1" stroke-opacity="0"></use></g></g><g><use xlink:href="#f28sOe78zg" opacity="1" fill="#000000" fill-opacity="1"></use><g><use xlink:href="#f28sOe78zg" opacity="1" fill-opacity="0" stroke="#000000" stroke-width="1" stroke-opacity="0"></use></g></g><g><use xlink:href="#c7r8sODN9c" opacity="1" fill="#000000" fill-opacity="0"></use><g><use xlink:href="#c7r8sODN9c" opacity="1" fill-opacity="0" stroke="#000000" stroke-width="1" stroke-opacity="0"></use></g></g><g><use xlink:href="#aCFe3YUJ" opacity="1" fill="#000000" fill-opacity="1"></use><g><use xlink:href="#aCFe3YUJ" opacity="1" fill-opacity="0" stroke="#000000" stroke-width="1" stroke-opacity="0"></use></g></g><g><use xlink:href="#c4eWTeu4j5" opacity="1" fill="#000000" fill-opacity="0"></use><g><use xlink:href="#c4eWTeu4j5" opacity="1" fill-opacity="0" stroke="#000000" stroke-width="1" stroke-opacity="0"></use></g></g><g><use xlink:href="#b3eWs8dALo" opacity="1" fill="#000000" fill-opacity="1"></use><g><use xlink:href="#b3eWs8dALo" opacity="1" fill-opacity="0" stroke="#000000" stroke-width="1" stroke-opacity="0"></use></g></g><g><use xlink:href="#e2GSnDGRIu" opacity="1" fill="#000000" fill-opacity="0"></use><g><use xlink:href="#e2GSnDGRIu" opacity="1" fill-opacity="0" stroke="#000000" stroke-width="1" stroke-opacity="0"></use></g></g><g><use xlink:href="#bEZAMzr7x" opacity="1" fill="#000000" fill-opacity="1"></use><g><use xlink:href="#bEZAMzr7x" opacity="1" fill-opacity="0" stroke="#000000" stroke-width="1" stroke-opacity="0"></use></g></g><g><use xlink:href="#aJnYZZ8m" opacity="1" fill="#000000" fill-opacity="0"></use><g><use xlink:href="#aJnYZZ8m" opacity="1" fill-opacity="0" stroke="#000000" stroke-width="1" stroke-opacity="0"></use></g></g><g><use xlink:href="#cLmILwLXz" opacity="1" fill="#000000" fill-opacity="1"></use><g><use xlink:href="#cLmILwLXz" opacity="1" fill-opacity="0" stroke="#000000" stroke-width="1" stroke-opacity="0"></use></g></g><g><use xlink:href="#a1f2vQdQTv" opacity="1" fill="#000000" fill-opacity="0"></use><g><use xlink:href="#a1f2vQdQTv" opacity="1" fill-opacity="0" stroke="#000000" stroke-width="1" stroke-opacity="0"></use></g></g><g><use xlink:href="#k1fxUfX8X" opacity="1" fill="#000000" fill-opacity="1"></use><g><use xlink:href="#k1fxUfX8X" opacity="1" fill-opacity="0" stroke="#000000" stroke-width="1" stroke-opacity="0"></use></g></g><g><use xlink:href="#a2lO32Of6X" opacity="1" fill="#000000" fill-opacity="0"></use><g><use xlink:href="#a2lO32Of6X" opacity="1" fill-opacity="0" stroke="#000000" stroke-width="1" stroke-opacity="0"></use></g></g><g><use xlink:href="#a4PZ3rAPKt" opacity="1" fill="#000000" fill-opacity="1"></use><g><use xlink:href="#a4PZ3rAPKt" opacity="1" fill-opacity="0" stroke="#000000" stroke-width="1" stroke-opacity="0"></use></g></g><g><use xlink:href="#kqz86S0oF" opacity="1" fill="#000000" fill-opacity="0"></use><g><use xlink:href="#kqz86S0oF" opacity="1" fill-opacity="0" stroke="#000000" stroke-width="1" stroke-opacity="0"></use></g></g><g><use xlink:href="#c14We3sICO" opacity="1" fill="#000000" fill-opacity="1"></use><g><use xlink:href="#c14We3sICO" opacity="1" fill-opacity="0" stroke="#000000" stroke-width="1" stroke-opacity="0"></use></g></g><g><use xlink:href="#dC3yG1lGw" opacity="1" fill="#000000" fill-opacity="0"></use><g><use xlink:href="#dC3yG1lGw" opacity="1" fill-opacity="0" stroke="#000000" stroke-width="1" stroke-opacity="0"></use></g></g><g><use xlink:href="#byx2lOLh3" opacity="1" fill="#000000" fill-opacity="1"></use><g><use xlink:href="#byx2lOLh3" opacity="1" fill-opacity="0" stroke="#000000" stroke-width="1" stroke-opacity="0"></use></g></g><g><use xlink:href="#c336Ig23fI" opacity="1" fill="#000000" fill-opacity="0"></use><g><use xlink:href="#c336Ig23fI" opacity="1" fill-opacity="0" stroke="#000000" stroke-width="1" stroke-opacity="0"></use></g></g><g><use xlink:href="#avPZIuTyq" opacity="1" fill="#000000" fill-opacity="1"></use><g><use xlink:href="#avPZIuTyq" opacity="1" fill-opacity="0" stroke="#000000" stroke-width="1" stroke-opacity="0"></use></g></g><g><use xlink:href="#cuQ8xOyu8" opacity="1" fill="#000000" fill-opacity="0"></use><g><use xlink:href="#cuQ8xOyu8" opacity="1" fill-opacity="0" stroke="#000000" stroke-width="1" stroke-opacity="0"></use></g></g><g><use xlink:href="#cvo4EQB62" opacity="1" fill="#000000" fill-opacity="1"></use><g><use xlink:href="#cvo4EQB62" opacity="1" fill-opacity="0" stroke="#000000" stroke-width="1" stroke-opacity="0"></use></g></g><g><use xlink:href="#a17KRTvLTH" opacity="1" fill="#000000" fill-opacity="0"></use><g><use xlink:href="#a17KRTvLTH" opacity="1" fill-opacity="0" stroke="#000000" stroke-width="1" stroke-opacity="0"></use></g></g><g><use xlink:href="#c35tOYtViD" opacity="1" fill="#000000" fill-opacity="1"></use><g><use xlink:href="#c35tOYtViD" opacity="1" fill-opacity="0" stroke="#000000" stroke-width="1" stroke-opacity="0"></use></g></g><g><use xlink:href="#aZg3gIQ2y" opacity="1" fill="#000000" fill-opacity="0"></use><g><use xlink:href="#aZg3gIQ2y" opacity="1" fill-opacity="0" stroke="#000000" stroke-width="1" stroke-opacity="0"></use></g></g><g><use xlink:href="#d2RcDvprAx" opacity="1" fill="#000000" fill-opacity="1"></use><g><use xlink:href="#d2RcDvprAx" opacity="1" fill-opacity="0" stroke="#000000" stroke-width="1" stroke-opacity="0"></use></g></g><g><use xlink:href="#bWSDpSdBH" opacity="1" fill="#000000" fill-opacity="0"></use><g><use xlink:href="#bWSDpSdBH" opacity="1" fill-opacity="0" stroke="#000000" stroke-width="1" stroke-opacity="0"></use></g></g><g><use xlink:href="#dEYqXQj9n" opacity="1" fill="#000000" fill-opacity="1"></use><g><use xlink:href="#dEYqXQj9n" opacity="1" fill-opacity="0" stroke="#000000" stroke-width="1" stroke-opacity="0"></use></g></g><g><use xlink:href="#a3k5LGKdm7" opacity="1" fill="#000000" fill-opacity="0"></use><g><use xlink:href="#a3k5LGKdm7" opacity="1" fill-opacity="0" stroke="#000000" stroke-width="1" stroke-opacity="0"></use></g></g></g></svg>