<svg width="8" height="8" viewBox="0 0 8 8" fill="none" xmlns="http://www.w3.org/2000/svg">
<path fill-rule="evenodd" clip-rule="evenodd" d="M0.175995 0.175995C0.410655 -0.058665 0.791114 -0.058665 1.02577 0.175995L4 3.15022L6.97423 0.175995C7.20889 -0.058665 7.58934 -0.058665 7.824 0.175995C8.05867 0.410655 8.05867 0.791114 7.824 1.02577L4.84978 4L7.824 6.97423C8.05867 7.20889 8.05867 7.58934 7.824 7.824C7.58934 8.05867 7.20889 8.05867 6.97423 7.824L4 4.84978L1.02577 7.824C0.791114 8.05867 0.410655 8.05867 0.175995 7.824C-0.058665 7.58934 -0.058665 7.20889 0.175995 6.97423L3.15022 4L0.175995 1.02577C-0.058665 0.791114 -0.058665 0.410655 0.175995 0.175995Z" fill="#fff"/>
</svg>
