<svg width="40" height="80" viewBox="0 0 40 80" fill="none" xmlns="http://www.w3.org/2000/svg">
<path d="M0.5 2C0.5 1.17157 1.17157 0.5 2 0.5H38C38.8284 0.5 39.5 1.17157 39.5 2V76.4593C39.5 77.6266 38.2254 78.3466 37.2257 77.744L21.2906 68.1393C20.4967 67.6608 19.5033 67.6608 18.7095 68.1393L2.77433 77.744C1.7746 78.3466 0.5 77.6266 0.5 76.4593V2Z" fill="#383F4C" stroke="#C2CFE0"/>
<path d="M24.9101 55.078L26.4649 52.5551L29.2707 51.5982L29.5816 48.6513L31.6926 46.5731L30.6889 43.7836L31.6926 40.9941L29.5816 38.9159L29.2708 35.9691L26.465 35.0122L24.9102 32.4892L21.9694 32.8443L19.4713 31.25L16.9731 32.8444L14.0324 32.4893L12.4776 35.0122L9.67184 35.9692L9.36099 38.916L7.25 40.9942L8.25366 43.7837L7.25 46.5732L9.36092 48.6514L9.67177 51.5983L12.4776 52.5552L14.0323 55.0781L16.9731 54.7231L19.4713 56.3174L21.9694 54.7231L24.9101 55.078ZM10.8764 43.7837C10.8764 39.0445 14.7321 35.1888 19.4713 35.1888C24.2105 35.1888 28.0662 39.0445 28.0662 43.7837C28.0662 48.5229 24.2105 52.3786 19.4713 52.3786C14.7321 52.3786 10.8764 48.5229 10.8764 43.7837Z" fill="white"/>
<path d="M19.4711 37.1823C15.831 37.1823 12.8696 40.1436 12.8696 43.7837C12.8696 47.4238 15.831 50.3851 19.4711 50.3851C23.1111 50.3851 26.0725 47.4238 26.0725 43.7837C26.0725 40.1436 23.1111 37.1823 19.4711 37.1823Z" fill="white"/>
</svg>
