<svg width="24" height="24" viewBox="0 0 24 24" fill="none" xmlns="http://www.w3.org/2000/svg">
<path d="M16.3601 14C16.4401 13.34 16.5001 12.68 16.5001 12C16.5001 11.32 16.4401 10.66 16.3601 10H19.7401C19.9001 10.64 20.0001 11.31 20.0001 12C20.0001 12.69 19.9001 13.36 19.7401 14H16.3601ZM14.5901 19.56C15.1901 18.45 15.6501 17.25 15.9701 16H18.9201C17.9512 17.6683 16.4142 18.932 14.5901 19.56ZM14.3401 14H9.66006C9.56006 13.34 9.50006 12.68 9.50006 12C9.50006 11.32 9.56006 10.65 9.66006 10H14.3401C14.4301 10.65 14.5001 11.32 14.5001 12C14.5001 12.68 14.4301 13.34 14.3401 14ZM12.0001 19.96C11.1701 18.76 10.5001 17.43 10.0901 16H13.9101C13.5001 17.43 12.8301 18.76 12.0001 19.96ZM8.00006 8H5.08006C6.03892 6.32721 7.57486 5.06149 9.40006 4.44C8.80006 5.55 8.35006 6.75 8.00006 8ZM5.08006 16H8.00006C8.35006 17.25 8.80006 18.45 9.40006 19.56C7.57868 18.9317 6.04491 17.6677 5.08006 16ZM4.26006 14C4.10006 13.36 4.00006 12.69 4.00006 12C4.00006 11.31 4.10006 10.64 4.26006 10H7.64006C7.56006 10.66 7.50006 11.32 7.50006 12C7.50006 12.68 7.56006 13.34 7.64006 14H4.26006ZM12.0001 4.03C12.8301 5.23 13.5001 6.57 13.9101 8H10.0901C10.5001 6.57 11.1701 5.23 12.0001 4.03ZM18.9201 8H15.9701C15.6571 6.76146 15.1936 5.5659 14.5901 4.44C16.4301 5.07 17.9601 6.34 18.9201 8ZM12.0001 2C6.47006 2 2.00006 6.5 2.00006 12C2.00006 14.6522 3.05363 17.1957 4.92899 19.0711C5.85758 19.9997 6.95997 20.7362 8.17323 21.2388C9.38648 21.7413 10.6868 22 12.0001 22C14.6522 22 17.1958 20.9464 19.0711 19.0711C20.9465 17.1957 22.0001 14.6522 22.0001 12C22.0001 10.6868 21.7414 9.38642 21.2389 8.17317C20.7363 6.95991 19.9997 5.85752 19.0711 4.92893C18.1425 4.00035 17.0402 3.26375 15.8269 2.7612C14.6136 2.25866 13.3133 2 12.0001 2Z" fill="black"/>
</svg>
