<svg width="20" height="20" viewBox="0 0 20 20" fill="none" xmlns="http://www.w3.org/2000/svg">
<g clip-path="url(#clip0)">
<path d="M14.5834 6.77083H16.6667C16.6667 3.81562 13.7969 2.46771 11.4584 2.15729V0H9.37502V2.15729C7.03648 2.46771 4.16669 3.81562 4.16669 6.77083C4.16669 9.58958 6.94377 11.0552 9.37502 11.3854V16.5625C7.86669 16.301 6.25002 15.4958 6.25002 14.0625H4.16669C4.16669 16.7594 6.69273 18.3531 9.37502 18.6833V20.8333H11.4584V18.6771C13.7969 18.3667 16.6667 17.0177 16.6667 14.0625C16.6667 11.1073 13.7969 9.75937 11.4584 9.44896V4.27083C12.8438 4.51979 14.5834 5.25104 14.5834 6.77083ZM6.25002 6.77083C6.25002 5.25104 7.9896 4.51979 9.37502 4.27083V9.26979C7.94689 9.00625 6.25002 8.22604 6.25002 6.77083ZM14.5834 14.0625C14.5834 15.5823 12.8438 16.3135 11.4584 16.5625V11.5625C12.8438 11.8115 14.5834 12.5427 14.5834 14.0625Z" fill="#383F4C"/>
</g>
<defs>
<clipPath id="clip0">
<rect width="20" height="20" fill="white"/>
</clipPath>
</defs>
</svg>
