<svg width="28" height="28" viewBox="0 0 28 28" fill="none" xmlns="http://www.w3.org/2000/svg">
<path d="M18.8454 16.3937C18.7434 16.0339 18.6196 15.7208 18.4742 15.4549C18.3289 15.1887 18.1208 14.9291 17.8495 14.6751C17.5785 14.4213 17.3347 14.2168 17.1185 14.0614C16.9025 13.9059 16.6057 13.732 16.2284 13.5395C15.8514 13.3471 15.5527 13.2039 15.3328 13.1097C15.1126 13.0157 14.7941 12.8868 14.3775 12.7231C14.0082 12.5758 13.7332 12.4633 13.5522 12.3856C13.3715 12.3078 13.1338 12.1973 12.8391 12.054C12.5444 11.9109 12.3243 11.784 12.1789 11.6735C12.0335 11.5631 11.8783 11.4281 11.7133 11.2685C11.5482 11.1089 11.4323 10.9391 11.3654 10.759C11.2987 10.579 11.2653 10.3825 11.2653 10.1697C11.2653 9.61324 11.501 9.15885 11.9725 8.80702C12.4441 8.45518 13.0533 8.27918 13.8 8.27918C14.1299 8.27918 14.4663 8.32618 14.808 8.42039C15.1496 8.51461 15.4424 8.62074 15.6861 8.7395C15.93 8.85827 16.1597 8.98925 16.376 9.1324C16.5921 9.27568 16.7453 9.38405 16.8358 9.45771C16.9262 9.53141 16.9834 9.58047 17.0068 9.60507C17.1091 9.6869 17.2149 9.7155 17.325 9.69103C17.4428 9.68286 17.5333 9.61728 17.5963 9.49464L18.5514 7.70219C18.6457 7.53857 18.6262 7.38304 18.4925 7.23563C18.4452 7.18653 18.3865 7.12929 18.3153 7.06376C18.2448 6.99823 18.0914 6.87959 17.8555 6.70763C17.6197 6.53579 17.3702 6.38232 17.1071 6.24726C16.8437 6.11232 16.5017 5.97515 16.0812 5.83608C15.6609 5.6968 15.2265 5.60276 14.7784 5.5537V3.39286C14.7784 3.27834 14.7431 3.18417 14.6726 3.11047C14.6019 3.03694 14.5115 3 14.4013 3H12.8096C12.7075 3 12.6191 3.03883 12.5444 3.11662C12.4697 3.19441 12.4324 3.28643 12.4324 3.39286V5.60272C11.1984 5.84817 10.1963 6.39656 9.42612 7.24776C8.65598 8.09901 8.27076 9.08919 8.27076 10.2188C8.27076 10.5543 8.30429 10.8735 8.3711 11.1762C8.43783 11.4791 8.52041 11.7513 8.61869 11.9927C8.71688 12.2343 8.85645 12.4716 9.03719 12.7049C9.21792 12.9381 9.38892 13.1387 9.55 13.3064C9.71116 13.474 9.92142 13.648 10.1807 13.828C10.4401 14.0082 10.6622 14.1536 10.8469 14.264C11.0317 14.3741 11.2773 14.5014 11.5837 14.6443C11.8902 14.7876 12.132 14.8959 12.3088 14.9697C12.4857 15.0433 12.7273 15.1457 13.034 15.2764C13.4583 15.4483 13.7728 15.5813 13.9771 15.6755C14.1816 15.7697 14.4408 15.9006 14.7554 16.0684C15.0697 16.236 15.2995 16.3895 15.445 16.5287C15.5904 16.6679 15.722 16.8398 15.8399 17.0444C15.9579 17.2489 16.017 17.4658 16.017 17.6951C16.017 18.3417 15.7753 18.8409 15.2918 19.1925C14.8085 19.5446 14.2484 19.7205 13.6118 19.7205C13.3213 19.7205 13.0303 19.688 12.7396 19.6225C11.7178 19.4095 10.763 18.8979 9.87484 18.0877L9.85127 18.0631C9.78049 17.9733 9.68614 17.9365 9.56837 17.9529C9.4426 17.9693 9.35217 18.0184 9.2972 18.1004L8.08288 19.7577C7.96495 19.9213 7.97292 20.0891 8.1065 20.261C8.14585 20.3101 8.2146 20.3839 8.3128 20.482C8.41124 20.5804 8.594 20.7336 8.86108 20.9427C9.12824 21.1515 9.41906 21.3477 9.7335 21.5321C10.0479 21.7162 10.4467 21.8982 10.9302 22.0783C11.4136 22.2582 11.9145 22.385 12.4333 22.4586V24.6071C12.4333 24.7136 12.4706 24.8056 12.5453 24.8834C12.62 24.9613 12.7083 25 12.8105 25H14.4021C14.5123 25 14.6028 24.9632 14.6734 24.8897C14.7441 24.8161 14.7793 24.7219 14.7793 24.6071V22.4586C16.0291 22.2459 17.045 21.6873 17.8269 20.7828C18.6089 19.8784 19 18.8 19 17.5479C18.9996 17.1387 18.9486 16.7541 18.8454 16.3937Z" fill="white"/>
</svg>
