<svg width="20" height="20" viewBox="0 0 20 20" fill="none" xmlns="http://www.w3.org/2000/svg">
<path d="M11.175 9.99999L14.7583 6.42499C14.9153 6.26807 15.0034 6.05524 15.0034 5.83333C15.0034 5.61141 14.9153 5.39858 14.7583 5.24166C14.6014 5.08474 14.3886 4.99658 14.1667 4.99658C13.9448 4.99658 13.7319 5.08474 13.575 5.24166L10 8.82499L6.42501 5.24166C6.26809 5.08474 6.05526 4.99658 5.83334 4.99658C5.61143 4.99658 5.3986 5.08474 5.24168 5.24166C5.08476 5.39858 4.9966 5.61141 4.9966 5.83333C4.9966 6.05524 5.08476 6.26807 5.24168 6.42499L8.82501 9.99999L5.24168 13.575C5.16357 13.6525 5.10157 13.7446 5.05927 13.8462C5.01696 13.9477 4.99518 14.0566 4.99518 14.1667C4.99518 14.2767 5.01696 14.3856 5.05927 14.4871C5.10157 14.5887 5.16357 14.6809 5.24168 14.7583C5.31915 14.8364 5.41131 14.8984 5.51286 14.9407C5.61441 14.983 5.72333 15.0048 5.83334 15.0048C5.94335 15.0048 6.05227 14.983 6.15382 14.9407C6.25537 14.8984 6.34754 14.8364 6.42501 14.7583L10 11.175L13.575 14.7583C13.6525 14.8364 13.7446 14.8984 13.8462 14.9407C13.9477 14.983 14.0567 15.0048 14.1667 15.0048C14.2767 15.0048 14.3856 14.983 14.4872 14.9407C14.5887 14.8984 14.6809 14.8364 14.7583 14.7583C14.8365 14.6809 14.8984 14.5887 14.9408 14.4871C14.9831 14.3856 15.0048 14.2767 15.0048 14.1667C15.0048 14.0566 14.9831 13.9477 14.9408 13.8462C14.8984 13.7446 14.8365 13.6525 14.7583 13.575L11.175 9.99999Z" fill="#383F4C"/>
</svg>
