<svg width="48" height="48" viewBox="0 0 48 48" fill="none" xmlns="http://www.w3.org/2000/svg">
<circle cx="24" cy="24" r="24" fill="#F5F5F5"/>
<path d="M24 14C20.13 14 17 17.13 17 21C17 25.17 21.42 30.92 23.24 33.11C23.64 33.59 24.37 33.59 24.77 33.11C26.58 30.92 31 25.17 31 21C31 17.13 27.87 14 24 14ZM24 23.5C23.337 23.5 22.7011 23.2366 22.2322 22.7678C21.7634 22.2989 21.5 21.663 21.5 21C21.5 20.337 21.7634 19.7011 22.2322 19.2322C22.7011 18.7634 23.337 18.5 24 18.5C24.663 18.5 25.2989 18.7634 25.7678 19.2322C26.2366 19.7011 26.5 20.337 26.5 21C26.5 21.663 26.2366 22.2989 25.7678 22.7678C25.2989 23.2366 24.663 23.5 24 23.5Z" fill="black"/>
</svg>
