<svg width="28" height="28" viewBox="0 0 28 28" fill="none" xmlns="http://www.w3.org/2000/svg">
<path d="M21.9095 8.34737H17.3845V6.55109C17.3845 5.69579 16.6781 5 15.8099 5H11.19C10.3218 5 9.6155 5.69579 9.6155 6.55109V8.34737H5.09054C3.93779 8.34737 3 9.27127 3 10.4069V20.9405C3 22.0761 3.93779 23 5.09054 23H21.9095C23.0622 23 24 22.0761 24 20.9405V10.4069C24 9.27127 23.0622 8.34737 21.9095 8.34737ZM10.9491 6.55109C10.9491 6.42024 11.0572 6.31382 11.19 6.31382H15.8099C15.9428 6.31382 16.0508 6.42028 16.0508 6.55109V8.34737H10.9491V6.55109ZM4.33363 10.4069C4.33363 9.99568 4.67316 9.66119 5.09054 9.66119H21.9095C22.3268 9.66119 22.6664 9.99568 22.6664 10.4069V11.3791C22.6664 12.2911 22.0457 13.106 21.1569 13.3609L14.1826 15.3614C13.7361 15.4895 13.264 15.4895 12.8173 15.3614L5.84313 13.3609C4.95435 13.106 4.33363 12.2911 4.33363 11.3791V10.4069ZM21.9095 21.6862H5.09054C4.6732 21.6862 4.33363 21.3517 4.33363 20.9406V14.0539C4.66966 14.3098 5.0527 14.5026 5.47029 14.6224C13.1744 16.8321 12.7785 16.7713 13.5 16.7713C14.231 16.7713 13.8165 16.8347 21.5297 14.6224C21.9473 14.5026 22.3303 14.3098 22.6663 14.0539V20.9405C22.6664 21.3517 22.3268 21.6862 21.9095 21.6862Z" fill="white"/>
</svg>
