<svg width="32" height="32" viewBox="0 0 32 32" fill="none" xmlns="http://www.w3.org/2000/svg">
<path d="M26.21 4.00003H5.79C5.32472 3.99723 4.87685 4.17673 4.54228 4.50008C4.20772 4.82343 4.01306 5.26493 4 5.73003V26.2C4.0105 26.666 4.20436 27.109 4.53948 27.4329C4.87461 27.7568 5.32396 27.9354 5.79 27.93H26.21C26.676 27.9354 27.1254 27.7568 27.4605 27.4329C27.7956 27.109 27.9895 26.666 28 26.2V5.73003C27.9869 5.26493 27.7923 4.82343 27.4577 4.50008C27.1232 4.17673 26.6753 3.99723 26.21 4.00003ZM11.11 24.41H7.59V13H11.11V24.41ZM9.39 11.41C8.84956 11.4102 8.33048 11.199 7.94369 10.8215C7.55689 10.4441 7.33305 9.93032 7.32 9.39003C7.31021 9.11556 7.35706 8.84202 7.45762 8.58645C7.55819 8.33087 7.71031 8.09875 7.90452 7.90455C8.09872 7.71035 8.33084 7.55822 8.58641 7.45766C8.84198 7.35709 9.11553 7.31025 9.39 7.32003C9.91284 7.35644 10.4024 7.58982 10.7599 7.97307C11.1174 8.35633 11.3162 8.86093 11.3162 9.38503C11.3162 9.90914 11.1174 10.4137 10.7599 10.797C10.4024 11.1802 9.91284 11.4136 9.39 11.45V11.41ZM24.48 24.34H21V18.76C21 17.43 21 15.7 19.14 15.7C17.28 15.7 17 17.16 17 18.63V24.28H13.44V13H16.76V14.5H16.83C17.1703 13.9091 17.6665 13.423 18.2643 13.095C18.8622 12.7669 19.5387 12.6096 20.22 12.64C23.81 12.64 24.48 15.04 24.48 18.09V24.34Z" fill="black"/>
</svg>
