<svg width="28" height="28" viewBox="0 0 28 28" fill="none" xmlns="http://www.w3.org/2000/svg">
<g clip-path="url(#clip0)">
<path d="M14.0037 13.9237C16.5191 13.9237 18.5656 11.8772 18.5656 9.36178C18.5656 6.84631 16.5191 4.7998 14.0037 4.7998C11.4882 4.7998 9.44165 6.84631 9.44165 9.36178C9.44165 11.8772 11.4882 13.9237 14.0037 13.9237ZM14.0037 6.44279C15.6132 6.44279 16.9227 7.75225 16.9227 9.36178C16.9227 10.9713 15.6132 12.2808 14.0037 12.2808C12.3941 12.2808 11.0846 10.9713 11.0846 9.36178C11.0846 7.75225 12.3942 6.44279 14.0037 6.44279Z" fill="white"/>
<path d="M22.7871 13.7589C24.6998 13.7589 26.256 12.2027 26.256 10.2901C26.256 8.37742 24.6998 6.82129 22.7871 6.82129C20.8744 6.82129 19.3184 8.37742 19.3184 10.2901C19.3184 12.2027 20.8744 13.7589 22.7871 13.7589ZM22.7871 8.46422C23.7939 8.46422 24.613 9.28331 24.613 10.29C24.613 11.2967 23.7939 12.1158 22.7871 12.1158C21.7804 12.1158 20.9613 11.2967 20.9613 10.29C20.9613 9.28331 21.7804 8.46422 22.7871 8.46422Z" fill="white"/>
<path d="M24.5056 14.708H21.0687C20.0781 14.708 19.1239 15.1564 18.458 15.8966C17.7445 15.5009 16.9242 15.2752 16.0521 15.2752H11.9549C11.0756 15.2752 10.249 15.5046 9.53135 15.9065C8.87843 15.1772 7.9422 14.7482 6.93121 14.7482H3.49441C1.56757 14.7482 0 16.3158 0 18.2426V19.5427C0 19.9963 0.36781 20.3642 0.821493 20.3642H6.97733V22.3781C6.97733 22.8318 7.34514 23.1996 7.79882 23.1996H20.2081C20.6618 23.1996 21.0296 22.8318 21.0296 22.3781V20.324H27.1785C27.6321 20.324 27.9999 19.9561 27.9999 19.5025V18.2025C28 16.2756 26.4324 14.708 24.5056 14.708ZM1.64299 18.2426C1.64299 17.2217 2.47352 16.3912 3.49441 16.3912H6.93127C7.4349 16.3912 7.90304 16.5928 8.245 16.9381C7.78803 17.4491 7.4349 18.0545 7.21879 18.7212H1.64299V18.2426ZM19.3866 21.5566H8.62031V20.2527C8.62031 18.414 10.1162 16.9182 11.9549 16.9182H16.0521C17.8908 16.9182 19.3867 18.414 19.3867 20.2527V21.5566H19.3866ZM26.357 18.6809H20.7751C20.5559 18.0239 20.2032 17.4274 19.7493 16.9238C20.1035 16.5691 20.5854 16.3509 21.0687 16.3509H24.5056C25.5265 16.3509 26.357 17.1815 26.357 18.2024V18.6809Z" fill="white"/>
<path d="M5.19223 13.7589C7.10494 13.7589 8.66101 12.2027 8.66101 10.2901C8.66101 8.37742 7.10494 6.82129 5.19223 6.82129C3.27952 6.82129 1.72339 8.37742 1.72339 10.2901C1.72339 12.2027 3.27952 13.7589 5.19223 13.7589ZM5.19223 8.46422C6.19899 8.46422 7.01802 9.28331 7.01802 10.29C7.01802 11.2967 6.19899 12.1158 5.19223 12.1158C4.18546 12.1158 3.36638 11.2967 3.36638 10.29C3.36638 9.28331 4.18546 8.46422 5.19223 8.46422Z" fill="white"/>
</g>
<defs>
<clipPath id="clip0">
<rect width="28" height="28" fill="white"/>
</clipPath>
</defs>
</svg>
