<svg width="16" height="16" viewBox="0 0 16 16" fill="none" xmlns="http://www.w3.org/2000/svg">
<path d="M7.52826 3.75749L7.99959 3.28616C8.62523 2.66203 9.47287 2.31152 10.3566 2.31152C11.2403 2.31152 12.088 2.66203 12.7136 3.28616C13.3374 3.91197 13.6877 4.75955 13.6877 5.64316C13.6877 6.52677 13.3374 7.37435 12.7136 8.00016L11.2989 9.41416C10.6703 10.0435 9.83292 10.3908 8.94226 10.3908C8.05159 10.3908 7.21426 10.0435 6.58559 9.41416L6.11426 8.94282L7.05692 8.00016L7.52826 8.47149C8.28359 9.22683 9.60092 9.22683 10.3563 8.47149L11.7709 7.05749C12.1453 6.68198 12.3555 6.17338 12.3555 5.64316C12.3555 5.11294 12.1453 4.60434 11.7709 4.22882C11.3952 3.85482 10.8867 3.64484 10.3566 3.64484C9.82648 3.64484 9.31794 3.85482 8.94226 4.22882L8.47092 4.70016L7.52826 3.75749Z" fill="#2B3940"/>
<path d="M8.94228 8.00004L8.47094 7.52871C7.71561 6.77338 6.39828 6.77338 5.64294 7.52871L4.22828 8.94271C3.85394 9.31822 3.64375 9.82682 3.64375 10.357C3.64375 10.8873 3.85394 11.3959 4.22828 11.7714C4.60396 12.1454 5.11249 12.3554 5.64261 12.3554C6.17272 12.3554 6.68126 12.1454 7.05694 11.7714L7.52828 11.3L8.47094 12.2427L7.99961 12.714C7.6903 13.0238 7.3228 13.2694 6.91824 13.4367C6.51369 13.604 6.08005 13.6896 5.64228 13.6887C5.20462 13.6895 4.77112 13.6038 4.36669 13.4365C3.96225 13.2693 3.59486 13.0237 3.28561 12.714C2.6618 12.0882 2.31152 11.2407 2.31152 10.357C2.31152 9.47343 2.6618 8.62585 3.28561 8.00004L4.70028 6.58604C5.32894 5.95671 6.16628 5.60938 7.05694 5.60938C7.94761 5.60938 8.78494 5.95671 9.41361 6.58604L9.88494 7.05738L8.94228 8.00004Z" fill="#2B3940"/>
</svg>
