<?xml version="1.0" encoding="UTF-8" standalone="no"?>
<!DOCTYPE svg PUBLIC "-//W3C//DTD SVG 1.1//EN" "http://www.w3.org/Graphics/SVG/1.1/DTD/svg11.dtd">
<svg version="1.1" xmlns="http://www.w3.org/2000/svg" xmlns:xlink="http://www.w3.org/1999/xlink" preserveAspectRatio="xMidYMid meet" viewBox="38.24239163875627 59.629313477150866 529.9989876715886 107.10746299455369" width="526" height="103.11"><defs><path d="M49.68 82.86C49.54 86.21 50.76 89.61 53.35 92.17C56.45 95.24 81.31 119.81 84.41 122.89C84.62 123.09 84.85 123.29 85.07 123.48C84.33 124.21 78.42 130.06 77.68 130.79C77.47 130.59 77.25 130.39 77.04 130.18C73.94 127.11 49.08 102.53 45.97 99.45C40.07 93.63 38.06 85.41 39.9 77.93C40.27 78.43 40.67 78.91 41.13 79.36C43.49 81.69 46.59 82.85 49.68 82.86Z" id="b4ROysn4H"></path><path d="M49.68 82.86C49.54 86.21 50.76 89.61 53.35 92.17C56.45 95.24 81.31 119.81 84.41 122.89C84.62 123.09 84.85 123.29 85.07 123.48C84.33 124.21 78.42 130.06 77.68 130.79C77.47 130.59 77.25 130.39 77.04 130.18C73.94 127.11 49.08 102.53 45.97 99.45C40.07 93.63 38.06 85.41 39.9 77.93C40.27 78.43 40.67 78.91 41.13 79.36C43.49 81.69 46.59 82.85 49.68 82.86Z" id="euyVuDAL4"></path><path d="M86.15 74.83C85.41 75.56 79.51 81.4 78.77 82.13C74.18 77.6 71.64 75.08 71.13 74.57C68.57 72.04 65.16 70.83 61.79 70.95C61.81 67.86 60.63 64.77 58.25 62.42C57.82 62 57.36 61.61 56.87 61.25C64.4 59.48 72.65 61.48 78.51 67.28C79.02 67.78 81.56 70.3 86.15 74.83Z" id="d2kbEQZVwl"></path><path d="M86.15 74.83C85.41 75.56 79.51 81.4 78.77 82.13C74.18 77.6 71.64 75.08 71.13 74.57C68.57 72.04 65.16 70.83 61.79 70.95C61.81 67.86 60.63 64.77 58.25 62.42C57.82 62 57.36 61.61 56.87 61.25C64.4 59.48 72.65 61.48 78.51 67.28C79.02 67.78 81.56 70.3 86.15 74.83Z" id="a12FYERX65"></path><path d="M39.67 70.89C39.67 76.37 44.15 80.81 49.69 80.81C55.22 80.81 59.71 76.37 59.71 70.89C59.71 65.42 55.22 60.98 49.69 60.98C44.15 60.98 39.67 65.42 39.67 70.89Z" id="c1JnQyYlBL"></path><path d="M39.67 70.89C39.67 76.37 44.15 80.81 49.69 80.81C55.22 80.81 59.71 76.37 59.71 70.89C59.71 65.42 55.22 60.98 49.69 60.98C44.15 60.98 39.67 65.42 39.67 70.89Z" id="a5RbLgQHqb"></path><path d="M120.97 70.95C117.58 70.82 114.15 72.04 111.58 74.61C108.48 77.69 83.73 102.37 80.64 105.45C80.43 105.67 80.23 105.88 80.04 106.1C79.29 105.38 73.36 99.55 72.62 98.82C72.82 98.61 73.02 98.4 73.23 98.18C76.33 95.1 101.08 70.42 104.17 67.34C110.04 61.49 118.36 59.46 125.92 61.26C125.41 61.62 124.94 62.03 124.48 62.48C122.13 64.81 120.96 67.88 120.97 70.95Z" id="e7e3WcpAvL"></path><path d="M120.97 70.95C117.58 70.82 114.15 72.04 111.58 74.61C108.48 77.69 83.73 102.37 80.64 105.45C80.43 105.67 80.23 105.88 80.04 106.1C79.29 105.38 73.36 99.55 72.62 98.82C72.82 98.61 73.02 98.4 73.23 98.18C76.33 95.1 101.08 70.42 104.17 67.34C110.04 61.49 118.36 59.46 125.92 61.26C125.41 61.62 124.94 62.03 124.48 62.48C122.13 64.81 120.96 67.88 120.97 70.95Z" id="aGLDL3rl9"></path><path d="M129.24 106.98C128.5 106.26 122.58 100.44 121.84 99.71C126.4 95.16 128.93 92.64 129.44 92.13C131.99 89.59 133.2 86.21 133.07 82.89C136.19 82.89 139.31 81.71 141.67 79.36C142.11 78.91 142.5 78.45 142.85 77.98C144.68 85.41 142.68 93.58 136.85 99.4C136.34 99.91 133.81 102.43 129.24 106.98Z" id="eiRTFfPam"></path><path d="M129.24 106.98C128.5 106.26 122.58 100.44 121.84 99.71C126.4 95.16 128.93 92.64 129.44 92.13C131.99 89.59 133.2 86.21 133.07 82.89C136.19 82.89 139.31 81.71 141.67 79.36C142.11 78.91 142.5 78.45 142.85 77.98C144.68 85.41 142.68 93.58 136.85 99.4C136.34 99.91 133.81 102.43 129.24 106.98Z" id="c48FWMBsV3"></path><path d="M123.06 70.91C123.06 76.39 127.55 80.82 133.08 80.82C138.62 80.82 143.1 76.39 143.1 70.91C143.1 65.44 138.62 61 133.08 61C127.55 61 123.06 65.44 123.06 70.91Z" id="a4mS5QZ8tS"></path><path d="M123.06 70.91C123.06 76.39 127.55 80.82 133.08 80.82C138.62 80.82 143.1 76.39 143.1 70.91C143.1 65.44 138.62 61 133.08 61C127.55 61 123.06 65.44 123.06 70.91Z" id="bcP0A2DCq"></path><path d="M61.72 153.41C65.11 153.55 68.55 152.34 71.13 149.78C74.23 146.71 99.09 122.14 102.19 119.06C102.4 118.86 102.61 118.64 102.8 118.41C103.54 119.15 109.45 124.99 110.19 125.72C109.99 125.93 109.78 126.15 109.57 126.35C106.47 129.42 81.61 154 78.51 157.07C72.61 162.91 64.3 164.9 56.74 163.08C57.24 162.72 57.73 162.32 58.17 161.86C60.53 159.53 61.71 156.47 61.72 153.41Z" id="aeBEudizJ"></path><path d="M61.72 153.41C65.11 153.55 68.55 152.34 71.13 149.78C74.23 146.71 99.09 122.14 102.19 119.06C102.4 118.86 102.61 118.64 102.8 118.41C103.54 119.15 109.45 124.99 110.19 125.72C109.99 125.93 109.78 126.15 109.57 126.35C106.47 129.42 81.61 154 78.51 157.07C72.61 162.91 64.3 164.9 56.74 163.08C57.24 162.72 57.73 162.32 58.17 161.86C60.53 159.53 61.71 156.47 61.72 153.41Z" id="b7ROmgKIF"></path><path d="M53.61 117.35C54.35 118.08 60.25 123.92 60.99 124.65C56.4 129.18 53.86 131.7 53.35 132.2C50.79 134.73 49.56 138.1 49.68 141.44C46.56 141.42 43.43 142.58 41.06 144.94C40.62 145.37 40.22 145.82 39.87 146.3C38.08 138.86 40.11 130.7 45.97 124.9C46.48 124.4 49.02 121.88 53.61 117.35Z" id="aPr6Xpc41"></path><path d="M53.61 117.35C54.35 118.08 60.25 123.92 60.99 124.65C56.4 129.18 53.86 131.7 53.35 132.2C50.79 134.73 49.56 138.1 49.68 141.44C46.56 141.42 43.43 142.58 41.06 144.94C40.62 145.37 40.22 145.82 39.87 146.3C38.08 138.86 40.11 130.7 45.97 124.9C46.48 124.4 49.02 121.88 53.61 117.35Z" id="b1eNhNmNKS"></path><path d="M39.59 153.4C39.59 158.87 44.08 163.31 49.62 163.31C55.15 163.31 59.64 158.87 59.64 153.4C59.64 147.93 55.15 143.49 49.62 143.49C44.08 143.49 39.59 147.93 39.59 153.4Z" id="bvBKKAZvq"></path><path d="M39.59 153.4C39.59 158.87 44.08 163.31 49.62 163.31C55.15 163.31 59.64 158.87 59.64 153.4C59.64 147.93 55.15 143.49 49.62 143.49C44.08 143.49 39.59 147.93 39.59 153.4Z" id="a1fY3J7msQ"></path><path d="M133.06 141.51C133.21 138.16 131.98 134.75 129.4 132.2C126.29 129.13 101.44 104.55 98.33 101.48C98.12 101.28 97.9 101.07 97.67 100.89C98.41 100.15 104.32 94.31 105.06 93.58C105.28 93.77 105.49 93.98 105.7 94.18C108.81 97.26 133.66 121.83 136.77 124.9C142.67 130.73 144.69 138.96 142.84 146.43C142.47 145.93 142.07 145.45 141.61 145.01C139.26 142.68 136.16 141.52 133.06 141.51Z" id="b22B0F6Kan"></path><path d="M133.06 141.51C133.21 138.16 131.98 134.75 129.4 132.2C126.29 129.13 101.44 104.55 98.33 101.48C98.12 101.28 97.9 101.07 97.67 100.89C98.41 100.15 104.32 94.31 105.06 93.58C105.28 93.77 105.49 93.98 105.7 94.18C108.81 97.26 133.66 121.83 136.77 124.9C142.67 130.73 144.69 138.96 142.84 146.43C142.47 145.93 142.07 145.45 141.61 145.01C139.26 142.68 136.16 141.52 133.06 141.51Z" id="a3HMY9tiR"></path><path d="M96.6 149.53C97.34 148.8 103.24 142.96 103.98 142.23C108.57 146.76 111.11 149.28 111.62 149.78C114.19 152.32 117.59 153.53 120.96 153.41C120.95 156.49 122.12 159.59 124.51 161.93C124.93 162.37 125.4 162.76 125.88 163.11C118.36 164.88 110.1 162.88 104.24 157.08C103.73 156.58 101.19 154.06 96.6 149.53Z" id="a3biimCIv"></path><path d="M96.6 149.53C97.34 148.8 103.24 142.96 103.98 142.23C108.57 146.76 111.11 149.28 111.62 149.78C114.19 152.32 117.59 153.53 120.96 153.41C120.95 156.49 122.12 159.59 124.51 161.93C124.93 162.37 125.4 162.76 125.88 163.11C118.36 164.88 110.1 162.88 104.24 157.08C103.73 156.58 101.19 154.06 96.6 149.53Z" id="dbEZfFBO1"></path><path d="M123.03 153.47C123.03 158.95 127.52 163.38 133.05 163.38C138.59 163.38 143.08 158.95 143.08 153.47C143.08 148 138.59 143.56 133.05 143.56C127.52 143.56 123.03 148 123.03 153.47Z" id="b8W3fYCQ4"></path><path d="M123.03 153.47C123.03 158.95 127.52 163.38 133.05 163.38C138.59 163.38 143.08 158.95 143.08 153.47C143.08 148 138.59 143.56 133.05 143.56C127.52 143.56 123.03 148 123.03 153.47Z" id="b2Qy7EhKml"></path><path d="M182.29 66.58C183.69 66.88 184.94 67.37 186.04 68.04C187.14 68.72 188.04 69.6 188.72 70.69C189.4 71.77 189.74 73.13 189.74 74.74C189.74 76.79 189.19 78.48 188.07 79.81C186.96 81.14 185.45 82.09 183.54 82.65C183.54 82.66 183.54 82.74 183.54 82.75C184.67 82.85 185.73 83.14 186.71 83.61C187.69 84.09 188.55 84.71 189.27 85.47C189.99 86.23 190.54 87.12 190.94 88.12C191.34 89.13 191.54 90.21 191.54 91.36C191.54 93.3 191.13 94.9 190.32 96.16C189.5 97.41 188.43 98.41 187.12 99.15C185.81 99.9 184.31 100.41 182.67 100.71C181.02 101 179.38 101.15 177.74 101.15C177.04 101.15 173.52 101.15 167.19 101.15C167.19 97.65 167.19 69.64 167.19 66.14C173.67 66.14 177.27 66.14 177.99 66.14C179.45 66.14 180.89 66.29 182.29 66.58ZM180.11 80.79C181.06 80.65 181.91 80.39 182.69 79.97C183.45 79.56 184.07 78.98 184.54 78.24C185.01 77.49 185.24 76.51 185.24 75.29C185.24 74.21 185.02 73.32 184.59 72.65C184.16 71.97 183.59 71.44 182.87 71.04C182.15 70.64 181.33 70.37 180.41 70.22C179.5 70.07 178.57 70 177.64 70C177.22 70 175.13 70 171.38 70C171.38 71.1 171.38 79.89 171.38 80.98C174.86 80.98 176.79 80.98 177.18 80.98C178.17 80.98 179.15 80.92 180.11 80.79ZM181.55 96.98C182.57 96.77 183.49 96.42 184.31 95.94C185.12 95.46 185.78 94.84 186.28 94.07C186.79 93.29 187.03 92.34 187.03 91.22C187.03 90.01 186.79 88.98 186.3 88.16C185.82 87.33 185.19 86.67 184.4 86.17C183.62 85.68 182.72 85.33 181.71 85.13C180.69 84.94 179.65 84.84 178.58 84.84C178.1 84.84 175.7 84.84 171.38 84.84C171.38 86.09 171.38 96.06 171.38 97.3C175.64 97.3 178.01 97.3 178.48 97.3C179.51 97.3 180.54 97.2 181.55 96.98Z" id="b8vEOVCGb"></path><path d="M182.29 66.58C183.69 66.88 184.94 67.37 186.04 68.04C187.14 68.72 188.04 69.6 188.72 70.69C189.4 71.77 189.74 73.13 189.74 74.74C189.74 76.79 189.19 78.48 188.07 79.81C186.96 81.14 185.45 82.09 183.54 82.65C183.54 82.66 183.54 82.74 183.54 82.75C184.67 82.85 185.73 83.14 186.71 83.61C187.69 84.09 188.55 84.71 189.27 85.47C189.99 86.23 190.54 87.12 190.94 88.12C191.34 89.13 191.54 90.21 191.54 91.36C191.54 93.3 191.13 94.9 190.32 96.16C189.5 97.41 188.43 98.41 187.12 99.15C185.81 99.9 184.31 100.41 182.67 100.71C181.02 101 179.38 101.15 177.74 101.15C177.04 101.15 173.52 101.15 167.19 101.15C167.19 97.65 167.19 69.64 167.19 66.14C173.67 66.14 177.27 66.14 177.99 66.14C179.45 66.14 180.89 66.29 182.29 66.58ZM180.11 80.79C181.06 80.65 181.91 80.39 182.69 79.97C183.45 79.56 184.07 78.98 184.54 78.24C185.01 77.49 185.24 76.51 185.24 75.29C185.24 74.21 185.02 73.32 184.59 72.65C184.16 71.97 183.59 71.44 182.87 71.04C182.15 70.64 181.33 70.37 180.41 70.22C179.5 70.07 178.57 70 177.64 70C177.22 70 175.13 70 171.38 70C171.38 71.1 171.38 79.89 171.38 80.98C174.86 80.98 176.79 80.98 177.18 80.98C178.17 80.98 179.15 80.92 180.11 80.79ZM181.55 96.98C182.57 96.77 183.49 96.42 184.31 95.94C185.12 95.46 185.78 94.84 186.28 94.07C186.79 93.29 187.03 92.34 187.03 91.22C187.03 90.01 186.79 88.98 186.3 88.16C185.82 87.33 185.19 86.67 184.4 86.17C183.62 85.68 182.72 85.33 181.71 85.13C180.69 84.94 179.65 84.84 178.58 84.84C178.1 84.84 175.7 84.84 171.38 84.84C171.38 86.09 171.38 96.06 171.38 97.3C175.64 97.3 178.01 97.3 178.48 97.3C179.51 97.3 180.54 97.2 181.55 96.98Z" id="b7reMoeXfS"></path><path d="M202.48 97.29L218.68 97.29L218.68 101.15L198.28 101.15L198.28 66.14L202.48 66.14L202.48 97.29Z" id="a3OOsbM0b"></path><path d="M202.48 97.29L218.68 97.29L218.68 101.15L198.28 101.15L198.28 66.14L202.48 66.14L202.48 97.29Z" id="e2hbxXqYY"></path><path d="M253.8 101.15L248.91 101.15L245.3 92.55L227.59 92.55L223.94 101.15L219.19 101.15L234.79 66.14L238.75 66.14L253.8 101.15ZM229.25 88.69L243.7 88.69L236.7 71.48L236.6 71.48L229.25 88.69Z" id="a79UYy4AM2"></path><path d="M253.8 101.15L248.91 101.15L245.3 92.55L227.59 92.55L223.94 101.15L219.19 101.15L234.79 66.14L238.75 66.14L253.8 101.15ZM229.25 88.69L243.7 88.69L236.7 71.48L236.6 71.48L229.25 88.69Z" id="c4cortxvIw"></path><path d="M274.46 69.11C272.49 69.11 270.69 69.51 269.03 70.3C267.38 71.09 265.96 72.16 264.75 73.49C263.56 74.82 262.62 76.38 261.95 78.14C261.28 79.9 260.95 81.74 260.95 83.65C260.95 85.69 261.28 87.6 261.95 89.37C262.61 91.13 263.54 92.66 264.73 93.96C265.91 95.27 267.32 96.29 268.98 97.05C270.63 97.81 272.46 98.19 274.45 98.19C276.62 98.19 278.55 97.77 280.25 96.93C281.95 96.09 283.43 94.88 284.7 93.29C285.02 93.56 287.54 95.65 287.85 95.92C286.25 98.02 284.33 99.58 282.07 100.57C279.83 101.55 277.28 102.05 274.44 102.05C271.91 102.05 269.54 101.59 267.34 100.66C265.14 99.74 263.23 98.46 261.62 96.83C260 95.2 258.73 93.26 257.81 91.02C256.9 88.78 256.44 86.32 256.44 83.65C256.44 81.08 256.88 78.67 257.76 76.43C258.64 74.19 259.88 72.25 261.49 70.59C263.09 68.95 264.99 67.64 267.19 66.68C269.39 65.72 271.81 65.25 274.44 65.25C276.84 65.25 279.15 65.68 281.37 66.54C283.59 67.39 285.45 68.8 286.95 70.74C286.7 70.92 285.49 71.79 283.32 73.37C281.73 71.71 280.41 70.65 279.36 70.17C277.8 69.46 276.16 69.11 274.46 69.11Z" id="bP4Wx2Ers"></path><path d="M274.46 69.11C272.49 69.11 270.69 69.51 269.03 70.3C267.38 71.09 265.96 72.16 264.75 73.49C263.56 74.82 262.62 76.38 261.95 78.14C261.28 79.9 260.95 81.74 260.95 83.65C260.95 85.69 261.28 87.6 261.95 89.37C262.61 91.13 263.54 92.66 264.73 93.96C265.91 95.27 267.32 96.29 268.98 97.05C270.63 97.81 272.46 98.19 274.45 98.19C276.62 98.19 278.55 97.77 280.25 96.93C281.95 96.09 283.43 94.88 284.7 93.29C285.02 93.56 287.54 95.65 287.85 95.92C286.25 98.02 284.33 99.58 282.07 100.57C279.83 101.55 277.28 102.05 274.44 102.05C271.91 102.05 269.54 101.59 267.34 100.66C265.14 99.74 263.23 98.46 261.62 96.83C260 95.2 258.73 93.26 257.81 91.02C256.9 88.78 256.44 86.32 256.44 83.65C256.44 81.08 256.88 78.67 257.76 76.43C258.64 74.19 259.88 72.25 261.49 70.59C263.09 68.95 264.99 67.64 267.19 66.68C269.39 65.72 271.81 65.25 274.44 65.25C276.84 65.25 279.15 65.68 281.37 66.54C283.59 67.39 285.45 68.8 286.95 70.74C286.7 70.92 285.49 71.79 283.32 73.37C281.73 71.71 280.41 70.65 279.36 70.17C277.8 69.46 276.16 69.11 274.46 69.11Z" id="a1MO7RsHdN"></path><path d="M297.91 81.28L298.52 81.28L314.62 66.14L320.67 66.14L303.17 82.12L321.53 101.16L315.38 101.16L298.52 83.36L297.92 83.36L297.92 101.16L293.72 101.16L293.72 66.14L297.91 66.14L297.91 81.28Z" id="b24UuyQVJA"></path><path d="M297.91 81.28L298.52 81.28L314.62 66.14L320.67 66.14L303.17 82.12L321.53 101.16L315.38 101.16L298.52 83.36L297.92 83.36L297.92 101.16L293.72 101.16L293.72 66.14L297.91 66.14L297.91 81.28Z" id="crVOQO8IW"></path><path d="M354.24 66.58C355.64 66.88 356.89 67.37 357.99 68.04C359.08 68.72 359.98 69.6 360.67 70.69C361.35 71.77 361.69 73.13 361.69 74.74C361.69 76.79 361.13 78.48 360.02 79.81C358.9 81.14 357.39 82.09 355.49 82.65C355.49 82.66 355.49 82.74 355.49 82.75C356.62 82.85 357.68 83.14 358.66 83.61C359.64 84.09 360.5 84.71 361.21 85.47C361.93 86.23 362.49 87.12 362.89 88.12C363.29 89.13 363.49 90.21 363.49 91.36C363.49 93.3 363.08 94.9 362.27 96.16C361.45 97.41 360.38 98.41 359.07 99.15C357.75 99.9 356.26 100.41 354.62 100.71C352.96 101 351.33 101.15 349.69 101.15C348.99 101.15 345.47 101.15 339.13 101.15C339.13 97.65 339.13 69.64 339.13 66.14C345.61 66.14 349.21 66.14 349.93 66.14C351.4 66.14 352.84 66.29 354.24 66.58ZM352.06 80.79C353.02 80.65 353.87 80.39 354.64 79.97C355.41 79.56 356.03 78.98 356.5 78.24C356.96 77.49 357.2 76.51 357.2 75.29C357.2 74.21 356.98 73.32 356.55 72.65C356.12 71.97 355.54 71.44 354.82 71.04C354.1 70.64 353.29 70.37 352.37 70.22C351.45 70.07 350.53 70 349.59 70C349.17 70 347.09 70 343.34 70C343.34 71.1 343.34 79.89 343.34 80.98C346.81 80.98 348.75 80.98 349.13 80.98C350.13 80.98 351.11 80.92 352.06 80.79ZM353.51 96.98C354.53 96.77 355.44 96.42 356.26 95.94C357.08 95.46 357.74 94.84 358.24 94.07C358.74 93.29 358.99 92.34 358.99 91.22C358.99 90.01 358.74 88.98 358.26 88.16C357.77 87.33 357.14 86.67 356.36 86.17C355.58 85.68 354.68 85.33 353.66 85.13C352.65 84.94 351.61 84.84 350.54 84.84C350.06 84.84 347.66 84.84 343.34 84.84C343.34 86.09 343.34 96.06 343.34 97.3C347.6 97.3 349.96 97.3 350.44 97.3C351.47 97.3 352.5 97.2 353.51 96.98Z" id="ac0VTXD2nc"></path><path d="M354.24 66.58C355.64 66.88 356.89 67.37 357.99 68.04C359.08 68.72 359.98 69.6 360.67 70.69C361.35 71.77 361.69 73.13 361.69 74.74C361.69 76.79 361.13 78.48 360.02 79.81C358.9 81.14 357.39 82.09 355.49 82.65C355.49 82.66 355.49 82.74 355.49 82.75C356.62 82.85 357.68 83.14 358.66 83.61C359.64 84.09 360.5 84.71 361.21 85.47C361.93 86.23 362.49 87.12 362.89 88.12C363.29 89.13 363.49 90.21 363.49 91.36C363.49 93.3 363.08 94.9 362.27 96.16C361.45 97.41 360.38 98.41 359.07 99.15C357.75 99.9 356.26 100.41 354.62 100.71C352.96 101 351.33 101.15 349.69 101.15C348.99 101.15 345.47 101.15 339.13 101.15C339.13 97.65 339.13 69.64 339.13 66.14C345.61 66.14 349.21 66.14 349.93 66.14C351.4 66.14 352.84 66.29 354.24 66.58ZM352.06 80.79C353.02 80.65 353.87 80.39 354.64 79.97C355.41 79.56 356.03 78.98 356.5 78.24C356.96 77.49 357.2 76.51 357.2 75.29C357.2 74.21 356.98 73.32 356.55 72.65C356.12 71.97 355.54 71.44 354.82 71.04C354.1 70.64 353.29 70.37 352.37 70.22C351.45 70.07 350.53 70 349.59 70C349.17 70 347.09 70 343.34 70C343.34 71.1 343.34 79.89 343.34 80.98C346.81 80.98 348.75 80.98 349.13 80.98C350.13 80.98 351.11 80.92 352.06 80.79ZM353.51 96.98C354.53 96.77 355.44 96.42 356.26 95.94C357.08 95.46 357.74 94.84 358.24 94.07C358.74 93.29 358.99 92.34 358.99 91.22C358.99 90.01 358.74 88.98 358.26 88.16C357.77 87.33 357.14 86.67 356.36 86.17C355.58 85.68 354.68 85.33 353.66 85.13C352.65 84.94 351.61 84.84 350.54 84.84C350.06 84.84 347.66 84.84 343.34 84.84C343.34 86.09 343.34 96.06 343.34 97.3C347.6 97.3 349.96 97.3 350.44 97.3C351.47 97.3 352.5 97.2 353.51 96.98Z" id="asjgglZYj"></path><path d="M394.17 97.77C393.12 99.07 391.74 100.1 390.04 100.89C388.34 101.67 386.28 102.05 383.84 102.05C381.4 102.05 379.34 101.66 377.64 100.89C375.94 100.11 374.56 99.07 373.51 97.77C372.46 96.47 371.7 94.96 371.21 93.24C370.73 91.53 370.48 89.71 370.48 87.8C370.48 86.36 370.48 79.14 370.48 66.14C370.9 66.14 374.26 66.14 374.68 66.14C374.68 78.78 374.68 85.8 374.68 87.21C374.68 88.63 374.83 89.99 375.13 91.31C375.43 92.63 375.93 93.8 376.63 94.82C377.33 95.85 378.27 96.66 379.44 97.27C380.6 97.88 382.07 98.18 383.84 98.18C385.61 98.18 387.08 97.88 388.24 97.27C389.41 96.65 390.35 95.85 391.05 94.82C391.75 93.8 392.25 92.63 392.55 91.31C392.85 90 393 88.63 393 87.21C393 85.8 393 78.78 393 66.14C393.28 66.14 394.68 66.14 397.2 66.14C397.2 79.14 397.2 86.36 397.2 87.8C397.04 90.28 396.79 92.1 396.47 93.24C395.98 94.96 395.22 96.47 394.17 97.77Z" id="atAK3CVP6"></path><path d="M394.17 97.77C393.12 99.07 391.74 100.1 390.04 100.89C388.34 101.67 386.28 102.05 383.84 102.05C381.4 102.05 379.34 101.66 377.64 100.89C375.94 100.11 374.56 99.07 373.51 97.77C372.46 96.47 371.7 94.96 371.21 93.24C370.73 91.53 370.48 89.71 370.48 87.8C370.48 86.36 370.48 79.14 370.48 66.14C370.9 66.14 374.26 66.14 374.68 66.14C374.68 78.78 374.68 85.8 374.68 87.21C374.68 88.63 374.83 89.99 375.13 91.31C375.43 92.63 375.93 93.8 376.63 94.82C377.33 95.85 378.27 96.66 379.44 97.27C380.6 97.88 382.07 98.18 383.84 98.18C385.61 98.18 387.08 97.88 388.24 97.27C389.41 96.65 390.35 95.85 391.05 94.82C391.75 93.8 392.25 92.63 392.55 91.31C392.85 90 393 88.63 393 87.21C393 85.8 393 78.78 393 66.14C393.28 66.14 394.68 66.14 397.2 66.14C397.2 79.14 397.2 86.36 397.2 87.8C397.04 90.28 396.79 92.1 396.47 93.24C395.98 94.96 395.22 96.47 394.17 97.77Z" id="a6mXTur2e1"></path><path d="M416.2 69.12C415.27 69.12 414.35 69.23 413.45 69.46C412.55 69.69 411.74 70.04 411.02 70.5C410.3 70.97 409.73 71.58 409.3 72.33C408.87 73.09 408.65 73.98 408.65 75C408.65 75.79 408.78 76.49 409.03 77.1C409.28 77.71 409.68 78.26 410.25 78.75C410.82 79.25 411.58 79.71 412.55 80.14C413.52 80.57 414.7 81 416.1 81.43C417.47 81.85 418.8 82.32 420.08 82.81C421.36 83.31 422.49 83.93 423.47 84.69C424.45 85.45 425.24 86.4 425.83 87.53C426.41 88.67 426.7 90.09 426.7 91.81C426.7 93.56 426.35 95.07 425.65 96.36C424.95 97.65 424.02 98.71 422.87 99.55C421.72 100.4 420.4 101.02 418.9 101.43C417.4 101.84 415.85 102.05 414.25 102.05C413.22 102.05 412.18 101.96 411.15 101.77C410.12 101.6 409.13 101.31 408.17 100.93C407.22 100.55 406.33 100.06 405.5 99.45C404.66 98.83 403.95 98.09 403.35 97.2C403.71 96.91 406.59 94.57 406.95 94.28C407.72 95.57 408.79 96.54 410.15 97.2C411.52 97.85 412.96 98.18 414.5 98.18C415.4 98.18 416.31 98.05 417.23 97.78C418.14 97.52 418.97 97.13 419.7 96.62C420.43 96.11 421.03 95.47 421.5 94.72C421.96 93.96 422.2 93.08 422.2 92.09C422.2 91.01 422.01 90.12 421.65 89.45C421.28 88.77 420.71 88.18 419.95 87.69C419.19 87.19 418.21 86.74 417.05 86.35C415.88 85.95 414.51 85.5 412.95 84.97C411.68 84.57 410.51 84.12 409.44 83.61C408.37 83.1 407.45 82.47 406.66 81.73C405.88 80.99 405.26 80.09 404.81 79.06C404.36 78.03 404.14 76.78 404.14 75.33C404.14 73.65 404.47 72.18 405.14 70.93C405.8 69.68 406.7 68.63 407.83 67.79C408.96 66.95 410.25 66.32 411.68 65.89C413.11 65.46 414.61 65.25 416.18 65.25C418.19 65.25 420.01 65.55 421.66 66.17C423.31 66.78 424.79 67.84 426.08 69.36C425.85 69.55 424.71 70.54 422.66 72.33C421.56 71.03 420.63 70.22 419.85 69.88C418.68 69.37 417.47 69.12 416.2 69.12Z" id="d1oT4KSWSg"></path><path d="M416.2 69.12C415.27 69.12 414.35 69.23 413.45 69.46C412.55 69.69 411.74 70.04 411.02 70.5C410.3 70.97 409.73 71.58 409.3 72.33C408.87 73.09 408.65 73.98 408.65 75C408.65 75.79 408.78 76.49 409.03 77.1C409.28 77.71 409.68 78.26 410.25 78.75C410.82 79.25 411.58 79.71 412.55 80.14C413.52 80.57 414.7 81 416.1 81.43C417.47 81.85 418.8 82.32 420.08 82.81C421.36 83.31 422.49 83.93 423.47 84.69C424.45 85.45 425.24 86.4 425.83 87.53C426.41 88.67 426.7 90.09 426.7 91.81C426.7 93.56 426.35 95.07 425.65 96.36C424.95 97.65 424.02 98.71 422.87 99.55C421.72 100.4 420.4 101.02 418.9 101.43C417.4 101.84 415.85 102.05 414.25 102.05C413.22 102.05 412.18 101.96 411.15 101.77C410.12 101.6 409.13 101.31 408.17 100.93C407.22 100.55 406.33 100.06 405.5 99.45C404.66 98.83 403.95 98.09 403.35 97.2C403.71 96.91 406.59 94.57 406.95 94.28C407.72 95.57 408.79 96.54 410.15 97.2C411.52 97.85 412.96 98.18 414.5 98.18C415.4 98.18 416.31 98.05 417.23 97.78C418.14 97.52 418.97 97.13 419.7 96.62C420.43 96.11 421.03 95.47 421.5 94.72C421.96 93.96 422.2 93.08 422.2 92.09C422.2 91.01 422.01 90.12 421.65 89.45C421.28 88.77 420.71 88.18 419.95 87.69C419.19 87.19 418.21 86.74 417.05 86.35C415.88 85.95 414.51 85.5 412.95 84.97C411.68 84.57 410.51 84.12 409.44 83.61C408.37 83.1 407.45 82.47 406.66 81.73C405.88 80.99 405.26 80.09 404.81 79.06C404.36 78.03 404.14 76.78 404.14 75.33C404.14 73.65 404.47 72.18 405.14 70.93C405.8 69.68 406.7 68.63 407.83 67.79C408.96 66.95 410.25 66.32 411.68 65.89C413.11 65.46 414.61 65.25 416.18 65.25C418.19 65.25 420.01 65.55 421.66 66.17C423.31 66.78 424.79 67.84 426.08 69.36C425.85 69.55 424.71 70.54 422.66 72.33C421.56 71.03 420.63 70.22 419.85 69.88C418.68 69.37 417.47 69.12 416.2 69.12Z" id="k1nAVL8fFv"></path><path d="M437.86 101.15L433.66 101.15L433.66 66.14L437.86 66.14L437.86 101.15Z" id="b3chFvS9dG"></path><path d="M437.86 101.15L433.66 101.15L433.66 66.14L437.86 66.14L437.86 101.15Z" id="d5flwa3Ce"></path><path d="M472.47 95.22L472.57 95.22L472.57 66.14L476.77 66.14L476.77 101.15L471.47 101.15L450.96 72.07L450.86 72.07L450.86 101.15L446.67 101.15L446.67 66.14L451.97 66.14L472.47 95.22Z" id="cwyRQciTa"></path><path d="M472.47 95.22L472.57 95.22L472.57 66.14L476.77 66.14L476.77 101.15L471.47 101.15L450.96 72.07L450.86 72.07L450.86 101.15L446.67 101.15L446.67 66.14L451.97 66.14L472.47 95.22Z" id="h16wM2hHJl"></path><path d="M507.84 70L489.78 70L489.78 80.97L506.63 80.97L506.63 84.83L489.78 84.83L489.78 97.29L508.73 97.29L508.73 101.15L485.58 101.15L485.58 66.14L507.84 66.14L507.84 70Z" id="f1oELwG0pA"></path><path d="M507.84 70L489.78 70L489.78 80.97L506.63 80.97L506.63 84.83L489.78 84.83L489.78 97.29L508.73 97.29L508.73 101.15L485.58 101.15L485.58 66.14L507.84 66.14L507.84 70Z" id="ayhTxnN9O"></path><path d="M525.59 69.12C524.65 69.12 523.74 69.23 522.84 69.46C521.94 69.69 521.13 70.04 520.41 70.5C519.69 70.97 519.12 71.58 518.69 72.33C518.25 73.09 518.04 73.98 518.04 75C518.04 75.79 518.16 76.49 518.42 77.1C518.67 77.71 519.07 78.26 519.64 78.75C520.2 79.25 520.97 79.71 521.94 80.14C522.91 80.57 524.09 81 525.49 81.43C526.86 81.85 528.19 82.32 529.46 82.81C530.75 83.31 531.88 83.93 532.86 84.69C533.84 85.45 534.63 86.4 535.22 87.53C535.8 88.67 536.09 90.09 536.09 91.81C536.09 93.56 535.74 95.07 535.04 96.36C534.34 97.65 533.41 98.71 532.26 99.55C531.11 100.4 529.79 101.02 528.29 101.43C526.78 101.84 525.24 102.05 523.64 102.05C522.6 102.05 521.57 101.96 520.54 101.77C519.5 101.6 518.51 101.31 517.56 100.93C516.61 100.55 515.72 100.06 514.88 99.45C514.05 98.83 513.34 98.09 512.73 97.2C513.1 96.91 515.98 94.57 516.34 94.28C517.1 95.57 518.17 96.54 519.54 97.2C520.91 97.85 522.35 98.18 523.89 98.18C524.79 98.18 525.7 98.05 526.61 97.78C527.53 97.52 528.36 97.13 529.09 96.62C529.82 96.11 530.42 95.47 530.88 94.72C531.35 93.96 531.58 93.08 531.58 92.09C531.58 91.01 531.4 90.12 531.04 89.45C530.67 88.77 530.1 88.18 529.34 87.69C528.57 87.19 527.6 86.74 526.43 86.35C525.27 85.95 523.9 85.5 522.34 84.97C521.07 84.57 519.9 84.12 518.83 83.61C517.76 83.1 516.83 82.47 516.05 81.73C515.27 80.99 514.65 80.09 514.2 79.06C513.75 78.03 513.53 76.78 513.53 75.33C513.53 73.65 513.86 72.18 514.52 70.93C515.19 69.68 516.09 68.63 517.22 67.79C518.35 66.95 519.64 66.32 521.07 65.89C522.5 65.46 524 65.25 525.57 65.25C527.58 65.25 529.4 65.55 531.05 66.17C532.7 66.78 534.17 67.84 535.47 69.36C535.24 69.55 534.1 70.54 532.04 72.33C530.95 71.03 530.02 70.22 529.24 69.88C528.07 69.37 526.86 69.12 525.59 69.12Z" id="b2OLqC9b8G"></path><path d="M525.59 69.12C524.65 69.12 523.74 69.23 522.84 69.46C521.94 69.69 521.13 70.04 520.41 70.5C519.69 70.97 519.12 71.58 518.69 72.33C518.25 73.09 518.04 73.98 518.04 75C518.04 75.79 518.16 76.49 518.42 77.1C518.67 77.71 519.07 78.26 519.64 78.75C520.2 79.25 520.97 79.71 521.94 80.14C522.91 80.57 524.09 81 525.49 81.43C526.86 81.85 528.19 82.32 529.46 82.81C530.75 83.31 531.88 83.93 532.86 84.69C533.84 85.45 534.63 86.4 535.22 87.53C535.8 88.67 536.09 90.09 536.09 91.81C536.09 93.56 535.74 95.07 535.04 96.36C534.34 97.65 533.41 98.71 532.26 99.55C531.11 100.4 529.79 101.02 528.29 101.43C526.78 101.84 525.24 102.05 523.64 102.05C522.6 102.05 521.57 101.96 520.54 101.77C519.5 101.6 518.51 101.31 517.56 100.93C516.61 100.55 515.72 100.06 514.88 99.45C514.05 98.83 513.34 98.09 512.73 97.2C513.1 96.91 515.98 94.57 516.34 94.28C517.1 95.57 518.17 96.54 519.54 97.2C520.91 97.85 522.35 98.18 523.89 98.18C524.79 98.18 525.7 98.05 526.61 97.78C527.53 97.52 528.36 97.13 529.09 96.62C529.82 96.11 530.42 95.47 530.88 94.72C531.35 93.96 531.58 93.08 531.58 92.09C531.58 91.01 531.4 90.12 531.04 89.45C530.67 88.77 530.1 88.18 529.34 87.69C528.57 87.19 527.6 86.74 526.43 86.35C525.27 85.95 523.9 85.5 522.34 84.97C521.07 84.57 519.9 84.12 518.83 83.61C517.76 83.1 516.83 82.47 516.05 81.73C515.27 80.99 514.65 80.09 514.2 79.06C513.75 78.03 513.53 76.78 513.53 75.33C513.53 73.65 513.86 72.18 514.52 70.93C515.19 69.68 516.09 68.63 517.22 67.79C518.35 66.95 519.64 66.32 521.07 65.89C522.5 65.46 524 65.25 525.57 65.25C527.58 65.25 529.4 65.55 531.05 66.17C532.7 66.78 534.17 67.84 535.47 69.36C535.24 69.55 534.1 70.54 532.04 72.33C530.95 71.03 530.02 70.22 529.24 69.88C528.07 69.37 526.86 69.12 525.59 69.12Z" id="gmQfjFUQ3"></path><path d="M553.4 69.12C552.47 69.12 551.55 69.23 550.65 69.46C549.75 69.69 548.94 70.04 548.22 70.5C547.5 70.97 546.93 71.58 546.5 72.33C546.07 73.09 545.85 73.98 545.85 75C545.85 75.79 545.98 76.49 546.23 77.1C546.48 77.71 546.88 78.26 547.45 78.75C548.02 79.25 548.78 79.71 549.75 80.14C550.72 80.57 551.9 81 553.3 81.43C554.67 81.85 556 82.32 557.28 82.81C558.56 83.31 559.69 83.93 560.67 84.69C561.65 85.45 562.44 86.4 563.03 87.53C563.61 88.67 563.9 90.09 563.9 91.81C563.9 93.56 563.55 95.07 562.85 96.36C562.15 97.65 561.22 98.71 560.07 99.55C558.92 100.4 557.6 101.02 556.1 101.43C554.6 101.84 553.05 102.05 551.45 102.05C550.42 102.05 549.38 101.96 548.35 101.77C547.32 101.6 546.33 101.31 545.37 100.93C544.42 100.55 543.53 100.06 542.7 99.45C541.86 98.83 541.15 98.09 540.55 97.2C540.91 96.91 543.79 94.57 544.15 94.28C544.92 95.57 545.99 96.54 547.35 97.2C548.72 97.85 550.17 98.18 551.7 98.18C552.6 98.18 553.51 98.05 554.43 97.78C555.34 97.52 556.17 97.13 556.9 96.62C557.64 96.11 558.23 95.47 558.7 94.72C559.16 93.96 559.4 93.08 559.4 92.09C559.4 91.01 559.21 90.12 558.85 89.45C558.48 88.77 557.91 88.18 557.15 87.69C556.39 87.19 555.41 86.74 554.25 86.35C553.08 85.95 551.71 85.5 550.15 84.97C548.88 84.57 547.71 84.12 546.64 83.61C545.57 83.1 544.65 82.47 543.86 81.73C543.08 80.99 542.46 80.09 542.01 79.06C541.56 78.03 541.34 76.78 541.34 75.33C541.34 73.65 541.67 72.18 542.34 70.93C543 69.68 543.9 68.63 545.03 67.79C546.17 66.95 547.45 66.32 548.88 65.89C550.31 65.46 551.81 65.25 553.38 65.25C555.39 65.25 557.21 65.55 558.86 66.17C560.51 66.78 561.99 67.84 563.28 69.36C563.05 69.55 561.91 70.54 559.86 72.33C558.76 71.03 557.83 70.22 557.05 69.88C555.88 69.37 554.67 69.12 553.4 69.12Z" id="bA7bxLOIi"></path><path d="M553.4 69.12C552.47 69.12 551.55 69.23 550.65 69.46C549.75 69.69 548.94 70.04 548.22 70.5C547.5 70.97 546.93 71.58 546.5 72.33C546.07 73.09 545.85 73.98 545.85 75C545.85 75.79 545.98 76.49 546.23 77.1C546.48 77.71 546.88 78.26 547.45 78.75C548.02 79.25 548.78 79.71 549.75 80.14C550.72 80.57 551.9 81 553.3 81.43C554.67 81.85 556 82.32 557.28 82.81C558.56 83.31 559.69 83.93 560.67 84.69C561.65 85.45 562.44 86.4 563.03 87.53C563.61 88.67 563.9 90.09 563.9 91.81C563.9 93.56 563.55 95.07 562.85 96.36C562.15 97.65 561.22 98.71 560.07 99.55C558.92 100.4 557.6 101.02 556.1 101.43C554.6 101.84 553.05 102.05 551.45 102.05C550.42 102.05 549.38 101.96 548.35 101.77C547.32 101.6 546.33 101.31 545.37 100.93C544.42 100.55 543.53 100.06 542.7 99.45C541.86 98.83 541.15 98.09 540.55 97.2C540.91 96.91 543.79 94.57 544.15 94.28C544.92 95.57 545.99 96.54 547.35 97.2C548.72 97.85 550.17 98.18 551.7 98.18C552.6 98.18 553.51 98.05 554.43 97.78C555.34 97.52 556.17 97.13 556.9 96.62C557.64 96.11 558.23 95.47 558.7 94.72C559.16 93.96 559.4 93.08 559.4 92.09C559.4 91.01 559.21 90.12 558.85 89.45C558.48 88.77 557.91 88.18 557.15 87.69C556.39 87.19 555.41 86.74 554.25 86.35C553.08 85.95 551.71 85.5 550.15 84.97C548.88 84.57 547.71 84.12 546.64 83.61C545.57 83.1 544.65 82.47 543.86 81.73C543.08 80.99 542.46 80.09 542.01 79.06C541.56 78.03 541.34 76.78 541.34 75.33C541.34 73.65 541.67 72.18 542.34 70.93C543 69.68 543.9 68.63 545.03 67.79C546.17 66.95 547.45 66.32 548.88 65.89C550.31 65.46 551.81 65.25 553.38 65.25C555.39 65.25 557.21 65.55 558.86 66.17C560.51 66.78 561.99 67.84 563.28 69.36C563.05 69.55 561.91 70.54 559.86 72.33C558.76 71.03 557.83 70.22 557.05 69.88C555.88 69.37 554.67 69.12 553.4 69.12Z" id="d1pxEtDQ4i"></path><path d="M177.85 142.97L177.97 142.97L187.22 114.89L196.29 114.89L205.48 143.7L205.6 143.7L213.05 114.89L222.93 114.89L209.98 158.66L201.29 158.66L191.54 128.37L191.41 128.37L181.66 158.66L173.28 158.66L160.16 114.89L170.78 114.89L177.85 142.97Z" id="b3xHe3j6CA"></path><path d="M177.85 142.97L177.97 142.97L187.22 114.89L196.29 114.89L205.48 143.7L205.6 143.7L213.05 114.89L222.93 114.89L209.98 158.66L201.29 158.66L191.54 128.37L191.41 128.37L181.66 158.66L173.28 158.66L160.16 114.89L170.78 114.89L177.85 142.97Z" id="axZMxaFfC"></path><path d="M267.63 158.66L256.63 158.66L252.82 149.39L235.62 149.39L231.93 158.66L221.18 158.66L240.31 114.89L248.37 114.89L267.63 158.66ZM249.5 141.23L244.06 127.63L238.68 141.23L249.5 141.23Z" id="a1bC0JckYK"></path><path d="M267.63 158.66L256.63 158.66L252.82 149.39L235.62 149.39L231.93 158.66L221.18 158.66L240.31 114.89L248.37 114.89L267.63 158.66ZM249.5 141.23L244.06 127.63L238.68 141.23L249.5 141.23Z" id="ctwd8YJz1"></path><path d="M295.61 115.54C297.64 115.98 299.41 116.7 300.93 117.7C302.44 118.72 303.66 120.08 304.55 121.78C305.45 123.49 305.9 125.62 305.9 128.18C305.9 131.28 305.09 133.9 303.46 136.07C301.83 138.23 299.46 139.61 296.33 140.18C297.08 141.42 300.83 147.58 307.59 158.67C306.81 158.67 302.91 158.67 295.89 158.67L286.64 141.18L281.82 141.18L281.82 158.67L272.07 158.67C272.07 132.41 272.07 117.81 272.07 114.89C282.35 114.89 288.06 114.89 289.2 114.89C291.45 114.89 293.59 115.11 295.61 115.54ZM290.35 132.92C291.33 132.86 292.22 132.67 293.01 132.36C293.81 132.05 294.46 131.57 294.98 130.91C295.5 130.25 295.77 129.32 295.77 128.13C295.77 127.02 295.53 126.13 295.07 125.47C294.61 124.81 294.03 124.31 293.32 123.96C292.61 123.61 291.8 123.37 290.88 123.25C289.97 123.13 289.07 123.06 288.2 123.06C287.77 123.06 285.65 123.06 281.82 123.06C281.82 124.06 281.82 132.02 281.82 133.01C285.28 133.01 287.19 133.01 287.58 133.01C288.45 133.01 289.37 132.97 290.35 132.92Z" id="awA12gCVd"></path><path d="M295.61 115.54C297.64 115.98 299.41 116.7 300.93 117.7C302.44 118.72 303.66 120.08 304.55 121.78C305.45 123.49 305.9 125.62 305.9 128.18C305.9 131.28 305.09 133.9 303.46 136.07C301.83 138.23 299.46 139.61 296.33 140.18C297.08 141.42 300.83 147.58 307.59 158.67C306.81 158.67 302.91 158.67 295.89 158.67L286.64 141.18L281.82 141.18L281.82 158.67L272.07 158.67C272.07 132.41 272.07 117.81 272.07 114.89C282.35 114.89 288.06 114.89 289.2 114.89C291.45 114.89 293.59 115.11 295.61 115.54ZM290.35 132.92C291.33 132.86 292.22 132.67 293.01 132.36C293.81 132.05 294.46 131.57 294.98 130.91C295.5 130.25 295.77 129.32 295.77 128.13C295.77 127.02 295.53 126.13 295.07 125.47C294.61 124.81 294.03 124.31 293.32 123.96C292.61 123.61 291.8 123.37 290.88 123.25C289.97 123.13 289.07 123.06 288.2 123.06C287.77 123.06 285.65 123.06 281.82 123.06C281.82 124.06 281.82 132.02 281.82 133.01C285.28 133.01 287.19 133.01 287.58 133.01C288.45 133.01 289.37 132.97 290.35 132.92Z" id="d48wc1LIx"></path><path d="M343.04 123.8L322.72 123.8L322.72 131.96L341.92 131.96L341.92 140.87L322.72 140.87L322.72 149.77L344.17 149.77L344.17 158.68L312.97 158.68L312.97 114.89L343.04 114.89L343.04 123.8Z" id="a5JeAzGQDL"></path><path d="M343.04 123.8L322.72 123.8L322.72 131.96L341.92 131.96L341.92 140.87L322.72 140.87L322.72 149.77L344.17 149.77L344.17 158.68L312.97 158.68L312.97 114.89L343.04 114.89L343.04 123.8Z" id="afYoVdDBg"></path><path d="M361.73 131.21L380.67 131.21L380.67 114.89L390.42 114.89L390.42 158.66L380.67 158.66L380.67 139.75L361.73 139.75L361.73 158.66L351.97 158.66L351.97 114.89L361.73 114.89L361.73 131.21Z" id="a6xMmo6EC"></path><path d="M361.73 131.21L380.67 131.21L380.67 114.89L390.42 114.89L390.42 158.66L380.67 158.66L380.67 139.75L361.73 139.75L361.73 158.66L351.97 158.66L351.97 114.89L361.73 114.89L361.73 131.21Z" id="a4Loa2QGiY"></path><path d="M403.81 120C405.94 118 408.45 116.46 411.37 115.39C414.3 114.32 417.48 113.78 420.94 113.78C424.4 113.78 427.59 114.32 430.5 115.39C433.42 116.47 435.94 118 438.07 120C440.19 122 441.86 124.41 443.04 127.26C444.23 130.1 444.82 133.28 444.82 136.78C444.82 140.28 444.23 143.45 443.04 146.3C441.86 149.14 440.19 151.56 438.07 153.56C435.94 155.56 433.42 157.1 430.5 158.17C427.58 159.24 424.4 159.77 420.94 159.77C417.48 159.77 414.29 159.24 411.37 158.17C408.45 157.09 405.94 155.56 403.81 153.56C401.68 151.56 400.02 149.14 398.83 146.3C397.65 143.45 397.05 140.29 397.05 136.78C397.05 133.28 397.65 130.1 398.83 127.26C400.02 124.41 401.68 122 403.81 120ZM410.93 146.89C412.14 148.15 413.59 149.13 415.28 149.82C416.97 150.52 418.84 150.87 420.93 150.87C423.01 150.87 424.9 150.52 426.58 149.82C428.27 149.12 429.72 148.14 430.93 146.89C432.13 145.63 433.06 144.15 433.7 142.43C434.35 140.73 434.67 138.84 434.67 136.78C434.67 134.76 434.35 132.89 433.7 131.15C433.06 129.42 432.13 127.93 430.93 126.67C429.71 125.42 428.26 124.44 426.58 123.74C424.89 123.04 423.01 122.69 420.93 122.69C418.84 122.69 416.96 123.04 415.28 123.74C413.59 124.44 412.14 125.42 410.93 126.67C409.72 127.93 408.79 129.42 408.15 131.15C407.5 132.89 407.18 134.76 407.18 136.78C407.18 138.84 407.5 140.73 408.15 142.43C408.79 144.14 409.72 145.62 410.93 146.89Z" id="e12xvHwpM9"></path><path d="M403.81 120C405.94 118 408.45 116.46 411.37 115.39C414.3 114.32 417.48 113.78 420.94 113.78C424.4 113.78 427.59 114.32 430.5 115.39C433.42 116.47 435.94 118 438.07 120C440.19 122 441.86 124.41 443.04 127.26C444.23 130.1 444.82 133.28 444.82 136.78C444.82 140.28 444.23 143.45 443.04 146.3C441.86 149.14 440.19 151.56 438.07 153.56C435.94 155.56 433.42 157.1 430.5 158.17C427.58 159.24 424.4 159.77 420.94 159.77C417.48 159.77 414.29 159.24 411.37 158.17C408.45 157.09 405.94 155.56 403.81 153.56C401.68 151.56 400.02 149.14 398.83 146.3C397.65 143.45 397.05 140.29 397.05 136.78C397.05 133.28 397.65 130.1 398.83 127.26C400.02 124.41 401.68 122 403.81 120ZM410.93 146.89C412.14 148.15 413.59 149.13 415.28 149.82C416.97 150.52 418.84 150.87 420.93 150.87C423.01 150.87 424.9 150.52 426.58 149.82C428.27 149.12 429.72 148.14 430.93 146.89C432.13 145.63 433.06 144.15 433.7 142.43C434.35 140.73 434.67 138.84 434.67 136.78C434.67 134.76 434.35 132.89 433.7 131.15C433.06 129.42 432.13 127.93 430.93 126.67C429.71 125.42 428.26 124.44 426.58 123.74C424.89 123.04 423.01 122.69 420.93 122.69C418.84 122.69 416.96 123.04 415.28 123.74C413.59 124.44 412.14 125.42 410.93 126.67C409.72 127.93 408.79 129.42 408.15 131.15C407.5 132.89 407.18 134.76 407.18 136.78C407.18 138.84 407.5 140.73 408.15 142.43C408.79 144.14 409.72 145.62 410.93 146.89Z" id="a1EE60ED4"></path><path d="M484.05 154.65C482.49 156.26 480.54 157.52 478.21 158.42C475.87 159.33 473.18 159.78 470.14 159.78C467.06 159.78 464.35 159.33 462.02 158.42C459.69 157.52 457.74 156.26 456.18 154.65C454.61 153.05 453.43 151.15 452.64 148.97C451.85 146.78 451.46 144.39 451.46 141.79C451.46 140 451.46 131.03 451.46 114.89C452.44 114.89 460.23 114.89 461.2 114.89C461.2 130.81 461.2 139.65 461.2 141.42C461.2 142.78 461.42 144.04 461.86 145.19C462.3 146.34 462.91 147.34 463.7 148.18C464.49 149.03 465.44 149.69 466.55 150.17C467.65 150.64 468.85 150.88 470.14 150.88C471.44 150.88 472.63 150.64 473.7 150.17C474.79 149.69 475.73 149.04 476.52 148.18C477.31 147.34 477.92 146.34 478.36 145.19C478.8 144.03 479.02 142.78 479.02 141.42C479.02 139.65 479.02 130.81 479.02 114.89C479.67 114.89 482.92 114.89 488.77 114.89C488.77 131.03 488.77 140 488.77 141.79C488.51 145.12 488.11 147.51 487.58 148.97C486.79 151.15 485.61 153.05 484.05 154.65Z" id="b11S32ScKJ"></path><path d="M484.05 154.65C482.49 156.26 480.54 157.52 478.21 158.42C475.87 159.33 473.18 159.78 470.14 159.78C467.06 159.78 464.35 159.33 462.02 158.42C459.69 157.52 457.74 156.26 456.18 154.65C454.61 153.05 453.43 151.15 452.64 148.97C451.85 146.78 451.46 144.39 451.46 141.79C451.46 140 451.46 131.03 451.46 114.89C452.44 114.89 460.23 114.89 461.2 114.89C461.2 130.81 461.2 139.65 461.2 141.42C461.2 142.78 461.42 144.04 461.86 145.19C462.3 146.34 462.91 147.34 463.7 148.18C464.49 149.03 465.44 149.69 466.55 150.17C467.65 150.64 468.85 150.88 470.14 150.88C471.44 150.88 472.63 150.64 473.7 150.17C474.79 149.69 475.73 149.04 476.52 148.18C477.31 147.34 477.92 146.34 478.36 145.19C478.8 144.03 479.02 142.78 479.02 141.42C479.02 139.65 479.02 130.81 479.02 114.89C479.67 114.89 482.92 114.89 488.77 114.89C488.77 131.03 488.77 140 488.77 141.79C488.51 145.12 488.11 147.51 487.58 148.97C486.79 151.15 485.61 153.05 484.05 154.65Z" id="c19v2xHVc"></path><path d="M512.59 122.68C511.88 122.68 511.15 122.76 510.41 122.93C509.66 123.1 508.95 123.36 508.28 123.7C507.61 124.05 507.06 124.52 506.65 125.1C506.24 125.68 506.02 126.38 506.02 127.2C506.02 128.51 506.52 129.53 507.52 130.23C508.52 130.93 509.78 131.53 511.31 132.02C512.82 132.52 514.46 133.01 516.21 133.51C517.97 134.01 519.6 134.71 521.12 135.61C522.64 136.51 523.91 137.73 524.91 139.25C525.9 140.78 526.41 142.81 526.41 145.37C526.41 147.81 525.95 149.93 525.03 151.74C524.11 153.55 522.87 155.05 521.31 156.25C519.75 157.45 517.93 158.33 515.87 158.91C513.8 159.49 511.63 159.77 509.34 159.77C506.46 159.77 503.79 159.34 501.34 158.48C498.87 157.61 496.58 156.21 494.46 154.27C495.15 153.52 500.71 147.48 501.4 146.73C502.4 148.04 503.66 149.06 505.18 149.78C506.7 150.5 508.28 150.87 509.9 150.87C510.69 150.87 511.49 150.78 512.31 150.59C513.12 150.41 513.85 150.13 514.5 149.76C515.14 149.38 515.67 148.91 516.06 148.33C516.46 147.76 516.65 147.08 516.65 146.3C516.65 144.98 516.14 143.94 515.13 143.18C514.1 142.41 512.82 141.77 511.28 141.23C509.73 140.7 508.07 140.16 506.28 139.62C504.49 139.09 502.82 138.37 501.28 137.46C499.74 136.56 498.46 135.36 497.44 133.88C496.41 132.4 495.91 130.44 495.91 128.01C495.91 125.66 496.37 123.6 497.32 121.82C498.25 120.05 499.5 118.57 501.07 117.37C502.63 116.17 504.43 115.28 506.48 114.67C508.52 114.08 510.62 113.77 512.79 113.77C515.29 113.77 517.71 114.12 520.04 114.82C522.38 115.53 524.48 116.7 526.35 118.34C525.91 118.83 523.67 121.24 519.66 125.59C518.41 124.44 517.34 123.71 516.44 123.39C515.08 122.92 513.8 122.68 512.59 122.68Z" id="b1zEiO2lol"></path><path d="M512.59 122.68C511.88 122.68 511.15 122.76 510.41 122.93C509.66 123.1 508.95 123.36 508.28 123.7C507.61 124.05 507.06 124.52 506.65 125.1C506.24 125.68 506.02 126.38 506.02 127.2C506.02 128.51 506.52 129.53 507.52 130.23C508.52 130.93 509.78 131.53 511.31 132.02C512.82 132.52 514.46 133.01 516.21 133.51C517.97 134.01 519.6 134.71 521.12 135.61C522.64 136.51 523.91 137.73 524.91 139.25C525.9 140.78 526.41 142.81 526.41 145.37C526.41 147.81 525.95 149.93 525.03 151.74C524.11 153.55 522.87 155.05 521.31 156.25C519.75 157.45 517.93 158.33 515.87 158.91C513.8 159.49 511.63 159.77 509.34 159.77C506.46 159.77 503.79 159.34 501.34 158.48C498.87 157.61 496.58 156.21 494.46 154.27C495.15 153.52 500.71 147.48 501.4 146.73C502.4 148.04 503.66 149.06 505.18 149.78C506.7 150.5 508.28 150.87 509.9 150.87C510.69 150.87 511.49 150.78 512.31 150.59C513.12 150.41 513.85 150.13 514.5 149.76C515.14 149.38 515.67 148.91 516.06 148.33C516.46 147.76 516.65 147.08 516.65 146.3C516.65 144.98 516.14 143.94 515.13 143.18C514.1 142.41 512.82 141.77 511.28 141.23C509.73 140.7 508.07 140.16 506.28 139.62C504.49 139.09 502.82 138.37 501.28 137.46C499.74 136.56 498.46 135.36 497.44 133.88C496.41 132.4 495.91 130.44 495.91 128.01C495.91 125.66 496.37 123.6 497.32 121.82C498.25 120.05 499.5 118.57 501.07 117.37C502.63 116.17 504.43 115.28 506.48 114.67C508.52 114.08 510.62 113.77 512.79 113.77C515.29 113.77 517.71 114.12 520.04 114.82C522.38 115.53 524.48 116.7 526.35 118.34C525.91 118.83 523.67 121.24 519.66 125.59C518.41 124.44 517.34 123.71 516.44 123.39C515.08 122.92 513.8 122.68 512.59 122.68Z" id="f2Dn5nE0vY"></path><path d="M564.11 123.8L543.79 123.8L543.79 131.96L562.98 131.96L562.98 140.87L543.79 140.87L543.79 149.77L565.24 149.77L565.24 158.68L534.04 158.68L534.04 114.89L564.11 114.89L564.11 123.8Z" id="fbt9w34Ek"></path><path d="M564.11 123.8L543.79 123.8L543.79 131.96L562.98 131.96L562.98 140.87L543.79 140.87L543.79 149.77L565.24 149.77L565.24 158.68L534.04 158.68L534.04 114.89L564.11 114.89L564.11 123.8Z" id="cbt8JhKjKu"></path></defs><g><g><use xlink:href="#b4ROysn4H" opacity="1" fill="#ffffff" fill-opacity="1"></use><g><use xlink:href="#b4ROysn4H" opacity="1" fill-opacity="0" stroke="#000000" stroke-width="1" stroke-opacity="0"></use></g></g><g><use xlink:href="#euyVuDAL4" opacity="1" fill="#ffffff" fill-opacity="1"></use><g><use xlink:href="#euyVuDAL4" opacity="1" fill-opacity="0" stroke="#000000" stroke-width="1" stroke-opacity="0"></use></g></g><g><use xlink:href="#d2kbEQZVwl" opacity="1" fill="#ffffff" fill-opacity="1"></use><g><use xlink:href="#d2kbEQZVwl" opacity="1" fill-opacity="0" stroke="#000000" stroke-width="1" stroke-opacity="0"></use></g></g><g><use xlink:href="#a12FYERX65" opacity="1" fill="#ffffff" fill-opacity="1"></use><g><use xlink:href="#a12FYERX65" opacity="1" fill-opacity="0" stroke="#000000" stroke-width="1" stroke-opacity="0"></use></g></g><g><use xlink:href="#c1JnQyYlBL" opacity="1" fill="#ffffff" fill-opacity="1"></use><g><use xlink:href="#c1JnQyYlBL" opacity="1" fill-opacity="0" stroke="#000000" stroke-width="1" stroke-opacity="0"></use></g></g><g><use xlink:href="#a5RbLgQHqb" opacity="1" fill="#ffffff" fill-opacity="1"></use><g><use xlink:href="#a5RbLgQHqb" opacity="1" fill-opacity="0" stroke="#000000" stroke-width="1" stroke-opacity="0"></use></g></g><g><use xlink:href="#e7e3WcpAvL" opacity="1" fill="#ffffff" fill-opacity="1"></use><g><use xlink:href="#e7e3WcpAvL" opacity="1" fill-opacity="0" stroke="#000000" stroke-width="1" stroke-opacity="0"></use></g></g><g><use xlink:href="#aGLDL3rl9" opacity="1" fill="#ffffff" fill-opacity="1"></use><g><use xlink:href="#aGLDL3rl9" opacity="1" fill-opacity="0" stroke="#000000" stroke-width="1" stroke-opacity="0"></use></g></g><g><use xlink:href="#eiRTFfPam" opacity="1" fill="#ffffff" fill-opacity="1"></use><g><use xlink:href="#eiRTFfPam" opacity="1" fill-opacity="0" stroke="#000000" stroke-width="1" stroke-opacity="0"></use></g></g><g><use xlink:href="#c48FWMBsV3" opacity="1" fill="#ffffff" fill-opacity="1"></use><g><use xlink:href="#c48FWMBsV3" opacity="1" fill-opacity="0" stroke="#000000" stroke-width="1" stroke-opacity="0"></use></g></g><g><use xlink:href="#a4mS5QZ8tS" opacity="1" fill="#ffffff" fill-opacity="1"></use><g><use xlink:href="#a4mS5QZ8tS" opacity="1" fill-opacity="0" stroke="#000000" stroke-width="1" stroke-opacity="0"></use></g></g><g><use xlink:href="#bcP0A2DCq" opacity="1" fill="#ffffff" fill-opacity="1"></use><g><use xlink:href="#bcP0A2DCq" opacity="1" fill-opacity="0" stroke="#000000" stroke-width="1" stroke-opacity="0"></use></g></g><g><use xlink:href="#aeBEudizJ" opacity="1" fill="#ffffff" fill-opacity="1"></use><g><use xlink:href="#aeBEudizJ" opacity="1" fill-opacity="0" stroke="#000000" stroke-width="1" stroke-opacity="0"></use></g></g><g><use xlink:href="#b7ROmgKIF" opacity="1" fill="#ffffff" fill-opacity="1"></use><g><use xlink:href="#b7ROmgKIF" opacity="1" fill-opacity="0" stroke="#000000" stroke-width="1" stroke-opacity="0"></use></g></g><g><use xlink:href="#aPr6Xpc41" opacity="1" fill="#ffffff" fill-opacity="1"></use><g><use xlink:href="#aPr6Xpc41" opacity="1" fill-opacity="0" stroke="#000000" stroke-width="1" stroke-opacity="0"></use></g></g><g><use xlink:href="#b1eNhNmNKS" opacity="1" fill="#ffffff" fill-opacity="1"></use><g><use xlink:href="#b1eNhNmNKS" opacity="1" fill-opacity="0" stroke="#000000" stroke-width="1" stroke-opacity="0"></use></g></g><g><use xlink:href="#bvBKKAZvq" opacity="1" fill="#ffffff" fill-opacity="1"></use><g><use xlink:href="#bvBKKAZvq" opacity="1" fill-opacity="0" stroke="#000000" stroke-width="1" stroke-opacity="0"></use></g></g><g><use xlink:href="#a1fY3J7msQ" opacity="1" fill="#ffffff" fill-opacity="1"></use><g><use xlink:href="#a1fY3J7msQ" opacity="1" fill-opacity="0" stroke="#000000" stroke-width="1" stroke-opacity="0"></use></g></g><g><use xlink:href="#b22B0F6Kan" opacity="1" fill="#ffffff" fill-opacity="1"></use><g><use xlink:href="#b22B0F6Kan" opacity="1" fill-opacity="0" stroke="#000000" stroke-width="1" stroke-opacity="0"></use></g></g><g><use xlink:href="#a3HMY9tiR" opacity="1" fill="#ffffff" fill-opacity="1"></use><g><use xlink:href="#a3HMY9tiR" opacity="1" fill-opacity="0" stroke="#000000" stroke-width="1" stroke-opacity="0"></use></g></g><g><use xlink:href="#a3biimCIv" opacity="1" fill="#ffffff" fill-opacity="1"></use><g><use xlink:href="#a3biimCIv" opacity="1" fill-opacity="0" stroke="#000000" stroke-width="1" stroke-opacity="0"></use></g></g><g><use xlink:href="#dbEZfFBO1" opacity="1" fill="#ffffff" fill-opacity="1"></use><g><use xlink:href="#dbEZfFBO1" opacity="1" fill-opacity="0" stroke="#000000" stroke-width="1" stroke-opacity="0"></use></g></g><g><use xlink:href="#b8W3fYCQ4" opacity="1" fill="#ffffff" fill-opacity="1"></use><g><use xlink:href="#b8W3fYCQ4" opacity="1" fill-opacity="0" stroke="#000000" stroke-width="1" stroke-opacity="0"></use></g></g><g><use xlink:href="#b2Qy7EhKml" opacity="1" fill="#ffffff" fill-opacity="1"></use><g><use xlink:href="#b2Qy7EhKml" opacity="1" fill-opacity="0" stroke="#000000" stroke-width="1" stroke-opacity="0"></use></g></g><g><use xlink:href="#b8vEOVCGb" opacity="1" fill="#ffffff" fill-opacity="1"></use><g><use xlink:href="#b8vEOVCGb" opacity="1" fill-opacity="0" stroke="#000000" stroke-width="1" stroke-opacity="0"></use></g></g><g><use xlink:href="#b7reMoeXfS" opacity="1" fill="#ffffff" fill-opacity="1"></use><g><use xlink:href="#b7reMoeXfS" opacity="1" fill-opacity="0" stroke="#000000" stroke-width="1" stroke-opacity="0"></use></g></g><g><use xlink:href="#a3OOsbM0b" opacity="1" fill="#ffffff" fill-opacity="1"></use><g><use xlink:href="#a3OOsbM0b" opacity="1" fill-opacity="0" stroke="#000000" stroke-width="1" stroke-opacity="0"></use></g></g><g><use xlink:href="#e2hbxXqYY" opacity="1" fill="#ffffff" fill-opacity="1"></use><g><use xlink:href="#e2hbxXqYY" opacity="1" fill-opacity="0" stroke="#000000" stroke-width="1" stroke-opacity="0"></use></g></g><g><use xlink:href="#a79UYy4AM2" opacity="1" fill="#ffffff" fill-opacity="1"></use><g><use xlink:href="#a79UYy4AM2" opacity="1" fill-opacity="0" stroke="#000000" stroke-width="1" stroke-opacity="0"></use></g></g><g><use xlink:href="#c4cortxvIw" opacity="1" fill="#ffffff" fill-opacity="1"></use><g><use xlink:href="#c4cortxvIw" opacity="1" fill-opacity="0" stroke="#000000" stroke-width="1" stroke-opacity="0"></use></g></g><g><use xlink:href="#bP4Wx2Ers" opacity="1" fill="#ffffff" fill-opacity="1"></use><g><use xlink:href="#bP4Wx2Ers" opacity="1" fill-opacity="0" stroke="#000000" stroke-width="1" stroke-opacity="0"></use></g></g><g><use xlink:href="#a1MO7RsHdN" opacity="1" fill="#ffffff" fill-opacity="1"></use><g><use xlink:href="#a1MO7RsHdN" opacity="1" fill-opacity="0" stroke="#000000" stroke-width="1" stroke-opacity="0"></use></g></g><g><use xlink:href="#b24UuyQVJA" opacity="1" fill="#ffffff" fill-opacity="1"></use><g><use xlink:href="#b24UuyQVJA" opacity="1" fill-opacity="0" stroke="#000000" stroke-width="1" stroke-opacity="0"></use></g></g><g><use xlink:href="#crVOQO8IW" opacity="1" fill="#ffffff" fill-opacity="1"></use><g><use xlink:href="#crVOQO8IW" opacity="1" fill-opacity="0" stroke="#000000" stroke-width="1" stroke-opacity="0"></use></g></g><g><use xlink:href="#ac0VTXD2nc" opacity="1" fill="#ffffff" fill-opacity="1"></use><g><use xlink:href="#ac0VTXD2nc" opacity="1" fill-opacity="0" stroke="#000000" stroke-width="1" stroke-opacity="0"></use></g></g><g><use xlink:href="#asjgglZYj" opacity="1" fill="#ffffff" fill-opacity="1"></use><g><use xlink:href="#asjgglZYj" opacity="1" fill-opacity="0" stroke="#000000" stroke-width="1" stroke-opacity="0"></use></g></g><g><use xlink:href="#atAK3CVP6" opacity="1" fill="#ffffff" fill-opacity="1"></use><g><use xlink:href="#atAK3CVP6" opacity="1" fill-opacity="0" stroke="#000000" stroke-width="1" stroke-opacity="0"></use></g></g><g><use xlink:href="#a6mXTur2e1" opacity="1" fill="#ffffff" fill-opacity="1"></use><g><use xlink:href="#a6mXTur2e1" opacity="1" fill-opacity="0" stroke="#000000" stroke-width="1" stroke-opacity="0"></use></g></g><g><use xlink:href="#d1oT4KSWSg" opacity="1" fill="#ffffff" fill-opacity="1"></use><g><use xlink:href="#d1oT4KSWSg" opacity="1" fill-opacity="0" stroke="#000000" stroke-width="1" stroke-opacity="0"></use></g></g><g><use xlink:href="#k1nAVL8fFv" opacity="1" fill="#ffffff" fill-opacity="1"></use><g><use xlink:href="#k1nAVL8fFv" opacity="1" fill-opacity="0" stroke="#000000" stroke-width="1" stroke-opacity="0"></use></g></g><g><use xlink:href="#b3chFvS9dG" opacity="1" fill="#ffffff" fill-opacity="1"></use><g><use xlink:href="#b3chFvS9dG" opacity="1" fill-opacity="0" stroke="#000000" stroke-width="1" stroke-opacity="0"></use></g></g><g><use xlink:href="#d5flwa3Ce" opacity="1" fill="#ffffff" fill-opacity="1"></use><g><use xlink:href="#d5flwa3Ce" opacity="1" fill-opacity="0" stroke="#000000" stroke-width="1" stroke-opacity="0"></use></g></g><g><use xlink:href="#cwyRQciTa" opacity="1" fill="#ffffff" fill-opacity="1"></use><g><use xlink:href="#cwyRQciTa" opacity="1" fill-opacity="0" stroke="#000000" stroke-width="1" stroke-opacity="0"></use></g></g><g><use xlink:href="#h16wM2hHJl" opacity="1" fill="#ffffff" fill-opacity="1"></use><g><use xlink:href="#h16wM2hHJl" opacity="1" fill-opacity="0" stroke="#000000" stroke-width="1" stroke-opacity="0"></use></g></g><g><use xlink:href="#f1oELwG0pA" opacity="1" fill="#ffffff" fill-opacity="1"></use><g><use xlink:href="#f1oELwG0pA" opacity="1" fill-opacity="0" stroke="#000000" stroke-width="1" stroke-opacity="0"></use></g></g><g><use xlink:href="#ayhTxnN9O" opacity="1" fill="#ffffff" fill-opacity="1"></use><g><use xlink:href="#ayhTxnN9O" opacity="1" fill-opacity="0" stroke="#000000" stroke-width="1" stroke-opacity="0"></use></g></g><g><use xlink:href="#b2OLqC9b8G" opacity="1" fill="#ffffff" fill-opacity="1"></use><g><use xlink:href="#b2OLqC9b8G" opacity="1" fill-opacity="0" stroke="#000000" stroke-width="1" stroke-opacity="0"></use></g></g><g><use xlink:href="#gmQfjFUQ3" opacity="1" fill="#ffffff" fill-opacity="1"></use><g><use xlink:href="#gmQfjFUQ3" opacity="1" fill-opacity="0" stroke="#000000" stroke-width="1" stroke-opacity="0"></use></g></g><g><use xlink:href="#bA7bxLOIi" opacity="1" fill="#ffffff" fill-opacity="1"></use><g><use xlink:href="#bA7bxLOIi" opacity="1" fill-opacity="0" stroke="#000000" stroke-width="1" stroke-opacity="0"></use></g></g><g><use xlink:href="#d1pxEtDQ4i" opacity="1" fill="#ffffff" fill-opacity="1"></use><g><use xlink:href="#d1pxEtDQ4i" opacity="1" fill-opacity="0" stroke="#000000" stroke-width="1" stroke-opacity="0"></use></g></g><g><use xlink:href="#b3xHe3j6CA" opacity="1" fill="#ffffff" fill-opacity="1"></use><g><use xlink:href="#b3xHe3j6CA" opacity="1" fill-opacity="0" stroke="#000000" stroke-width="1" stroke-opacity="0"></use></g></g><g><use xlink:href="#axZMxaFfC" opacity="1" fill="#ffffff" fill-opacity="1"></use><g><use xlink:href="#axZMxaFfC" opacity="1" fill-opacity="0" stroke="#000000" stroke-width="1" stroke-opacity="0"></use></g></g><g><use xlink:href="#a1bC0JckYK" opacity="1" fill="#ffffff" fill-opacity="1"></use><g><use xlink:href="#a1bC0JckYK" opacity="1" fill-opacity="0" stroke="#000000" stroke-width="1" stroke-opacity="0"></use></g></g><g><use xlink:href="#ctwd8YJz1" opacity="1" fill="#ffffff" fill-opacity="1"></use><g><use xlink:href="#ctwd8YJz1" opacity="1" fill-opacity="0" stroke="#000000" stroke-width="1" stroke-opacity="0"></use></g></g><g><use xlink:href="#awA12gCVd" opacity="1" fill="#ffffff" fill-opacity="1"></use><g><use xlink:href="#awA12gCVd" opacity="1" fill-opacity="0" stroke="#000000" stroke-width="1" stroke-opacity="0"></use></g></g><g><use xlink:href="#d48wc1LIx" opacity="1" fill="#ffffff" fill-opacity="1"></use><g><use xlink:href="#d48wc1LIx" opacity="1" fill-opacity="0" stroke="#000000" stroke-width="1" stroke-opacity="0"></use></g></g><g><use xlink:href="#a5JeAzGQDL" opacity="1" fill="#ffffff" fill-opacity="1"></use><g><use xlink:href="#a5JeAzGQDL" opacity="1" fill-opacity="0" stroke="#000000" stroke-width="1" stroke-opacity="0"></use></g></g><g><use xlink:href="#afYoVdDBg" opacity="1" fill="#ffffff" fill-opacity="1"></use><g><use xlink:href="#afYoVdDBg" opacity="1" fill-opacity="0" stroke="#000000" stroke-width="1" stroke-opacity="0"></use></g></g><g><use xlink:href="#a6xMmo6EC" opacity="1" fill="#ffffff" fill-opacity="1"></use><g><use xlink:href="#a6xMmo6EC" opacity="1" fill-opacity="0" stroke="#000000" stroke-width="1" stroke-opacity="0"></use></g></g><g><use xlink:href="#a4Loa2QGiY" opacity="1" fill="#ffffff" fill-opacity="1"></use><g><use xlink:href="#a4Loa2QGiY" opacity="1" fill-opacity="0" stroke="#000000" stroke-width="1" stroke-opacity="0"></use></g></g><g><use xlink:href="#e12xvHwpM9" opacity="1" fill="#ffffff" fill-opacity="1"></use><g><use xlink:href="#e12xvHwpM9" opacity="1" fill-opacity="0" stroke="#000000" stroke-width="1" stroke-opacity="0"></use></g></g><g><use xlink:href="#a1EE60ED4" opacity="1" fill="#ffffff" fill-opacity="1"></use><g><use xlink:href="#a1EE60ED4" opacity="1" fill-opacity="0" stroke="#000000" stroke-width="1" stroke-opacity="0"></use></g></g><g><use xlink:href="#b11S32ScKJ" opacity="1" fill="#ffffff" fill-opacity="1"></use><g><use xlink:href="#b11S32ScKJ" opacity="1" fill-opacity="0" stroke="#000000" stroke-width="1" stroke-opacity="0"></use></g></g><g><use xlink:href="#c19v2xHVc" opacity="1" fill="#ffffff" fill-opacity="1"></use><g><use xlink:href="#c19v2xHVc" opacity="1" fill-opacity="0" stroke="#000000" stroke-width="1" stroke-opacity="0"></use></g></g><g><use xlink:href="#b1zEiO2lol" opacity="1" fill="#ffffff" fill-opacity="1"></use><g><use xlink:href="#b1zEiO2lol" opacity="1" fill-opacity="0" stroke="#000000" stroke-width="1" stroke-opacity="0"></use></g></g><g><use xlink:href="#f2Dn5nE0vY" opacity="1" fill="#ffffff" fill-opacity="1"></use><g><use xlink:href="#f2Dn5nE0vY" opacity="1" fill-opacity="0" stroke="#000000" stroke-width="1" stroke-opacity="0"></use></g></g><g><use xlink:href="#fbt9w34Ek" opacity="1" fill="#ffffff" fill-opacity="1"></use><g><use xlink:href="#fbt9w34Ek" opacity="1" fill-opacity="0" stroke="#000000" stroke-width="1" stroke-opacity="0"></use></g></g><g><use xlink:href="#cbt8JhKjKu" opacity="1" fill="#ffffff" fill-opacity="1"></use><g><use xlink:href="#cbt8JhKjKu" opacity="1" fill-opacity="0" stroke="#000000" stroke-width="1" stroke-opacity="0"></use></g></g></g></svg>